<?xml version="1.0" encoding="UTF-8" standalone="no"?>
<!-- Created with Inkscape (http://www.inkscape.org/) -->

<svg
   xmlns:dc="http://purl.org/dc/elements/1.1/"
   xmlns:cc="http://creativecommons.org/ns#"
   xmlns:rdf="http://www.w3.org/1999/02/22-rdf-syntax-ns#"
   xmlns:svg="http://www.w3.org/2000/svg"
   xmlns="http://www.w3.org/2000/svg"
   xmlns:sodipodi="http://sodipodi.sourceforge.net/DTD/sodipodi-0.dtd"
   xmlns:inkscape="http://www.inkscape.org/namespaces/inkscape"
   width="159.99821"
   height="35.587971"
   viewBox="0 0 42.332862 9.4159839"
   version="1.1"
   id="svg9693"
   inkscape:version="0.92.0 r15299"
   sodipodi:docname="polymetal.svg">
  <defs
     id="defs9687">
    <path
       d="M 0,0 H 158.74 V 34.586 H 0 Z"
       id="a"
       inkscape:connector-curvature="0" />
  </defs>
  <sodipodi:namedview
     id="base"
     pagecolor="#ffffff"
     bordercolor="#666666"
     borderopacity="1.0"
     inkscape:pageopacity="0.0"
     inkscape:pageshadow="2"
     inkscape:zoom="5.6415805"
     inkscape:cx="79.49915"
     inkscape:cy="17.29428"
     inkscape:document-units="mm"
     inkscape:current-layer="layer1"
     showgrid="false"
     fit-margin-top="0"
     fit-margin-left="0"
     fit-margin-right="0"
     fit-margin-bottom="0"
     units="px"
     inkscape:window-width="1280"
     inkscape:window-height="744"
     inkscape:window-x="-4"
     inkscape:window-y="-4"
     inkscape:window-maximized="1" />
  <metadata
     id="metadata9690">
    <rdf:RDF>
      <cc:Work
         rdf:about="">
        <dc:format>image/svg+xml</dc:format>
        <dc:type
           rdf:resource="http://purl.org/dc/dcmitype/StillImage" />
        <dc:title></dc:title>
      </cc:Work>
    </rdf:RDF>
  </metadata>
  <g
     inkscape:label="Layer 1"
     inkscape:groupmode="layer"
     id="layer1"
     transform="translate(-121.0849,-332.22527)">
    <g
       id="g9725"
       transform="translate(0.13229049,-0.13228765)">
      <path
         id="path9701"
         d="m 121.67866,340.62346 5.47344,-1.30334 c 0.0466,-0.0114 0.17965,-0.0394 0.29528,-0.0325 0.0923,0.005 0.14763,0.009 0.23309,0.0447 0.11616,0.0474 0.20426,0.14393 0.25427,0.19711 l 1.99152,2.10582 h 0.0235 l -8.86486,0.006 z m 8.78629,1.0115 -3.86583,-4.08861 c -0.0325,-0.0344 -0.12409,-0.13573 -0.17621,-0.23918 -0.0415,-0.0825 -0.0651,-0.13203 -0.0775,-0.22357 -0.0167,-0.12462 0.023,-0.24924 0.0434,-0.31909 l 0.82814,-2.7776 -0.0116,-0.0204 4.43759,7.6745 z"
         clip-path="url(#b)"
         inkscape:connector-curvature="0"
         style="fill:#faa634;stroke-width:0.26458332" />
      <path
         id="path9703"
         d="m 126.92826,333.51251 -1.60813,5.39221 c -0.0135,0.0453 -0.055,0.17516 -0.1188,0.27226 -0.0508,0.077 -0.0823,0.1225 -0.15531,0.17912 -0.0998,0.0762 -0.22728,0.10478 -0.29819,0.12145 l -2.81913,0.6723 -0.0119,0.0198 4.42754,-7.6798 z"
         clip-path="url(#b)"
         inkscape:connector-curvature="0"
         style="fill:#9d9fa2;stroke-width:0.26458332" />
      <path
         id="path9705"
         d="m 133.38833,335.16986 h 1.20809 c 0.84164,0 1.22952,0.51885 1.22952,1.13348 0,0.60457 -0.40958,1.10146 -1.30466,1.10146 h -0.57759 v 1.62639 h -0.5551 v -3.86133 z m 0.55536,1.73858 h 0.63103 c 0.41011,0 0.67998,-0.24368 0.67998,-0.62627 0,-0.28575 -0.15663,-0.61568 -0.65802,-0.61568 h -0.65299 z m 7.34748,1.62666 h 1.74228 v 0.49636 h -2.29764 v -3.8616 h 0.55536 z m 1.95633,-3.36497 1.0406,1.33271 1.04564,-1.33271 h 0.66913 l -1.43431,1.82271 v 2.03862 h -0.55562 v -2.04417 l -1.43484,-1.81716 z m 3.77798,0 1.27821,1.58591 1.28375,-1.58591 h 0.51779 v 3.86133 h -0.55589 v -3.00382 h -0.0106 l -1.19168,1.49384 h -0.0863 l -1.19274,-1.49384 h -0.01 v 3.00382 h -0.55562 v -3.86133 z m 13.35987,3.86133 h -0.56594 l -0.51805,-1.13771 h -1.63963 l -0.4908,1.13771 h -0.56568 l 1.66106,-3.8825 h 0.38761 z m -2.50719,-1.63407 h 1.19618 l -0.61912,-1.40255 z m 3.53298,1.13771 h 1.74202 v 0.49636 h -2.29711 v -3.8616 h 0.55509 z m -8.14175,-3.35836 v 0.4953 h -1.78065 v 1.12766 h 1.74149 v 0.49636 h -1.74149 v 1.24671 h 1.84785 v 0.4953 h -2.40533 v -3.86133 z m 3.62161,0 v 0.4953 h -1.30281 v 3.36603 h -0.55456 v -3.36603 h -1.30255 v -0.4953 z m -18.74467,-0.0341 c 1.21761,0 1.98596,0.90832 1.98596,1.98464 0,1.04272 -0.74744,1.98332 -1.99707,1.98332 -1.20756,0 -1.97141,-0.9353 -1.97141,-1.98332 0,-1.06971 0.78502,-1.98464 1.98252,-1.98464 m 0,3.46022 c 0.83026,0 1.43854,-0.63209 1.43854,-1.47531 0,-0.84879 -0.60828,-1.47585 -1.43854,-1.47585 -0.82603,0 -1.43457,0.62706 -1.43457,1.47585 0,0.84322 0.60854,1.47531 1.43457,1.47531 m 2.89163,1.3343 h 0.1278 v 1.61448 h -0.1278 z m 0.4326,0.002 h 0.11827 l 1.21232,1.40864 v -1.40864 h 0.12541 v 1.61237 h -0.10398 l -1.22423,-1.41605 v 1.41605 h -0.12779 z m 1.60893,-0.002 h 1.33323 v 0.1061 H 143.81 v 1.50812 h -0.12806 v -1.50812 h -0.60245 z m 1.50283,0.002 h 0.88159 v 0.10636 h -0.7538 v 0.64082 h 0.73449 v 0.10663 h -0.73449 v 0.65193 h 0.77259 v 0.10663 h -0.90038 z m 1.55019,0 c 0.49372,0 0.55272,0.2577 0.55272,0.41857 0,0.19606 -0.12515,0.33576 -0.30004,0.38761 0.059,0.0355 0.14182,0.13494 0.17489,0.18653 0,0 0.36857,0.56727 0.40376,0.61939 h -0.14632 l -0.30268,-0.47254 c -0.13706,-0.21273 -0.21035,-0.30057 -0.39476,-0.30057 h -0.25268 v 0.77311 h -0.12779 v -1.6121 z m -0.26484,0.73289 h 0.26908 c 0.3003,0 0.41381,-0.13705 0.41381,-0.31432 0,-0.20796 -0.13759,-0.31221 -0.47043,-0.31221 h -0.21246 z m 1.22608,-0.73289 h 0.11826 l 1.21259,1.40864 v -1.40864 h 0.12515 v 1.61237 h -0.10451 l -1.22396,-1.41605 v 1.41605 h -0.12753 z m 2.3487,-0.0119 h 0.0733 l 0.74427,1.62428 h -0.12991 l -0.25532,-0.55801 h -0.78713 l -0.25533,0.55801 h -0.12991 z m 0.0373,0.204 -0.34925,0.75565 h 0.69453 z m 0.79878,-0.19421 h 1.3335 v 0.1061 h -0.60325 v 1.50812 h -0.1278 v -1.50812 h -0.60245 z m 1.50256,-2.6e-4 h 0.1278 v 1.61448 h -0.1278 z m 2.09868,0.80142 c 0,0.47069 -0.36883,0.83423 -0.8509,0.83423 -0.47519,0 -0.85328,-0.35877 -0.85328,-0.82709 0,-0.47016 0.36856,-0.82708 0.85328,-0.82708 0.47493,0 0.8509,0.35163 0.8509,0.81994 m -0.13494,0 c 0,-0.39 -0.31432,-0.70644 -0.71596,-0.70644 -0.41143,0 -0.71861,0.3257 -0.71861,0.72337 0,0.39212 0.31406,0.70406 0.71358,0.70406 0.41884,0 0.72099,-0.32359 0.72099,-0.72099 m 0.41328,-0.79904 h 0.118 l 1.21206,1.40864 v -1.40864 h 0.12594 v 1.61237 h -0.10451 l -1.22396,-1.41605 v 1.41605 h -0.12753 z m 2.34871,-0.0119 h 0.0728 l 0.74453,1.62428 h -0.12991 l -0.25532,-0.55801 h -0.78713 l -0.25533,0.55801 h -0.12991 z m 0.0376,0.204 -0.34952,0.75565 h 0.69453 z m 0.94959,-0.19421 h 0.12779 v 1.50786 h 0.79666 v 0.10636 h -0.92445 z m 1.98437,0.002 h 0.46144 c 0.25188,0 0.50535,0.10398 0.50535,0.42995 0,0.31909 -0.25347,0.42836 -0.50535,0.42836 h -0.33391 v 0.75353 h -0.12753 z m 0.1278,0.1061 v 0.6432 h 0.30056 c 0.21696,0.005 0.40402,-0.0661 0.40402,-0.31908 0,-0.25268 -0.18706,-0.32412 -0.40402,-0.32412 z m 1.07738,-0.10848 h 0.12753 v 1.50786 h 0.79639 v 0.10636 h -0.92392 z m 1.89997,1.52215 c 0.20823,0 0.39053,-0.0757 0.56965,-0.16589 v 0.13044 c -0.18203,0.0921 -0.36407,0.14869 -0.56965,0.14869 -0.48419,0 -0.85751,-0.34502 -0.85751,-0.81994 0,-0.46355 0.36142,-0.8345 0.84349,-0.8345 0.23654,0 0.40428,0.0614 0.56753,0.13494 v 0.13467 c -0.17039,-0.087 -0.31935,-0.15557 -0.54848,-0.15557 -0.43233,0 -0.72813,0.30665 -0.72813,0.71596 -2.7e-4,0.40878 0.30533,0.7112 0.7231,0.7112"
         clip-path="url(#b)"
         inkscape:connector-curvature="0"
         style="fill:#717073;stroke-width:0.26458332" />
    </g>
  </g>
</svg>
