<?xml version="1.0" standalone="no"?>
<!DOCTYPE svg PUBLIC "-//W3C//DTD SVG 20010904//EN"
 "http://www.w3.org/TR/2001/REC-SVG-20010904/DTD/svg10.dtd">
<svg version="1.0" xmlns="http://www.w3.org/2000/svg"
 width="910.000000pt" height="210.000000pt" viewBox="0 0 910.000000 210.000000"
 preserveAspectRatio="xMidYMid meet">

<g transform="translate(0.000000,210.000000) scale(0.100000,-0.100000)"
fill="#000000" stroke="none">
<path d="M838 1690 c-149 -27 -249 -80 -364 -195 -141 -141 -197 -269 -197
-455 0 -187 58 -327 192 -460 68 -68 103 -94 171 -128 141 -69 165 -72 591
-72 339 0 378 2 390 17 11 13 14 85 14 377 -1 404 -4 427 -73 561 -52 102
-192 240 -292 289 -41 20 -100 43 -130 52 -67 18 -238 26 -302 14z m262 -352
c67 -30 140 -101 172 -165 19 -40 23 -64 23 -138 0 -78 -4 -97 -27 -140 -30
-59 -97 -124 -160 -156 -65 -34 -203 -39 -279 -10 -213 81 -283 353 -133 520
81 91 156 123 274 118 54 -3 91 -10 130 -29z" fill='#3E3F3C'/>
<path d="M869 1156 c-119 -81 -60 -261 86 -261 115 0 184 111 132 212 -38 72
-147 97 -218 49z"  fill='#D76443'/>
<path d="M4184 1606 l-34 -34 0 -558 c0 -536 1 -560 20 -591 42 -70 156 -66
193 7 16 32 17 76 15 593 l-3 559 -33 29 c-26 23 -42 29 -78 29 -39 0 -51 -5
-80 -34z"  fill='#3E3F3C'/>
<path d="M2985 1575 c-108 -39 -123 -168 -26 -232 112 -75 264 48 204 164 -34
65 -108 93 -178 68z"  fill='#3E3F3C'/>
<path d="M7025 1580 c-68 -15 -105 -61 -105 -133 0 -72 60 -127 140 -127 96 0
168 107 126 188 -28 54 -98 85 -161 72z"  fill='#3E3F3C'/>
<path d="M2080 1473 c-92 -30 -90 -17 -90 -550 0 -416 2 -461 18 -493 23 -47
77 -68 132 -51 67 20 74 41 80 231 l5 165 160 5 c153 5 163 7 225 36 90 42
134 84 172 162 28 56 33 76 33 141 0 99 -24 167 -81 230 -55 61 -143 106 -234
121 -65 10 -392 13 -420 3z m429 -214 c62 -34 89 -102 70 -174 -24 -91 -74
-115 -239 -115 l-120 0 0 155 0 155 126 0 c109 0 131 -3 163 -21z"  fill='#3E3F3C'/>
<path d="M5152 1469 c-20 -6 -40 -22 -52 -42 -19 -31 -20 -53 -20 -502 0 -442
1 -472 19 -501 51 -84 185 -59 205 37 3 18 6 96 6 175 l0 144 139 0 c110 0
152 4 203 20 116 36 210 124 238 225 19 67 9 199 -19 253 -53 102 -153 170
-281 191 -80 13 -393 13 -438 0z m438 -207 c52 -26 80 -74 80 -137 0 -63 -28
-111 -80 -137 -28 -14 -61 -18 -157 -18 l-123 0 0 155 0 155 123 0 c96 0 129
-4 157 -18z"  fill='#3E3F3C'/>
<path d="M8364 1411 c-44 -27 -48 -35 -54 -126 l-5 -80 -47 -5 c-79 -10 -116
-66 -83 -130 18 -34 49 -50 100 -50 l33 0 4 -222 c3 -210 5 -226 27 -271 29
-58 88 -111 150 -132 124 -42 285 -25 316 35 21 41 19 75 -9 107 -22 25 -32
28 -111 34 -83 5 -89 7 -116 37 l-29 32 0 190 0 190 94 0 c78 0 97 3 119 20
47 38 44 123 -6 149 -12 6 -62 12 -112 13 l-90 3 -6 76 c-7 87 -19 113 -59
134 -39 20 -79 19 -116 -4z"  fill='#3E3F3C'/>
<path d="M2958 1191 l-33 -29 -3 -349 c-2 -316 -1 -351 15 -383 39 -76 157
-76 196 0 16 32 17 67 15 383 l-3 349 -33 29 c-25 23 -42 29 -77 29 -35 0 -52
-6 -77 -29z"  fill='#3E3F3C'/>
<path d="M3538 1201 c-74 -24 -134 -60 -185 -109 -167 -163 -161 -447 14 -602
162 -144 421 -157 582 -30 53 42 91 96 91 129 0 91 -118 133 -181 65 -65 -70
-154 -96 -240 -70 -89 25 -145 93 -156 186 -26 222 221 332 395 176 53 -48
109 -51 153 -7 48 48 36 102 -38 173 -21 20 -69 51 -107 69 -61 29 -81 33
-170 36 -79 2 -113 -1 -158 -16z"  fill='#3E3F3C'/>
<path d="M4745 1201 c-16 -10 -96 -88 -177 -174 -170 -180 -175 -190 -114
-270 53 -70 291 -351 311 -367 27 -22 98 -19 125 5 30 27 42 62 35 97 -4 15
-65 99 -136 185 l-130 156 126 127 c115 117 125 130 125 164 0 80 -92 123
-165 77z"  fill='#3E3F3C'/>
<path d="M6240 1201 c-132 -43 -214 -111 -271 -226 -32 -66 -34 -75 -34 -175
0 -102 1 -109 38 -182 173 -352 722 -313 837 59 34 109 20 233 -35 328 -32 54
-119 136 -173 164 -102 52 -258 66 -362 32z m241 -204 c87 -46 134 -154 109
-255 -32 -137 -189 -206 -317 -141 -119 62 -151 242 -60 346 65 74 181 95 268
50z"  fill='#3E3F3C'/>
<path d="M7003 1210 c-12 -5 -30 -21 -40 -36 -16 -25 -18 -59 -21 -344 -2
-173 -1 -334 3 -357 12 -81 94 -125 164 -87 20 10 41 30 48 44 17 33 19 697 2
733 -22 48 -97 70 -156 47z"  fill='#3E3F3C'/>
<path d="M7393 1210 c-12 -5 -30 -21 -40 -36 -16 -25 -18 -59 -21 -319 -4
-347 0 -404 34 -445 45 -53 130 -49 174 8 19 23 20 41 20 251 0 215 1 229 23
271 29 59 74 85 145 84 60 -1 93 -20 130 -74 21 -32 22 -41 22 -259 0 -195 2
-231 18 -261 38 -76 156 -76 195 0 16 32 18 61 15 295 l-3 260 -28 60 c-16 33
-40 73 -55 88 -96 102 -305 117 -430 32 l-36 -24 -17 29 c-10 16 -27 34 -38
39 -23 13 -77 13 -108 1z"  fill='#3E3F3C'/>
</g>
</svg>
