<svg width="107" height="32" viewBox="0 0 107 32" xmlns="http://www.w3.org/2000/svg"><g><path fill="#3d7cca" d="M15.2701 18.6L1.38007 10.91C-0.449932 9.88998 -0.449932 7.25998 1.38007 6.23998L12.0501 0.329976C13.8201 -0.650024 16.0001 0.639977 16.0001 2.66998V18.17C16.0001 18.55 15.6001 18.79 15.2701 18.6Z"></path> <path fill='#00afac' d="M0.73 13.3999L14.62 21.0899C16.45 22.1099 16.45 24.7399 14.62 25.7599L3.96 31.6599C2.18 32.6499 0 31.3599 0 29.3299V13.8399C0 13.4599 0.4 13.2199 0.73 13.3999Z"></path> <path d="M26.6699 9.33002V22.67C26.6699 24.88 28.4599 26.67 30.6699 26.67H39.5099C39.7799 26.67 39.9999 26.45 39.9999 26.18V24.5C39.9999 24.23 39.7799 24.01 39.5099 24.01H30.6699C29.9299 24.01 29.3399 23.41 29.3399 22.68V16.68H36.8499C37.1199 16.68 37.3399 16.46 37.3399 16.19V14.51C37.3399 14.24 37.1199 14.02 36.8499 14.02H29.3399V9.33002C29.3399 8.59002 29.9399 8.00002 30.6699 8.00002H39.5099C39.7799 8.00002 39.9999 7.78002 39.9999 7.51002V5.82002C39.9999 5.55002 39.7799 5.33002 39.5099 5.33002H30.6699C28.4599 5.33002 26.6699 7.12002 26.6699 9.33002Z"></path> <path d="M49.34 26.94H47.67C43.43 26.94 40 23.51 40 19.27V18.07C40 13.83 43.43 10.4 47.67 10.4H47.94C48.88 10.4 49.81 10.57 50.67 10.9V5.82002C50.67 5.55002 50.89 5.33002 51.16 5.33002H52.84C53.11 5.33002 53.33 5.55002 53.33 5.82002V22.93C53.35 25.14 51.55 26.94 49.34 26.94ZM47.68 13.07C44.92 13.07 42.68 15.31 42.68 18.07V19.27C42.68 22.03 44.92 24.27 47.68 24.27H49.35C50.09 24.27 50.68 23.67 50.68 22.94V13.88C49.87 13.35 48.92 13.07 47.95 13.07H47.68Z"></path> <path d="M56.5099 26.67H58.1899C58.4599 26.67 58.6799 26.45 58.6799 26.18V10.49C58.6799 10.22 58.4599 10 58.1899 10H56.5099C56.2399 10 56.0199 10.22 56.0199 10.49V26.17C56.0099 26.45 56.2299 26.67 56.5099 26.67Z"></path> <path d="M57.3499 8.65997C58.4544 8.65997 59.3499 7.76454 59.3499 6.65997C59.3499 5.5554 58.4544 4.65997 57.3499 4.65997C56.2453 4.65997 55.3499 5.5554 55.3499 6.65997C55.3499 7.76454 56.2453 8.65997 57.3499 8.65997Z"></path> <path d="M66.6799 26.94C70.2599 26.94 72.0099 25.12 72.0099 22.19C72.0099 19.16 69.9799 18.15 67.6499 17.26L67.6199 17.25C65.2299 16.37 64.0099 15.92 64.0099 14.74C64.0099 13.75 65.2199 13.07 66.6799 13.07H70.1899C70.4599 13.07 70.6799 12.85 70.6799 12.58V10.9C70.6799 10.63 70.4599 10.41 70.1899 10.41H66.6799C63.2799 10.41 61.3499 12.13 61.3499 14.89C61.3499 17.46 62.9399 18.51 66.1799 19.65C68.4499 20.45 69.3599 21.08 69.3599 22.31C69.3599 23.51 68.4299 24.27 66.6899 24.27H61.8499C61.5799 24.27 61.3599 24.49 61.3599 24.76V26.44C61.3599 26.71 61.5799 26.93 61.8499 26.93H66.6799V26.94Z"></path> <path d="M81.4898 26.94H81.2198C76.9898 26.94 73.5498 23.5 73.5498 19.27V18.07C73.5498 13.84 76.9898 10.4 81.2198 10.4H81.4898C85.7198 10.4 89.1598 13.84 89.1598 18.07V19.27C89.1498 23.5 85.7098 26.94 81.4898 26.94ZM81.2198 13.07C78.4598 13.07 76.2198 15.31 76.2198 18.07V19.27C76.2198 22.03 78.4598 24.27 81.2198 24.27H81.4898C84.2498 24.27 86.4898 22.03 86.4898 19.27V18.07C86.4898 15.31 84.2498 13.07 81.4898 13.07H81.2198Z"></path> <path d="M104.02 24.27C102.55 24.27 101.35 23.08 101.35 21.6V13.33H103.52C103.79 13.33 104.01 13.11 104.01 12.84V11.16C104.01 10.89 103.79 10.67 103.52 10.67H101.35V8.49C101.35 8.22 101.13 8 100.86 8H99.1799C98.9099 8 98.6899 8.22 98.6899 8.49V10.66H94.6899C94.6899 8.6 96.2599 6.89 98.2699 6.68C98.5099 6.65 98.6899 6.44 98.6899 6.19V4.51C98.6899 4.23 98.4599 3.99 98.1799 4.02C94.7399 4.28 92.0299 7.16 92.0299 10.67H89.8599C89.5899 10.67 89.3699 10.89 89.3699 11.16V12.84C89.3699 13.11 89.5899 13.33 89.8599 13.33H92.0299V26.17C92.0299 26.44 92.2499 26.66 92.5199 26.66H94.1999C94.4699 26.66 94.6899 26.44 94.6899 26.17V13.33H98.6899V21.6C98.6899 24.55 101.08 26.93 104.02 26.93H106.19C106.46 26.93 106.68 26.71 106.68 26.44V24.76C106.68 24.49 106.46 24.27 106.19 24.27H104.02Z"></path></g></svg>