<?xml version="1.0" standalone="no"?>
<!DOCTYPE svg PUBLIC "-//W3C//DTD SVG 20010904//EN"
 "http://www.w3.org/TR/2001/REC-SVG-20010904/DTD/svg10.dtd">
<svg version="1.0" xmlns="http://www.w3.org/2000/svg"
 width="159.000000pt" height="111.000000pt" viewBox="0 0 159.000000 111.000000"
 preserveAspectRatio="xMidYMid meet">

<g transform="translate(0.000000,111.000000) scale(0.100000,-0.100000)"
fill="#000000" stroke="none">
<path d="M680 964 c-29 -54 -54 -100 -54 -101 -1 -1 -44 -9 -96 -18 -146 -24
-141 -15 -53 -111 l78 -85 -14 -104 c-8 -58 -13 -107 -10 -110 3 -3 51 16 106
41 l101 47 97 -47 c53 -25 100 -46 104 -46 5 0 1 49 -8 109 l-17 109 78 83
c50 55 73 86 65 90 -7 4 -57 14 -112 23 -55 10 -100 18 -101 19 -1 1 -20 39
-43 83 -68 133 -60 132 -121 18z m85 -114 l27 -70 69 0 c38 0 69 -3 69 -7 -1
-5 -23 -26 -50 -48 -28 -22 -50 -47 -50 -55 0 -8 7 -40 15 -70 8 -30 13 -55
11 -57 -1 -1 -27 13 -57 32 -30 19 -58 34 -64 34 -5 0 -34 -15 -64 -34 -30
-19 -56 -33 -58 -32 -2 2 4 26 12 53 23 76 20 87 -35 130 -27 21 -49 42 -50
47 0 4 31 7 69 7 l69 0 27 70 c15 39 28 70 30 70 2 0 15 -31 30 -70z" fill='#AB0D0A'/>
<path d="M1489 343 c-13 -17 -13 -17 6 -3 11 8 22 16 24 17 2 2 0 3 -6 3 -6 0
-17 -8 -24 -17z" fill='#221E1F'/>
<path d="M1530 356 c0 -2 9 -6 20 -9 11 -3 18 -1 14 4 -5 9 -34 13 -34 5z" fill='#221E1F'/>
<path d="M1507 333 c-4 -3 -7 -18 -7 -32 0 -20 3 -22 9 -12 7 11 13 12 23 3
11 -9 14 -6 14 11 0 29 -23 47 -39 30z m23 -13 c0 -5 -4 -10 -10 -10 -5 0 -10
5 -10 10 0 6 5 10 10 10 6 0 10 -4 10 -10z" fill='#221E1F'/>
<path d="M1571 310 c-2 -48 -44 -66 -77 -33 -13 13 -16 14 -12 3 2 -8 17 -19
32 -25 34 -12 70 20 63 56 -4 24 -4 24 -6 -1z" fill='#221E1F'/>
<path d="M20 200 l0 -120 58 0 c73 0 102 18 102 64 0 19 -7 39 -15 46 -14 12
-14 15 0 30 22 24 19 77 -4 90 -11 5 -47 10 -80 10 l-61 0 0 -120z m88 47 c2
-10 -3 -17 -12 -17 -10 0 -16 9 -16 21 0 24 23 21 28 -4z m1 -80 c8 -10 7 -17
-1 -25 -19 -19 -28 -14 -28 13 0 27 12 32 29 12z" fill='#221E1F'/>
<path d="M230 250 c-25 -25 -28 -114 -5 -146 28 -41 122 -36 145 6 6 10 10 41
10 69 0 67 -22 91 -85 91 -32 0 -51 -6 -65 -20z m85 -60 c7 -30 -10 -74 -25
-65 -15 9 -22 63 -10 85 14 26 27 19 35 -20z" fill='#221E1F'/>
<path d="M438 259 c-27 -15 -41 -81 -28 -129 9 -34 16 -41 49 -50 51 -14 101
-3 101 21 0 14 -7 19 -29 19 -16 0 -36 3 -45 6 -26 10 -18 24 14 24 34 0 70
31 70 60 0 48 -82 79 -132 49z m72 -49 c0 -12 -28 -25 -36 -17 -9 9 6 27 22
27 8 0 14 -5 14 -10z" fill='#221E1F'/>
<path d="M590 175 l0 -95 35 0 c33 0 35 2 35 35 0 24 5 35 15 35 10 0 15 -11
15 -35 0 -33 2 -35 35 -35 l35 0 0 95 0 95 -35 0 c-33 0 -35 -2 -35 -35 0 -24
-5 -35 -15 -35 -10 0 -15 11 -15 35 0 33 -2 35 -35 35 l-35 0 0 -95z" fill='#221E1F'/>
<path d="M777 264 c-4 -4 -7 -16 -7 -26 0 -13 7 -18 25 -18 24 0 25 -2 25 -70
l0 -70 30 0 30 0 0 70 c0 69 1 70 26 70 21 0 25 4 22 23 -3 20 -9 22 -73 25
-39 1 -74 0 -78 -4z" fill='#221E1F'/>
<path d="M968 259 c-37 -21 -44 -123 -11 -160 31 -36 122 -29 143 11 6 10 10
41 10 68 0 38 -5 53 -23 70 -25 24 -88 30 -119 11z m72 -84 c0 -45 -16 -68
-31 -44 -13 20 -11 73 3 87 18 18 28 4 28 -43z" fill='#221E1F'/>
<path d="M1140 140 l0 -130 36 0 36 0 -4 40 c-3 30 0 39 9 35 7 -3 19 -7 26
-10 8 -3 24 3 37 13 28 23 39 112 18 152 -15 28 -60 39 -84 19 -10 -8 -14 -8
-14 0 0 6 -13 11 -30 11 l-30 0 0 -130z m95 29 c0 -32 -4 -44 -15 -44 -10 0
-15 11 -15 40 -1 47 3 57 18 52 7 -2 12 -23 12 -48z" fill='#221E1F'/>
<path d="M1340 175 l0 -95 30 0 30 0 0 70 c0 68 1 70 25 70 20 0 25 5 25 25 0
24 -3 25 -55 25 l-55 0 0 -95z" fill='#221E1F'/>
</g>
</svg>
