<?xml version="1.0" standalone="no"?>
<svg version="1.0" xmlns="http://www.w3.org/2000/svg"
 width="756.000000pt" height="110.000000pt" viewBox="0 0 756.000000 110.000000"
 preserveAspectRatio="xMidYMid meet">
<g transform="translate(0.000000,110.000000) scale(0.100000,-0.100000)"
fill="#000000" stroke="none">
<path d="M7145 1090 c-12 -20 8 -81 32 -100 22 -17 41 -20 117 -20 56 1 97 5
107 13 24 18 39 52 39 86 0 30 -1 31 -50 31 -45 0 -52 -3 -60 -26 -8 -21 -15
-25 -42 -22 -25 2 -34 8 -36 26 -3 19 -9 22 -52 22 -27 0 -52 -4 -55 -10z" fill='#2B2A29'/>
<path d="M292 804 l-92 -175 0 -218 0 -218 -40 -16 -40 -15 0 -61 0 -61 -54 0
c-30 0 -58 -5 -61 -10 -4 -7 217 -10 654 -10 434 0 661 3 661 10 0 6 -27 10
-60 10 l-60 0 0 319 0 319 -84 36 c-47 20 -89 36 -94 36 -6 0 -63 -25 -127
-55 -65 -30 -119 -55 -121 -55 -8 0 -3 162 5 178 5 9 45 35 90 57 45 21 81 43
81 47 0 20 -67 31 -255 44 -110 7 -225 13 -255 14 l-55 0 -93 -176z m357 150
c85 -4 166 -10 180 -14 l26 -7 -35 -15 c-19 -9 -60 -27 -90 -41 l-56 -25 -112
52 c-103 47 -144 76 -89 63 12 -3 91 -9 176 -13z m-99 -59 l105 -53 -99 -47
c-55 -25 -102 -42 -106 -38 -4 4 -16 52 -27 106 l-21 98 22 -7 c11 -4 68 -30
126 -59z m-179 -38 c-6 -42 -14 -62 -29 -73 -17 -12 -22 -25 -22 -58 0 -42 -2
-45 -41 -60 -23 -9 -43 -15 -45 -14 -1 2 29 63 67 137 39 73 72 131 74 129 2
-2 0 -29 -4 -61z m359 -159 l0 -79 -95 -45 -95 -44 0 -69 c0 -116 -9 -159 -35
-165 -13 -3 -30 -9 -39 -12 -14 -5 -16 15 -16 193 l0 200 128 60 c90 43 131
58 140 51 8 -7 12 -38 12 -90z m290 -313 l0 -345 -110 0 -109 0 -3 116 -3 116
-84 31 c-73 26 -90 29 -123 20 l-38 -10 0 98 c0 67 4 100 13 106 18 12 441
211 450 212 4 1 7 -154 7 -344z m-670 50 l0 -194 -66 -21 c-36 -11 -68 -20
-70 -20 -2 0 -4 94 -4 209 l0 210 38 4 c20 2 52 4 70 5 l32 2 0 -195z m270
-199 c0 -40 -3 -101 -6 -135 l-7 -61 -234 0 -234 0 3 57 3 58 225 77 c124 42
231 77 238 77 8 1 12 -20 12 -73z" fill='#393185'/>
<path d="M2193 915 c-18 -8 -42 -29 -53 -47 -18 -30 -20 -50 -20 -236 0 -297
0 -297 265 -297 263 0 265 2 265 297 0 291 -6 298 -265 298 -115 -1 -169 -5
-192 -15z m299 -113 c20 -20 18 -329 -2 -342 -8 -5 -59 -10 -112 -10 -86 0
-98 2 -108 19 -5 11 -10 84 -10 165 0 188 1 190 130 184 56 -2 94 -8 102 -16z" fill='#2B2A29'/>
<path d="M6499 914 c-68 -28 -74 -52 -74 -286 0 -194 1 -208 21 -235 39 -52
63 -58 249 -58 186 0 205 5 242 62 16 24 18 53 18 233 0 236 -5 256 -75 284
-55 22 -328 22 -381 0z m301 -114 c15 -23 13 -323 -2 -338 -16 -16 -200 -16
-216 0 -13 13 -17 315 -4 334 13 20 35 23 125 21 65 -1 90 -6 97 -17z" fill='#2B2A29'/>
<path d="M1540 630 l0 -290 75 0 75 0 0 85 0 85 134 0 c122 0 136 2 167 23 52
35 64 68 64 182 0 114 -12 147 -64 182 -33 22 -42 23 -242 23 l-209 0 0 -290z
m352 163 c14 -12 18 -31 18 -76 0 -89 -11 -97 -127 -97 l-93 0 0 95 0 95 92 0
c71 0 95 -4 110 -17z" fill='#2B2A29'/>
<path d="M2793 905 c-62 -27 -68 -47 -71 -265 -4 -293 2 -300 265 -300 89 0
168 3 177 6 12 5 16 20 16 61 l0 54 -140 -7 c-106 -5 -143 -4 -155 6 -12 10
-15 41 -15 171 0 146 1 159 19 169 11 5 81 10 155 10 l136 0 0 55 0 55 -177 0
c-129 -1 -187 -5 -210 -15z" fill='#2B2A29'/>
<path d="M3210 865 l0 -55 85 0 85 0 0 -235 0 -235 75 0 75 0 0 235 0 235 90
0 90 0 0 55 0 55 -250 0 -250 0 0 -55z" fill='#2B2A29'/>
<path d="M3770 630 l0 -290 225 0 225 0 0 60 0 60 -155 0 -155 0 0 60 0 60
125 0 125 0 0 55 0 54 -122 3 -123 3 -3 58 -3 57 156 0 155 0 0 55 0 55 -225
0 -225 0 0 -290z" fill='#2B2A29'/>
<path d="M4264 882 c13 -21 54 -84 90 -141 37 -57 65 -109 63 -115 -3 -6 -43
-71 -91 -144 -47 -72 -86 -134 -86 -137 0 -3 35 -5 79 -5 l78 0 57 90 c32 50
59 90 61 90 2 0 29 -40 60 -90 l57 -90 79 0 c43 0 79 2 79 5 0 2 -40 66 -90
141 -49 74 -90 140 -90 145 0 6 40 73 90 150 l89 139 -82 0 -83 0 -37 -62
c-20 -35 -45 -76 -55 -91 l-19 -28 -54 90 -54 91 -83 0 -82 0 24 -38z" fill='#2B2A29'/>
<path d="M4869 897 c-55 -37 -59 -52 -59 -270 0 -286 1 -287 257 -287 208 0
203 -1 203 67 l0 54 -146 -7 c-136 -7 -148 -6 -160 11 -10 14 -14 58 -14 165
0 190 -10 180 178 180 l142 0 0 55 0 55 -184 0 c-174 0 -185 -1 -217 -23z" fill='#2B2A29'/>
<path d="M5290 865 l0 -55 90 0 90 0 0 -235 0 -235 75 0 75 0 0 235 0 235 85
0 85 0 0 55 0 55 -250 0 -250 0 0 -55z" fill='#2B2A29'/>
<path d="M5850 630 l0 -290 75 0 75 0 0 85 0 85 128 0 c202 0 232 27 232 205
0 118 -16 160 -70 187 -30 15 -65 18 -237 18 l-203 0 0 -290z m341 170 c16 -9
19 -22 19 -85 0 -91 -5 -95 -124 -95 l-86 0 0 95 0 95 86 0 c47 0 94 -5 105
-10z" fill='#2B2A29'/>
<path d="M7040 630 l0 -291 81 3 81 3 97 174 96 173 3 -176 2 -176 75 0 75 0
0 290 0 291 -81 -3 -81 -3 -97 -173 -96 -172 -3 175 -2 175 -75 0 -75 0 0
-290z" fill='#2B2A29'/>
<path fill='#E31E24' d="M1530 100 l0 -90 3010 0 3010 0 0 90 0 90 -3010 0 -3010 0 0 -90z"/>
</g>
</svg>
