<svg xmlns="http://www.w3.org/2000/svg" viewBox="0 0 139.07 29.85"><path d="M10.15 14.07v3H3.36v12.79H.07V.31H11.8v3H3.36v10.76h6.79zM23.61.31v29.54h-3.29V.31h3.29zM37.2 29.85V3.31h-5.44v-3h14.18v3H40.5v26.54h-3.3zm27.81-.04h-3.16L56.95 6.3v23.55h-2.87V.31h4.6l4.85 23.59L68.21.31h4.6v29.54h-3.12V6.09l-4.68 23.72zM81.85 7.44c0-4.52 2.24-7.43 6.75-7.43 4.56 0 6.79 2.91 6.79 7.43v15.28c0 4.47-2.24 7.43-6.79 7.43-4.52 0-6.75-2.95-6.75-7.43V7.44zm3.24 15.45c0 2.7 1.14 4.26 3.5 4.26 2.41 0 3.5-1.56 3.5-4.26V7.27c0-2.66-1.1-4.26-3.5-4.26-2.36 0-3.5 1.6-3.5 4.26v15.62zM117.21 7.4v.8h-3.12v-.97c0-2.66-1.01-4.22-3.38-4.22-2.36 0-3.38 1.56-3.38 4.18 0 6.63 9.92 7.26 9.92 15.57 0 4.47-2.15 7.38-6.67 7.38s-6.63-2.91-6.63-7.38v-1.69h3.08v1.86c0 2.66 1.1 4.22 3.46 4.22s3.46-1.56 3.46-4.22c0-6.58-9.87-7.22-9.87-15.53 0-4.56 2.11-7.38 6.54-7.38 4.48-.01 6.59 2.91 6.59 7.38zm13.12 22.45V3.31h-5.44v-3h14.18v3h-5.44v26.54h-3.3z" fill="#1a1b1b"/></svg>