<?xml version="1.0" encoding="UTF-8"?> <svg xmlns="http://www.w3.org/2000/svg" id="Layer_1" data-name="Layer 1" viewBox="0 0 247.12 37.34"> <defs> <style>.cls-1{fill:#000000;}</style> </defs> <title>logo-servionika-white</title> <path class="cls-1" d="M65.33,18.67A4.65,4.65,0,0,0,57,15.87H51.1a18.64,18.64,0,0,0-36.87,0H8.38a4.66,4.66,0,1,0,0,5.6h5.85A18.65,18.65,0,0,0,50.55,24l-6.38-1.5a12.13,12.13,0,1,1,.29-6.61h-7a5.6,5.6,0,1,0,0,5.6H57a4.66,4.66,0,0,0,8.38-2.8"></path> <path class="cls-1" d="M89.45,25.25v-2a.35.35,0,0,0-.34-.35H84.34a4.25,4.25,0,0,1-4.24-4.24,4.23,4.23,0,0,1,4.24-4.25h4.77a.34.34,0,0,0,.34-.34v-2a.35.35,0,0,0-.34-.35H84.34a6.93,6.93,0,1,0,0,13.85h4.77a.35.35,0,0,0,.34-.34m16.44-10.89v-2a.35.35,0,0,0-.34-.35H95.3a.34.34,0,0,0-.34.35v2a.34.34,0,0,0,.34.33h10.25a.34.34,0,0,0,.34-.33m0,5.29v-2a.35.35,0,0,0-.34-.34H95.3a.34.34,0,0,0-.34.34v2a.34.34,0,0,0,.34.34h10.25a.34.34,0,0,0,.34-.34m0,5.29V23a.35.35,0,0,0-.34-.35H95.3A.34.34,0,0,0,95,23v2a.34.34,0,0,0,.34.34h10.25a.35.35,0,0,0,.34-.34m14.61-8.09A2.15,2.15,0,0,1,118.35,19h-4V14.69h4a2.17,2.17,0,0,1,2.15,2.16m1.24,3.39a4.8,4.8,0,0,0-3.39-8.19h-4.23v0l-.07,0h-2a.35.35,0,0,0-.34.35V25a.35.35,0,0,0,.34.34h2a.34.34,0,0,0,.34-.34v-3.3h4a4.79,4.79,0,0,0,3.39-1.41m15.11.94a1.46,1.46,0,0,1-.42,1,1.48,1.48,0,0,1-1,.42h-4.81V19.74h4.81a1.45,1.45,0,0,1,1.45,1.44m-.79-5.29a1.19,1.19,0,0,1-.35.85,1.22,1.22,0,0,1-.85.35h-4.27v-2.4h4.27a1.21,1.21,0,0,1,1.2,1.2m2.23,2.4-.26-.23a3.84,3.84,0,0,0-3.17-6h-6.57a.34.34,0,0,0-.34.35V25a.34.34,0,0,0,.34.34h7.11a4.09,4.09,0,0,0,2.89-7M156.75,25V12.4a.33.33,0,0,0-.34-.35h-2a.36.36,0,0,0-.28.16l-6.85,8.62V12.4a.34.34,0,0,0-.35-.35h-2a.35.35,0,0,0-.34.35V25a.35.35,0,0,0,.34.34h1.88a.46.46,0,0,0,.41-.21l6.81-8.54V25a.35.35,0,0,0,.34.34h2a.34.34,0,0,0,.34-.34m16.33-6.28a4.24,4.24,0,1,1-7.23-3,4.24,4.24,0,0,1,6,0,4.27,4.27,0,0,1,1.24,3m.66,4.9a6.93,6.93,0,0,0-4.9-11.82,6.93,6.93,0,0,0-6.92,6.92,6.92,6.92,0,0,0,11.82,4.9M192.59,25V12.4a.35.35,0,0,0-.34-.35h-2a.34.34,0,0,0-.35.35v5h-6.62v-5a.35.35,0,0,0-.34-.35h-2a.34.34,0,0,0-.34.35V25a.34.34,0,0,0,.34.34h2a.35.35,0,0,0,.34-.34V20h6.62V25a.35.35,0,0,0,.35.34h2a.35.35,0,0,0,.34-.34m18.09,0V12.4a.35.35,0,0,0-.35-.35h-2a.37.37,0,0,0-.29.16l-6.84,8.62V12.4a.34.34,0,0,0-.34-.35h-2a.35.35,0,0,0-.34.35V25a.35.35,0,0,0,.34.34h1.88a.46.46,0,0,0,.41-.21L208,16.54V25a.35.35,0,0,0,.34.34h2a.35.35,0,0,0,.35-.34m18.07.05a1.11,1.11,0,0,0-.11-.16l-6-7.31L228,12.41c.09-.09.15-.36-.18-.36h-2.85a.79.79,0,0,0-.53.22l-5.12,4.88V12.4a.34.34,0,0,0-.33-.35h-2a.34.34,0,0,0-.33.35V25a.34.34,0,0,0,.33.34h2a.34.34,0,0,0,.33-.34V20.78l1.52-1.47L225.37,25a.69.69,0,0,0,.52.26h2.59c.33,0,.35-.13.27-.29m13.37-4.77h-4.66l2.33-5.33Zm5,4.76L241.6,12.33c-.13-.28-.24-.28-.48-.28h-2.66c-.24,0-.36,0-.47.28L232.5,25c-.1.25,0,.3.23.3H235a.36.36,0,0,0,.39-.24l1-2.35h6.82l1,2.35a.37.37,0,0,0,.39.24h2.23c.26,0,.33-.05.23-.3"></path> </svg> 