<?xml version="1.0" encoding="utf-8"?>
<!-- Generator: Adobe Illustrator 21.0.0, SVG Export Plug-In . SVG Version: 6.00 Build 0)  -->
<svg version="1.1" id="Layer_1" xmlns="http://www.w3.org/2000/svg" xmlns:xlink="http://www.w3.org/1999/xlink" x="0px" y="0px"
	 viewBox="0 0 286 150" style="enable-background:new 0 0 286 150;" xml:space="preserve">
<g>
	<path class="st0" d="M43.8,78c-3.4,0-6.2,2.8-6.2,6.2c0,3.4,2.8,6.2,6.2,6.2c1.2,0,2.3-0.3,3.2-0.9c-1.2-1.4-1.9-3.3-1.9-5.2
		s0.7-3.8,1.9-5.2C46.1,78.4,45,78,43.8,78z" fill='#a30b33'/>
	<path class="st0" d="M49.2,75.4c0,0.2,0,0.3,0,0.5c3.1-0.3,5.5-2.9,5.5-6.1c0-3.4-2.8-6.2-6.2-6.2c-2.5,0-4.7,1.6-5.7,3.8
		C46.5,68.3,49.2,71.5,49.2,75.4z" fill='#a30b33'/>
	<path class="st0" d="M56.9,69.3c0,0.2,0,0.3,0,0.5c0,3.9-2.7,7.1-6.3,8c0.9,2.2,3.1,3.8,5.7,3.8c3.4,0,6.2-2.8,6.2-6.2
		C62.4,72.2,60,69.6,56.9,69.3z" fill='#a30b33'/>
	<path class="st0" d="M40.9,69.3c-3.4,0-6.2,2.8-6.2,6.2c0,1.8,0.7,3.3,1.9,4.5c1.5-2.4,4.1-4,7.1-4c1.1,0,2.2,0.2,3.2,0.6
		c0.1-0.4,0.1-0.7,0.1-1.1C47.1,72,44.3,69.3,40.9,69.3z" fill='#a30b33'/>
	<path class="st0" d="M56.3,83.7c-3,0-5.6-1.6-7.1-4c-1.2,1.1-1.9,2.7-1.9,4.5c0,3.4,2.8,6.2,6.1,6.2c3.4,0,6.2-2.8,6.2-6.2
		c0-0.4,0-0.8-0.1-1.1C58.5,83.5,57.4,83.7,56.3,83.7z" fill='#a30b33'/>
	<path class="st0" d="M73.2,69.3c-1.2,0-3.2,0.2-4.9,0.2c-0.2,0-0.7,0-0.8,0c-0.3,0.1-0.5,0.2-0.5,0.4c0,0.2,0.3,0.3,0.6,0.4
		c1.4,0.2,1.5,0.6,1.6,1.5c0.1,0.7,0.1,6.5,0.1,7.3c0,1.3-0.1,3-0.2,4c-0.1,1.2-0.4,1.6-1.6,1.9c-0.3,0.1-0.6,0.3-0.6,0.5
		c0,0.3,0.4,0.4,0.9,0.4c0.8,0,2-0.1,2.8-0.1c1.1,0,2.6,0.2,3.2,0.2c0.4,0,0.8-0.2,0.8-0.4c0-0.2-0.2-0.4-0.7-0.5
		c-1.5-0.4-1.6-0.8-1.6-2.4c0-0.6-0.1-2.3-0.1-4.6c0-2.9,0-6.1,0.1-6.6c0-0.6,0.2-0.9,0.2-0.9c0.1-0.1,0.5-0.2,0.7-0.2
		c2.1,0,3.5,2.1,3.5,4.2c0,2.7-1.6,3.9-2.7,3.9h-0.4c-0.2,0-0.4,0.2-0.4,0.3c0,0.2,0.2,0.4,0.5,0.5c0.3,0.1,1,0.2,1.3,0.2
		c1,0,2.4-0.6,3.1-1.2c0.7-0.6,1.7-1.8,1.7-3.9c0-0.9-0.3-2.3-1.5-3.5C77.4,69.7,75.7,69.3,73.2,69.3z"/>
	<path class="st0" d="M90.4,69.1c-2.1,0-4.3,0.9-5.4,1.8c-1.9,1.5-3.3,3.5-3.3,6.6c0,2.4,0.8,4.4,2.2,5.9c1.6,1.7,4,2.7,6.6,2.7
		c2,0,4.1-0.7,5.6-1.8c1.8-1.4,3.2-3.6,3.2-7C99.4,73.2,96.1,69.1,90.4,69.1z M93.9,84.1c-0.3,0.3-1.2,1-2.6,1
		c-3.7,0-6.1-4.3-6.1-8.2c0-3,0.9-4.9,1.8-5.7c0.6-0.6,1.7-1.3,2.9-1.3c1.1,0,2.5,0.6,3.4,1.4c1.9,1.7,2.7,4.8,2.7,6.8
		C95.9,80.9,95,83.1,93.9,84.1z"/>
	<path class="st0" d="M117.2,81.4c-0.2,0-0.4,0.2-0.7,0.8c-0.6,1-1.3,1.8-2.2,2.3c-0.9,0.5-2.1,0.6-2.5,0.6c-2,0-4.3-1-5.7-3.8
		c-0.6-1.1-0.9-2.6-0.9-4.3c0-3.9,1.9-7.1,6-7.1c1.4,0,2.7,0.6,3.8,1.5c0.4,0.3,0.8,1,1.1,1.8c0.1,0.4,0.4,0.7,0.5,0.7
		c0.3,0,0.5-0.4,0.4-1c0-0.7-0.1-1.6-0.1-2.4c0-0.4-0.2-0.7-0.4-0.7c-0.6-0.1-1.2-0.2-1.8-0.4c-0.9-0.2-2.1-0.4-3.3-0.4
		c-2.1,0-4.7,0.5-6.9,2.3c-1.1,0.9-2.8,3-2.8,6.1c0,2.8,1.2,4.6,2.1,5.7c1,1.2,3.7,2.9,7.5,2.9c2.4,0,4.1-0.6,4.5-0.7
		c0.4-0.2,0.8-0.6,0.9-0.8c0.2-0.5,0.6-1.6,0.8-2.2C117.5,82.1,117.5,81.4,117.2,81.4z"/>
	<path class="st0" d="M135.5,84.9c-1.4-0.3-2-0.5-3.7-2.7c-1.1-1.5-3.4-5.1-4-6.2c0-0.1,0-0.2,0-0.2c0.4-0.5,0.9-1.4,1.7-2.6
		c0.7-1.1,1.4-2.2,2.9-2.2c0.3,0,0.6,0.1,0.9,0.1c0.3,0.1,0.5,0,0.7-0.2c0.2-0.2,0.3-0.6,0.3-0.8c0-0.7-0.5-1.1-1.3-1.1
		c-1.4,0-2.6,1.1-3.6,2.8c-0.6,1-1.2,2-1.9,3.1c-0.9,1.5-1.8,1.9-3.1,2c-0.1,0-0.2-0.2-0.2-0.3c0-1.2,0-4.1,0-5
		c0.1-1.1,0.3-1.3,1.3-1.6c0.3-0.1,0.7-0.2,0.7-0.4c0-0.2-0.3-0.4-0.8-0.4c-0.6,0-2.1,0.1-2.9,0.1c-0.8,0-2-0.1-2.6-0.1
		c-0.4,0-0.8,0.1-0.8,0.4c0,0.2,0.2,0.4,0.8,0.5c0.9,0.3,1.1,0.6,1.1,1.8c0,0.9,0.1,1.9,0.1,4.9c0,2.7,0,4.5,0,5.8
		c-0.1,1.6-0.4,1.9-1.6,2.2c-0.6,0.1-0.8,0.3-0.8,0.5c0,0.2,0.3,0.4,0.7,0.4c0.8,0,2.1-0.1,2.9-0.1c0.8,0,2.6,0.1,3.1,0.1
		c0.4,0,0.8-0.2,0.8-0.4c0-0.2-0.3-0.4-0.7-0.5c-1.1-0.3-1.3-0.7-1.3-1.2c0-0.9-0.1-3.6-0.1-5.7c0-0.1,0.1-0.3,0.2-0.3
		c0.8,0,1.1,0.5,2,1.8c1.2,1.9,2.2,3.5,3.2,4.7c1,1.3,2.1,1.7,4.3,1.7c0.6,0,1.2,0,1.5-0.1c0.4-0.1,0.5-0.3,0.5-0.5
		C135.9,85.1,135.7,85,135.5,84.9z"/>
	<path class="st0" d="M144.3,69.1c-2.1,0-4.3,0.9-5.4,1.8c-1.9,1.5-3.3,3.5-3.3,6.6c0,2.4,0.8,4.4,2.2,5.9c1.6,1.7,4,2.7,6.6,2.7
		c2,0,4.1-0.7,5.6-1.8c1.8-1.4,3.2-3.6,3.2-7C153.3,73.2,150,69.1,144.3,69.1z M147.8,84.1c-0.3,0.3-1.2,1-2.6,1
		c-3.7,0-6.1-4.3-6.1-8.2c0-3,0.9-4.9,1.8-5.7c0.6-0.6,1.7-1.3,2.9-1.3c1.1,0,2.5,0.6,3.4,1.4c1.9,1.7,2.7,4.8,2.7,6.8
		C149.8,80.9,148.9,83.1,147.8,84.1z"/>
	<path class="st0" d="M172.6,70.3c0.6-0.2,0.8-0.3,0.8-0.6c0-0.2-0.3-0.3-0.8-0.3c-0.3,0-1.9,0.1-2.7,0.1c-0.7,0-2.6-0.1-2.9-0.1
		c-0.6,0-0.8,0.2-0.8,0.3c0,0.3,0.4,0.4,0.7,0.5c1,0.3,1.2,0.5,1.3,1.5c0.1,1,0.1,4,0.1,4.3c0,0.4-0.1,0.6-0.2,0.6
		c-2.7,0-6.1,0.1-7.8,0.1c-0.2,0-0.3-0.1-0.3-0.3c-0.1-0.5,0-3.5,0.1-4.4c0-1,0.1-1.5,1.2-1.8c0.5-0.1,0.9-0.3,0.9-0.6
		c0-0.2-0.3-0.3-0.8-0.3c-0.6,0-1.8,0.1-2.8,0.1c-0.7,0-2.1-0.1-2.8-0.1c-0.5,0-0.8,0.1-0.8,0.4c0,0.2,0.3,0.4,0.9,0.6
		c0.8,0.3,1.1,0.5,1.1,1.4c0.1,1,0,2.4,0,3.2c0,3.5-0.1,7.3-0.2,8.3c-0.1,1.1-0.4,1.4-1.5,1.7c-0.4,0.1-0.7,0.3-0.7,0.6
		c0,0.2,0.2,0.3,0.9,0.3c0.9,0,2.2-0.1,2.8-0.1c0.9,0,3,0.1,3.2,0.1c0.3,0,0.8-0.1,0.8-0.3c0-0.3-0.4-0.5-0.9-0.6
		c-1-0.3-1.2-0.7-1.2-1.9c0-0.8-0.1-3.6,0-4.5c0-0.2,0.2-0.4,0.3-0.4c0.5-0.1,5.7,0,7.8,0c0.1,0,0.2,0.1,0.2,0.3
		c0.1,0.7,0,3.1-0.1,4.1c-0.1,1.9-0.2,2.1-1.4,2.4c-0.4,0.1-0.7,0.3-0.7,0.5c0,0.2,0.3,0.4,0.9,0.4c0.5,0,2.6-0.1,3.1-0.1
		c0.8,0,2.1,0.1,2.6,0.1c0.5,0,0.8-0.1,0.8-0.4c0-0.2-0.3-0.4-0.7-0.5c-1-0.3-1.3-0.4-1.3-1.4c0-0.8-0.1-2.2-0.1-4.7
		c0-3.6,0.1-5.9,0.2-7.1C171.5,70.9,171.6,70.5,172.6,70.3z"/>
	<path class="st0" d="M187.7,69.6c0-0.2-0.2-0.3-0.3-0.3c-0.3,0.1-0.9,0.2-4.3,0.2h-3.3c-1,0-2-0.1-3.1-0.1c-0.4,0-0.7,0.2-0.7,0.3
		c0,0.3,0.2,0.4,0.8,0.6c1,0.2,1.2,0.5,1.2,1.4c0.1,0.7,0.1,2.2,0.1,4.6c0,5-0.2,6.5-0.3,7.3c0,0.6-0.2,1-1.3,1.3
		c-0.5,0.1-0.8,0.3-0.8,0.6c0,0.1,0.3,0.4,0.7,0.4c0.5,0,2.1-0.2,3.1-0.2c1,0,2.5,0.1,3.2,0.1c0.5,0,0.8-0.2,0.8-0.4
		c0-0.2-0.3-0.4-0.7-0.5c-1.2-0.3-1.6-0.5-1.6-1.6c0-1.8,0-5.2,0-7c0-1.7,0-4,0.1-5.3c0-0.3,0.1-0.4,0.6-0.4c0.5,0,2.5-0.1,3.2,0.1
		c0.9,0.1,1.4,1.3,1.7,2.4c0.2,0.6,0.4,0.7,0.6,0.7c0.2,0,0.4-0.5,0.4-0.8C187.7,72,187.7,70.3,187.7,69.6z"/>
	<path class="st0" d="M196.2,69.3c-1.2,0-3.2,0.2-4.9,0.2c-0.2,0-0.7,0-0.8,0c-0.3,0.1-0.5,0.2-0.5,0.4c0,0.2,0.3,0.3,0.6,0.4
		c1.4,0.2,1.5,0.6,1.6,1.5c0,0.7,0,6.5,0,7.3c0,1.3-0.1,3-0.2,4c-0.1,1.2-0.4,1.6-1.6,1.9c-0.3,0.1-0.6,0.3-0.6,0.5
		c0,0.3,0.4,0.4,0.9,0.4c0.8,0,2-0.1,2.8-0.1c1.1,0,2.6,0.2,3.2,0.2c0.4,0,0.8-0.2,0.8-0.4c0-0.2-0.2-0.4-0.7-0.5
		c-1.5-0.4-1.6-0.8-1.6-2.4c0-0.6-0.1-2.3-0.1-4.6c0-2.9,0-6.1,0.1-6.6c0-0.6,0.2-0.9,0.2-0.9c0.1-0.1,0.5-0.2,0.7-0.2
		c2.1,0,3.5,2.1,3.5,4.2c0,2.7-1.6,3.9-2.7,3.9h-0.4c-0.2,0-0.4,0.2-0.4,0.3c0,0.2,0.2,0.4,0.5,0.5c0.3,0.1,1,0.2,1.3,0.2
		c1,0,2.4-0.6,3.1-1.2c0.7-0.6,1.7-1.8,1.7-3.9c0-0.9-0.3-2.3-1.5-3.5C200.3,69.7,198.6,69.3,196.2,69.3z"/>
	<path class="st0" d="M217.7,81.8c-0.2,0-0.4,0.2-0.8,0.9c-0.6,1-1.3,1.6-2,1.9c-0.6,0.2-1.6,0.2-2.4,0.2c-0.9,0-1.7-0.1-2.1-0.2
		c-0.3-0.1-0.5-0.4-0.6-0.6c-0.1-0.5-0.1-1.5-0.1-2.1c0-0.8-0.1-2.8,0.1-3.6c0-0.1,0.2-0.3,0.3-0.3c0.8,0,1.7,0,2.6,0.1
		c1,0.1,1.3,0.3,1.7,1.4c0.1,0.3,0.3,0.6,0.5,0.6c0.2,0,0.4-0.3,0.3-0.8c0-0.6-0.1-1-0.1-1.7c0-0.6,0.1-1,0.1-1.8
		c0-0.3,0-0.7-0.3-0.7c-0.2,0-0.4,0.3-0.6,0.7c-0.5,1.1-0.4,1.2-2.3,1.2h-2c-0.2,0-0.3-0.2-0.3-0.3c0-1.4,0.1-5,0.1-5.6
		c0-0.6,0.2-0.7,0.3-0.7c2,0,3.1,0.1,3.6,0.2c0.6,0.1,1.3,0.5,1.6,1.9c0.1,0.3,0.3,0.6,0.5,0.6c0.2,0,0.4-0.4,0.4-0.7
		c0-0.5,0-2.3,0-2.7c0-0.2-0.2-0.4-0.3-0.3c-0.4,0.1-1.4,0.2-2.2,0.2H210c-1.3,0-3.4-0.1-4.6-0.1c-0.4,0-0.8,0.2-0.8,0.4
		c0,0.3,0.3,0.4,0.8,0.5c1.1,0.2,1.3,0.7,1.4,1.6c0,0.7,0,1.9,0,4.9c0,3.2-0.1,5.1-0.2,6.2c-0.1,1.4-0.4,1.6-1.7,1.9
		c-0.4,0.1-0.8,0.3-0.8,0.5c0,0.3,0.4,0.3,0.9,0.3c0.9,0,1.2-0.1,2.9-0.1c1.9,0,8.2,0.1,8.5,0.1c0.1,0,0.5-0.2,0.6-0.3
		c0.2-0.4,1-2.8,1-3C218,82.3,218,81.8,217.7,81.8z"/>
	<path class="st0" d="M234.7,81.4c-0.2,0-0.4,0.2-0.7,0.8c-0.6,1-1.3,1.8-2.2,2.3c-0.9,0.5-2.1,0.6-2.5,0.6c-2,0-4.3-1-5.7-3.8
		c-0.6-1.1-0.9-2.6-0.9-4.3c0-3.9,1.9-7.1,6-7.1c1.4,0,2.7,0.6,3.8,1.5c0.4,0.3,0.8,1,1.1,1.8c0.1,0.4,0.4,0.7,0.5,0.7
		c0.3,0,0.5-0.4,0.4-1c-0.1-0.7-0.1-1.6-0.1-2.4c0-0.4-0.2-0.7-0.4-0.7c-0.6-0.1-1.2-0.2-1.8-0.4c-0.9-0.2-2.1-0.4-3.3-0.4
		c-2.1,0-4.7,0.5-6.9,2.3c-1.1,0.9-2.8,3-2.8,6.1c0,2.8,1.2,4.6,2.1,5.7c1,1.2,3.7,2.9,7.5,2.9c2.4,0,4.1-0.6,4.5-0.7
		c0.4-0.2,0.8-0.6,0.9-0.8c0.2-0.5,0.6-1.6,0.8-2.2C235,82.1,235,81.4,234.7,81.4z"/>
	<path class="st0" d="M252.2,81.4c-0.2,0-0.4,0.2-0.7,0.8c-0.6,1-1.3,1.8-2.2,2.3c-0.9,0.5-2.1,0.6-2.5,0.6c-2,0-4.3-1-5.7-3.8
		c-0.6-1.1-0.9-2.6-0.9-4.3c0-3.9,1.9-7.1,6-7.1c1.4,0,2.7,0.6,3.8,1.5c0.4,0.3,0.8,1,1.1,1.8c0.1,0.4,0.4,0.7,0.5,0.7
		c0.3,0,0.5-0.4,0.4-1c0-0.7-0.1-1.6-0.1-2.4c0-0.4-0.2-0.7-0.4-0.7c-0.6-0.1-1.2-0.2-1.8-0.4c-0.9-0.2-2.1-0.4-3.3-0.4
		c-2.1,0-4.7,0.5-6.9,2.3c-1.1,0.9-2.8,3-2.8,6.1c0,2.8,1.2,4.6,2.1,5.7c1,1.2,3.7,2.9,7.5,2.9c2.4,0,4.1-0.6,4.5-0.7
		c0.4-0.2,0.8-0.6,0.9-0.8c0.2-0.5,0.6-1.6,0.8-2.2C252.4,82.1,252.4,81.4,252.2,81.4z"/>
</g>
</svg>
