<svg width="140" height="32" viewBox="0 0 140 32" fill="none" xmlns="http://www.w3.org/2000/svg">
<rect width="32" height="32" rx="16" fill="#004AFA"/>
<path d="M19.3962 14.041L19.0093 10H12.834L12.5786 14.041H19.3962Z" fill="white"/>
<path d="M12.1884 10H8.73449L7.00004 13.5115L11.9557 14.041L12.1884 10Z" fill="white"/>
<path d="M7.00004 14.1821L15.6937 26L11.9557 14.6987L7.00004 14.1821Z" fill="white"/>
<path d="M16.253 26L24.8929 14.1966L19.9921 14.6989L16.253 26Z" fill="white"/>
<path d="M25 13.5224L23.1691 10H19.6299L20.0173 14.041L25 13.5224Z" fill="white"/>
<path d="M15.9807 25.3408L12.5786 14.7132H19.3573L15.9807 25.3408Z" fill="white"/>
<path d="M48.2219 3.09091V14H45.9421V4.96591H41.5316V14H39.2518V3.09091H48.2219ZM60.8927 8.54545C60.8927 9.73509 60.6672 10.7472 60.2162 11.5817C59.7688 12.4162 59.158 13.0536 58.3839 13.494C57.6133 13.9308 56.7468 14.1491 55.7844 14.1491C54.815 14.1491 53.9449 13.929 53.1743 13.4886C52.4037 13.0483 51.7947 12.4109 51.3473 11.5763C50.8998 10.7418 50.6761 9.73153 50.6761 8.54545C50.6761 7.35582 50.8998 6.34375 51.3473 5.50923C51.7947 4.67472 52.4037 4.03906 53.1743 3.60227C53.9449 3.16193 54.815 2.94176 55.7844 2.94176C56.7468 2.94176 57.6133 3.16193 58.3839 3.60227C59.158 4.03906 59.7688 4.67472 60.2162 5.50923C60.6672 6.34375 60.8927 7.35582 60.8927 8.54545ZM58.5543 8.54545C58.5543 7.77486 58.4389 7.125 58.2081 6.59588C57.9808 6.06676 57.6594 5.66548 57.2439 5.39205C56.8285 5.11861 56.342 4.98189 55.7844 4.98189C55.2269 4.98189 54.7404 5.11861 54.3249 5.39205C53.9094 5.66548 53.5863 6.06676 53.3555 6.59588C53.1282 7.125 53.0145 7.77486 53.0145 8.54545C53.0145 9.31605 53.1282 9.96591 53.3555 10.495C53.5863 11.0241 53.9094 11.4254 54.3249 11.6989C54.7404 11.9723 55.2269 12.109 55.7844 12.109C56.342 12.109 56.8285 11.9723 57.2439 11.6989C57.6594 11.4254 57.9808 11.0241 58.2081 10.495C58.4389 9.96591 58.5543 9.31605 58.5543 8.54545ZM62.1377 4.99254V3.09091H71.0973V4.99254H67.7574V14H65.4776V4.99254H62.1377ZM73.0228 14V3.09091H80.3736V4.99254H75.3292V7.59197H79.9954V9.49361H75.3292V12.0984H80.3949V14H73.0228ZM82.6573 14V3.09091H84.9638V7.59197H89.646V3.09091H91.9471V14H89.646V9.49361H84.9638V14H82.6573ZM104.808 12.157L104.675 16.5781H102.481V14H101.714V12.157H104.808ZM94.2987 14V3.09091H96.5146V12.1463H101.053V3.09091H103.296V14H94.2987ZM106.658 3.09091H108.959V9.9517H109.05L113.764 3.09091H115.783V14H113.476V7.13388H113.396L108.655 14H106.658V3.09091ZM120.019 14H117.547L121.313 3.09091H124.285L128.046 14H125.574L122.842 5.58381H122.756L120.019 14ZM119.864 9.712H125.702V11.5124H119.864V9.712ZM129.218 14V12.1463L129.527 12.1197C129.924 12.0877 130.246 11.9368 130.491 11.6669C130.736 11.3935 130.919 10.9585 131.039 10.3619C131.164 9.76172 131.244 8.95561 131.279 7.94354L131.46 3.09091H138.864V14H136.622V4.93928H133.602L133.431 8.73722C133.374 9.95881 133.229 10.9567 132.994 11.7308C132.763 12.505 132.394 13.0767 131.886 13.446C131.382 13.8153 130.691 14 129.814 14H129.218ZM48.5735 23.9102H46.2404C46.1978 23.6083 46.1108 23.3402 45.9794 23.1058C45.848 22.8679 45.6793 22.6655 45.4734 22.4986C45.2674 22.3317 45.0295 22.2038 44.7596 22.1151C44.4933 22.0263 44.2038 21.9819 43.8913 21.9819C43.3267 21.9819 42.8349 22.1222 42.4158 22.4027C41.9968 22.6797 41.6719 23.0845 41.4411 23.6172C41.2102 24.1463 41.0948 24.7891 41.0948 25.5455C41.0948 26.3232 41.2102 26.9766 41.4411 27.5057C41.6754 28.0348 42.0021 28.4343 42.4212 28.7042C42.8402 28.9741 43.3249 29.109 43.8754 29.109C44.1843 29.109 44.4702 29.0682 44.733 28.9865C44.9993 28.9048 45.2354 28.7859 45.4414 28.6296C45.6474 28.4698 45.8178 28.2763 45.9528 28.049C46.0913 27.8217 46.1871 27.5625 46.2404 27.2713L48.5735 27.282C48.5131 27.7827 48.3622 28.2656 48.1207 28.7308C47.8828 29.1925 47.5614 29.6062 47.1566 29.9719C46.7553 30.3342 46.2759 30.6218 45.7184 30.8349C45.1644 31.0444 44.5376 31.1491 43.8381 31.1491C42.8651 31.1491 41.995 30.929 41.228 30.4886C40.4645 30.0483 39.8608 29.4109 39.4169 28.5763C38.9766 27.7418 38.7564 26.7315 38.7564 25.5455C38.7564 24.3558 38.9801 23.3438 39.4276 22.5092C39.875 21.6747 40.4822 21.0391 41.2493 20.6023C42.0163 20.1619 42.8793 19.9418 43.8381 19.9418C44.4702 19.9418 45.0561 20.0305 45.5959 20.2081C46.1392 20.3857 46.6204 20.6449 47.0394 20.9858C47.4585 21.3232 47.7994 21.7369 48.0621 22.2269C48.3285 22.717 48.4989 23.2781 48.5735 23.9102ZM50.262 21.9925V20.0909H59.2215V21.9925H55.8816V31H53.6018V21.9925H50.262ZM61.147 31V20.0909H65.451C66.2784 20.0909 66.9833 20.2489 67.5657 20.565C68.148 20.8775 68.5919 21.3125 68.8973 21.87C69.2063 22.424 69.3608 23.0632 69.3608 23.7876C69.3608 24.5121 69.2045 25.1513 68.892 25.7053C68.5795 26.2592 68.1267 26.6907 67.5337 26.9996C66.9442 27.3086 66.2304 27.4631 65.3924 27.4631H62.6491V25.6147H65.0195C65.4634 25.6147 65.8292 25.5384 66.1168 25.3857C66.408 25.2294 66.6246 25.0146 66.7667 24.7411C66.9123 24.4641 66.985 24.1463 66.985 23.7876C66.985 23.4254 66.9123 23.1094 66.7667 22.8395C66.6246 22.5661 66.408 22.3548 66.1168 22.2056C65.8256 22.0529 65.4563 21.9766 65.0088 21.9766H63.4534V31H61.147ZM71.9295 31H69.4579L73.2238 20.0909H76.1961L79.9568 31H77.4852L74.7526 22.5838H74.6674L71.9295 31ZM71.775 26.712H77.6131V28.5124H71.775V26.712ZM81.7198 31V20.0909H84.0263V24.592H88.7085V20.0909H91.0096V31H88.7085V26.4936H84.0263V31H81.7198ZM94.8794 24.1232H97.4788C98.3453 24.1232 99.091 24.2635 99.716 24.544C100.345 24.821 100.829 25.2134 101.17 25.7212C101.511 26.229 101.68 26.8274 101.676 27.5163C101.68 28.2017 101.511 28.8072 101.17 29.3327C100.829 29.8548 100.345 30.2631 99.716 30.5579C99.091 30.8526 98.3453 31 97.4788 31H93.4039V20.0909H95.705V29.1463H97.4788C97.8943 29.1463 98.2441 29.0717 98.5281 28.9226C98.8122 28.7699 99.0271 28.5692 99.1727 28.3207C99.3218 28.0685 99.3946 27.7933 99.3911 27.495C99.3946 27.0618 99.2313 26.696 98.901 26.3977C98.5743 26.0959 98.1002 25.945 97.4788 25.945H94.8794V24.1232ZM104.867 20.0909V31H102.566V20.0909H104.867Z" fill="#111A30"/>
</svg>
