<svg width="103" height="24" viewBox="0 0 103 24" fill="none" xmlns="http://www.w3.org/2000/svg">
<path d="M38.1434 5.47834V7.87125H34.3195V20H31.4105V7.87125H27.5865V5.47834H38.1434ZM43.4454 17.9355C43.7582 17.9355 44.0631 17.9355 44.3603 17.9355C44.6575 17.9199 44.9155 17.8964 45.1345 17.8652V15.3315C44.9468 15.3002 44.72 15.2767 44.4541 15.2611C44.1883 15.2298 43.9458 15.2142 43.7269 15.2142C43.4297 15.2142 43.1404 15.2376 42.8589 15.2846C42.5774 15.3158 42.3271 15.3784 42.1082 15.4722C41.9048 15.5661 41.7406 15.699 41.6155 15.8711C41.4904 16.0431 41.4278 16.2699 41.4278 16.5514C41.4278 17.0519 41.6155 17.4116 41.9909 17.6306C42.3662 17.8339 42.8511 17.9355 43.4454 17.9355ZM43.1873 8.69234C44.0944 8.69234 44.8451 8.80182 45.4395 9.02078C46.0494 9.2241 46.5343 9.52126 46.894 9.91225C47.2537 10.2876 47.5117 10.7568 47.6681 11.3198C47.8245 11.8672 47.9027 12.485 47.9027 13.1732V19.7419C47.4805 19.8358 46.8549 19.9453 46.026 20.0704C45.197 20.1955 44.2665 20.2581 43.2342 20.2581C42.5304 20.2581 41.8892 20.1955 41.3105 20.0704C40.7475 19.9453 40.2626 19.7419 39.856 19.4604C39.4494 19.1633 39.1366 18.7879 38.9176 18.3343C38.6987 17.8652 38.5892 17.2943 38.5892 16.6218C38.5892 15.9805 38.7143 15.441 38.9645 15.003C39.2148 14.5651 39.551 14.2132 39.9733 13.9474C40.3956 13.6815 40.8804 13.4938 41.4278 13.3843C41.9752 13.2592 42.5461 13.1966 43.1404 13.1966C43.8911 13.1966 44.5558 13.2592 45.1345 13.3843V13.0324C45.1345 12.485 44.9624 12.0315 44.6184 11.6717C44.2743 11.2964 43.68 11.1087 42.8354 11.1087C42.288 11.1087 41.7563 11.1478 41.2401 11.226C40.7397 11.3042 40.333 11.398 40.0202 11.5075L39.6214 9.185C39.9811 9.05988 40.4894 8.9504 41.1463 8.85656C41.8032 8.74708 42.4835 8.69234 43.1873 8.69234ZM59.0696 19.5308C59.0227 19.5621 58.9132 19.6168 58.7412 19.695C58.5848 19.7732 58.3737 19.8592 58.1078 19.9531C57.8419 20.0313 57.5135 20.1017 57.1225 20.1642C56.7471 20.2268 56.317 20.2581 55.8322 20.2581C54.5028 20.2581 53.5331 19.8671 52.9232 19.0851C52.3132 18.2874 52.0082 17.1301 52.0082 15.613V6.25251H48.9584V3.85961H54.8938V15.8241C54.8938 16.5749 55.0424 17.0832 55.3395 17.349C55.6367 17.6149 56.012 17.7479 56.4656 17.7479C57.0443 17.7479 57.5291 17.6697 57.9201 17.5133C58.3111 17.3569 58.5692 17.2552 58.6943 17.2083L59.0696 19.5308ZM64.5593 17.9355C64.8721 17.9355 65.177 17.9355 65.4742 17.9355C65.7714 17.9199 66.0294 17.8964 66.2484 17.8652V15.3315C66.0607 15.3002 65.8339 15.2767 65.568 15.2611C65.3022 15.2298 65.0597 15.2142 64.8408 15.2142C64.5436 15.2142 64.2543 15.2376 63.9728 15.2846C63.6912 15.3158 63.441 15.3784 63.222 15.4722C63.0187 15.5661 62.8545 15.699 62.7294 15.8711C62.6043 16.0431 62.5417 16.2699 62.5417 16.5514C62.5417 17.0519 62.7294 17.4116 63.1047 17.6306C63.4801 17.8339 63.9649 17.9355 64.5593 17.9355ZM64.3012 8.69234C65.2083 8.69234 65.959 8.80182 66.5533 9.02078C67.1633 9.2241 67.6481 9.52126 68.0079 9.91225C68.3676 10.2876 68.6256 10.7568 68.782 11.3198C68.9384 11.8672 69.0166 12.485 69.0166 13.1732V19.7419C68.5944 19.8358 67.9688 19.9453 67.1398 20.0704C66.3109 20.1955 65.3804 20.2581 64.3481 20.2581C63.6443 20.2581 63.0031 20.1955 62.4244 20.0704C61.8614 19.9453 61.3765 19.7419 60.9699 19.4604C60.5633 19.1633 60.2505 18.7879 60.0315 18.3343C59.8125 17.8652 59.7031 17.2943 59.7031 16.6218C59.7031 15.9805 59.8282 15.441 60.0784 15.003C60.3287 14.5651 60.6649 14.2132 61.0872 13.9474C61.5095 13.6815 61.9943 13.4938 62.5417 13.3843C63.0891 13.2592 63.66 13.1966 64.2543 13.1966C65.005 13.1966 65.6697 13.2592 66.2484 13.3843V13.0324C66.2484 12.485 66.0763 12.0315 65.7323 11.6717C65.3882 11.2964 64.7939 11.1087 63.9493 11.1087C63.4019 11.1087 62.8701 11.1478 62.354 11.226C61.8536 11.3042 61.4469 11.398 61.1341 11.5075L60.7353 9.185C61.095 9.05988 61.6033 8.9504 62.2602 8.85656C62.9171 8.74708 63.5974 8.69234 64.3012 8.69234ZM70.7057 9.32576C71.2219 9.185 71.8553 9.05206 72.606 8.92694C73.3723 8.80182 74.2013 8.73926 75.0927 8.73926C75.9686 8.73926 76.6958 8.86438 77.2745 9.11462C77.8532 9.34922 78.3067 9.6933 78.6352 10.1469C78.9793 10.5848 79.2217 11.1165 79.3624 11.7421C79.5032 12.3521 79.5736 13.0324 79.5736 13.7831V20H76.688V14.1585C76.688 13.1263 76.5707 12.3834 76.3361 11.9298C76.1015 11.4762 75.6245 11.2495 74.9051 11.2495C74.6861 11.2495 74.4671 11.2573 74.2482 11.2729C74.0449 11.2886 73.8259 11.312 73.5913 11.3433V20H70.7057V9.32576ZM83.1395 11.3668H80.6293V8.97386H83.1395V6.20559L86.025 5.7364V8.97386H90.6466V11.3668H86.025V15.8241C86.025 16.2308 86.0641 16.5592 86.1423 16.8095C86.2205 17.0597 86.33 17.2552 86.4708 17.396C86.6115 17.5367 86.7836 17.6306 86.9869 17.6775C87.1902 17.7244 87.417 17.7479 87.6672 17.7479C87.9331 17.7479 88.1755 17.74 88.3945 17.7244C88.6291 17.7088 88.848 17.6853 89.0514 17.654C89.2703 17.6071 89.4893 17.5445 89.7082 17.4663C89.9428 17.3881 90.1931 17.2865 90.459 17.1614L90.8578 19.6481C90.326 19.8671 89.7473 20.0235 89.1217 20.1173C88.5118 20.2111 87.9175 20.2581 87.3388 20.2581C86.6663 20.2581 86.072 20.2033 85.5558 20.0938C85.0397 19.9844 84.6018 19.7732 84.2421 19.4604C83.8824 19.1476 83.6087 18.7097 83.421 18.1467C83.2333 17.568 83.1395 16.8173 83.1395 15.8945V11.3668ZM101.415 8.97386C101.118 10.0061 100.828 11.0227 100.547 12.0236C100.281 13.009 99.9993 13.9786 99.7021 14.9327C99.405 15.8711 99.0844 16.7938 98.7403 17.7009C98.4119 18.608 98.0521 19.4917 97.6611 20.3519C97.364 20.9775 97.0668 21.5171 96.7697 21.9706C96.4881 22.4242 96.1675 22.7917 95.8078 23.0732C95.4637 23.3704 95.0727 23.5894 94.6348 23.7301C94.2125 23.8709 93.7121 23.9413 93.1334 23.9413C92.6485 23.9413 92.2028 23.9022 91.7962 23.824C91.4052 23.7458 91.0767 23.6441 90.8109 23.519L91.3504 21.1026C91.6632 21.2434 91.9369 21.3372 92.1715 21.3841C92.4218 21.4467 92.6876 21.478 92.9692 21.478C93.5322 21.478 93.9858 21.2903 94.3298 20.9149C94.6739 20.5396 94.9476 20.0938 95.1509 19.5777C94.4628 18.2014 93.7746 16.6296 93.0865 14.8623C92.3983 13.0793 91.7727 11.1165 91.2097 8.97386H94.2125C94.3533 9.55254 94.5097 10.1703 94.6817 10.8272C94.8694 11.4841 95.0649 12.1409 95.2682 12.7978C95.4716 13.4547 95.6827 14.1038 95.9016 14.745C96.1362 15.3706 96.3708 15.9571 96.6054 16.5045C96.7618 15.9571 96.9261 15.3706 97.0981 14.745C97.2701 14.1038 97.4344 13.4625 97.5908 12.8213C97.7472 12.1644 97.8957 11.5075 98.0365 10.8506C98.1929 10.1938 98.3337 9.56818 98.4588 8.97386H101.415Z" fill="black"/>
<rect y="0.554688" width="23" height="23" rx="11.5" fill="#004AFA"/>
<path d="M14.2157 10.0269L13.9148 6.99609H9.11176L8.91312 10.0269H14.2157Z" fill="white"/>
<path d="M8.60963 6.99609H5.92327L4.57425 9.62974L8.42864 10.0269L8.60963 6.99609Z" fill="white"/>
<path d="M4.57425 10.1327L11.336 18.9961L8.42864 10.5201L4.57425 10.1327Z" fill="white"/>
<path d="M11.771 18.9961L18.4909 10.1436L14.6792 10.5203L11.771 18.9961Z" fill="white"/>
<path d="M18.5742 9.63788L17.1502 6.99609H14.3974L14.6988 10.0269L18.5742 9.63788Z" fill="white"/>
<path d="M11.5592 18.5017L8.91312 10.531H14.1855L11.5592 18.5017Z" fill="white"/>
</svg>
