<svg width="81" height="80" viewBox="0 0 81 80" fill="none" xmlns="http://www.w3.org/2000/svg">
<mask id="path-1-inside-1_9956_58641" fill="white">
<path d="M40.6665 1.35907e-06C18.5751 2.10966e-06 0.666502 17.9086 0.666503 40C0.666503 62.0914 18.5751 80 40.6665 80C62.7579 80 80.6665 62.0914 80.6665 40C80.6665 17.9086 62.7579 6.08475e-07 40.6665 1.35907e-06ZM40.6665 71.6C23.2143 71.6 9.0665 57.4522 9.0665 40C9.0665 22.5478 23.2143 8.4 40.6665 8.4C58.1187 8.4 72.2665 22.5478 72.2665 40C72.2665 57.4522 58.1187 71.6 40.6665 71.6Z"/>
</mask>
<g filter="url(#filter0_ii_9956_58641)">
<path d="M40.6665 1.35907e-06C18.5751 2.10966e-06 0.666502 17.9086 0.666503 40C0.666503 62.0914 18.5751 80 40.6665 80C62.7579 80 80.6665 62.0914 80.6665 40C80.6665 17.9086 62.7579 6.08475e-07 40.6665 1.35907e-06ZM40.6665 71.6C23.2143 71.6 9.0665 57.4522 9.0665 40C9.0665 22.5478 23.2143 8.4 40.6665 8.4C58.1187 8.4 72.2665 22.5478 72.2665 40C72.2665 57.4522 58.1187 71.6 40.6665 71.6Z" fill="white"/>
</g>
<path d="M40.6665 1.35907e-06C18.5751 2.10966e-06 0.666502 17.9086 0.666503 40C0.666503 62.0914 18.5751 80 40.6665 80C62.7579 80 80.6665 62.0914 80.6665 40C80.6665 17.9086 62.7579 6.08475e-07 40.6665 1.35907e-06ZM40.6665 71.6C23.2143 71.6 9.0665 57.4522 9.0665 40C9.0665 22.5478 23.2143 8.4 40.6665 8.4C58.1187 8.4 72.2665 22.5478 72.2665 40C72.2665 57.4522 58.1187 71.6 40.6665 71.6Z" stroke="url(#paint0_linear_9956_58641)" stroke-opacity="0.7" stroke-width="2" mask="url(#path-1-inside-1_9956_58641)"/>
<defs>
<filter id="filter0_ii_9956_58641" x="-1.3335" y="-4" width="84" height="88" filterUnits="userSpaceOnUse" color-interpolation-filters="sRGB">
<feFlood flood-opacity="0" result="BackgroundImageFix"/>
<feBlend mode="normal" in="SourceGraphic" in2="BackgroundImageFix" result="shape"/>
<feColorMatrix in="SourceAlpha" type="matrix" values="0 0 0 0 0 0 0 0 0 0 0 0 0 0 0 0 0 0 127 0" result="hardAlpha"/>
<feOffset dx="2" dy="4"/>
<feGaussianBlur stdDeviation="4"/>
<feComposite in2="hardAlpha" operator="arithmetic" k2="-1" k3="1"/>
<feColorMatrix type="matrix" values="0 0 0 0 0.788194 0 0 0 0 0.8601 0 0 0 0 0.945833 0 0 0 0.5 0"/>
<feBlend mode="normal" in2="shape" result="effect1_innerShadow_9956_58641"/>
<feColorMatrix in="SourceAlpha" type="matrix" values="0 0 0 0 0 0 0 0 0 0 0 0 0 0 0 0 0 0 127 0" result="hardAlpha"/>
<feOffset dx="-2" dy="-4"/>
<feGaussianBlur stdDeviation="4"/>
<feComposite in2="hardAlpha" operator="arithmetic" k2="-1" k3="1"/>
<feColorMatrix type="matrix" values="0 0 0 0 0.870833 0 0 0 0 0.906818 0 0 0 0 0.95 0 0 0 0.4 0"/>
<feBlend mode="normal" in2="effect1_innerShadow_9956_58641" result="effect2_innerShadow_9956_58641"/>
</filter>
<linearGradient id="paint0_linear_9956_58641" x1="80.6668" y1="66.4286" x2="80.519" y2="21.4519" gradientUnits="userSpaceOnUse">
<stop stop-color="#F0F5FB" stop-opacity="0.51"/>
<stop offset="1" stop-color="#BFDEFA" stop-opacity="0.06"/>
</linearGradient>
</defs>
</svg>
