<svg width="24" height="24" viewBox="0 0 24 24" fill="none" xmlns="http://www.w3.org/2000/svg">
<rect width="24" height="24" rx="2" fill="#4A7AFF"/>
<mask id="mask0_5384_34258" style="mask-type:alpha" x="0" y="0" width="24" height="24">
<rect width="24" height="24" rx="2" fill="#4A7AFF"/>
</mask>
<g mask="url(#mask0_5384_34258)">
<path d="M11.1672 24L24.002 24.0501C23.9981 24 23.9987 11.0081 23.9981 10.9579L15.3001 2L5 12.5L11.1672 17.3326L8.5 22L11.1672 24Z" fill="#0053BF"/>
</g>
<path d="M16 2.22322V5.31881C16 5.31881 12.1469 4.80295 12.1469 7.09586V9.38878H15.6271L15.1922 12.8855H12.1469V22H8.29383V12.8855L5 12.8281V9.38878H8.23164V6.75188C8.23164 6.75188 8.01838 2.82919 12.2091 2.1087C13.9493 1.80936 16 2.22322 16 2.22322Z" fill="white"/>
<path d="M16 5.31881V2.22322C16 2.22322 14.1978 1.80936 12.6684 2.1087C12.4295 2.15542 12.2073 2.21592 12 2.28746V22H12.6137V12.8855H15.2899L15.6723 9.38878H12.6137C12.6137 9.38878 12.6137 9.38877 12.6137 7.09586C12.6137 4.80295 16 5.31881 16 5.31881Z" fill="#DCE1EB"/>
</svg>
