<svg width="93" height="121" viewBox="0 0 93 121" fill="none" xmlns="http://www.w3.org/2000/svg">
<g clip-path="url(#clip0_8865_65137)">
<path d="M4.05664 120.99L40.5629 108.89L77.0705 120.99V-0.0112305H4.05664V120.99Z" fill="#223548"/>
<path d="M61.0249 71.9024C61.0034 71.726 61.1265 71.5182 60.8546 71.1881C60.9948 71.4713 60.9476 71.6619 60.7158 71.881C60.7401 71.7743 60.7086 71.6207 60.5784 71.5111C60.6227 71.6662 60.4925 71.7829 60.4396 71.9365C60.3981 71.8384 60.4195 71.6932 60.2936 71.642C60.3566 71.8625 60.1491 71.9778 60.0475 72.1542C59.9845 72.0888 59.9316 72.0859 59.913 72.029C59.8328 72.0632 59.85 72.1528 59.7556 72.1798C59.694 72.1244 59.6955 72.0475 59.6196 71.9991C59.5595 72.0618 59.5638 72.167 59.4951 72.2126C59.4279 72.1727 59.4121 72.0746 59.3563 72.0347C59.3291 72.0874 59.3148 72.1984 59.2676 72.2311C59.2218 71.9863 59.0415 71.7686 58.8798 71.7331C58.9542 71.6064 58.8412 71.5936 58.9499 71.4698C59.0873 71.4841 59.0744 71.4243 59.1474 71.4215C59.1689 71.3048 59.1159 71.2906 59.1288 71.2237C59.186 71.245 59.2132 71.2635 59.3134 71.2706C59.3234 71.181 59.3062 71.1554 59.3034 71.1084C59.3935 71.0729 59.3635 71.006 59.4164 70.9576C59.5452 70.9932 59.6668 70.959 59.7241 71.1355C59.7742 70.9007 59.5924 70.8338 59.6139 70.6389C59.7026 70.646 59.6969 70.5933 59.7413 70.582C59.8543 70.6559 59.9745 70.636 59.9731 70.8537C60.0232 70.7186 60.0103 70.5748 59.9588 70.4468C60.0976 70.4155 60.182 70.5464 60.202 70.6318C60.1992 70.3842 59.9373 70.0811 59.7255 70.1323C59.5266 70.1807 59.4236 70.5037 59.2819 70.6261C59.2118 70.6858 59.0973 70.6873 59.0272 70.747C58.9628 70.8025 58.9385 70.9163 58.8912 70.9804C58.7496 71.1767 58.5664 71.2991 58.4562 71.4371C58.3074 71.2706 58.0827 71.2308 57.9396 71.0558C57.9911 70.9249 57.9911 70.7655 57.9783 70.5976C57.9081 70.5065 57.7479 70.5706 57.6892 70.461C57.7049 70.3941 57.7264 70.3315 57.7021 70.2419C57.642 70.1836 57.506 70.2561 57.4159 70.2462C57.2671 69.9118 56.9322 69.5048 56.8993 69.132C56.8921 69.0495 56.9279 68.977 56.9036 68.8802C56.8707 68.7479 56.792 68.6824 56.739 68.6013C56.7061 68.5501 56.6918 68.4733 56.656 68.4263C56.5745 68.321 56.4256 68.274 56.3355 68.1716C56.2782 68.1062 56.2639 68.0293 56.2224 67.9511C56.0092 67.5455 55.7116 67.1173 55.494 66.7132C55.3839 66.5097 55.2722 66.4158 55.2923 66.3019C55.3424 66.0316 55.7073 66.4385 55.9262 66.2778C56.5372 65.8281 56.3913 65.0555 57.6663 64.4807C57.9654 64.3455 58.1371 64.0709 58.3632 64.0154C58.5063 63.9798 58.4262 64.2331 58.585 64.6187C58.7081 64.9189 58.6394 65.3401 58.4018 65.4909C58.2287 65.6005 58.0842 65.7072 58.1171 65.8964C58.1271 65.9562 58.2072 65.969 58.2416 65.9633C58.1471 66.0814 58.2859 66.2066 58.2315 66.3247C58.1586 66.4826 57.9124 66.2365 57.7364 66.2948C57.4474 66.3902 57.2771 67.2524 57.7178 67.4274C57.7965 67.4587 58.2387 67.2425 58.4219 67.0803C58.5621 66.9565 58.6823 67.0034 58.8183 66.901C58.8812 66.854 58.9027 66.78 58.9843 66.7203C59.1202 66.6207 59.259 66.5083 59.2976 66.3432C59.3234 66.2336 59.2862 65.9989 59.2891 65.8452C59.2948 65.5208 59.4322 65.1224 59.4164 64.8449C59.4064 64.6614 59.3535 64.4309 59.3177 64.2815C59.196 63.7521 59.4336 63.2228 59.2089 63.0734C58.9556 62.9041 58.9986 62.5427 58.7496 62.5014C58.326 62.4886 58.1314 62.7632 57.6892 63.0379C57.0352 63.4434 56.5473 63.4946 56.128 63.7906C56.1494 62.86 55.3481 62.3876 55.1506 61.6349C55.0376 61.2038 54.8701 60.9448 54.6583 60.8224C55.4898 61.2948 55.3152 60.3159 55.5971 60.249C55.6414 60.4724 55.8461 60.5677 55.9663 60.5464C56.1065 60.5222 56.2253 60.3799 56.2568 60.3998C56.2954 60.424 56.4013 60.4183 56.4399 60.3273C56.4915 60.3572 56.6374 60.3685 56.7404 60.2476C57.0252 59.9104 57.0825 59.9829 57.1712 59.778C57.2613 59.5703 57.0352 59.4366 56.8821 58.58C56.7676 57.9368 56.6002 57.4986 56.2367 57.251C56.3097 57.2069 56.3984 57.2169 56.48 57.2467C56.4514 57.1315 56.3355 57.0803 56.3355 57.0803C56.4514 57.1301 56.5659 57.1315 56.6947 57.0746C56.4872 56.9067 56.5458 56.4571 56.314 56.3347C56.3841 56.2337 56.3813 56.0999 56.4986 56.0174C56.3226 55.9676 56.0636 55.9334 55.8404 56.0416C55.6944 55.8836 55.4368 55.8851 55.2493 55.979C55.3767 55.7542 55.3452 55.6346 55.5026 55.5365C55.2608 55.4397 55.019 55.5009 54.79 55.673C54.6354 55.5734 54.4294 55.5621 54.2104 55.6844C53.8541 55.6147 53.671 55.895 53.0113 55.8694C52.5805 55.8523 52.2113 56.1255 52.1341 56.3034C52.3015 56.117 52.4346 56.3333 52.6106 56.3759C52.5362 56.3617 52.3244 56.3304 52.1484 56.3873C51.7291 56.5239 51.566 56.965 51.2955 57.0191C51.3914 57.0732 51.4572 57.0461 51.4572 57.0461C51.244 57.1343 51.1696 57.3307 51.1667 57.5242C51.2182 57.4118 51.3341 57.3976 51.4014 57.4147C51.3527 57.6238 50.6616 57.6139 50.5929 57.9995C50.6587 57.8244 51.0222 57.7874 51.3313 57.9041C50.9535 58.1859 51.1782 58.7593 50.6401 58.8446C50.434 58.4477 50.0391 57.87 49.4209 57.7106C49.2349 57.6637 49.1333 57.7633 49.0531 57.6608C48.9945 57.5854 48.9844 57.4374 49.0317 57.3392C49.1018 57.3777 49.2248 57.3848 49.2964 57.3535C49.428 57.2951 49.3737 57.1941 49.4209 57.1258C49.4495 57.2083 49.5254 57.261 49.647 57.2283C49.8201 57.1799 50.1307 56.864 50.0219 56.5083C49.9661 56.3247 50.1321 56.0771 50.0634 55.8481C49.9647 55.5151 49.6885 55.4852 49.5368 55.3458C49.3579 55.1765 49.0689 55.037 48.807 55.1267C48.6625 55.1765 48.5637 55.138 48.4392 55.1736C48.0314 55.2917 48.0543 55.5094 47.8325 55.6346C47.6307 55.7485 47.303 56.0729 47.3374 56.356C47.3517 56.4756 47.4561 56.5154 47.5363 56.6335C47.5763 56.6947 47.5906 56.79 47.6193 56.8355C47.6522 56.8868 47.7294 56.9551 47.8253 56.9579C47.884 56.9608 47.8954 56.901 47.8954 56.901C47.8883 56.9408 47.894 56.9963 47.9369 57.0106C48.0171 57.0376 48.0729 56.9579 48.0815 57.012C48.1115 57.2169 47.9241 57.4531 47.9241 57.4531C47.7724 57.16 47.5205 57.0504 46.9596 57.1898C46.4931 57.3051 45.4928 57.4203 45.4298 56.9807C45.4184 56.9067 45.3941 56.8227 45.364 56.7772C45.364 56.7772 45.4255 56.7544 45.4284 56.7018C45.4327 56.6178 45.4098 56.4727 45.3468 56.4329C45.1579 56.3148 45.1808 56.2379 45.0134 56.1924C45.0492 56.1767 45.0606 56.1099 45.0292 56.117C44.9032 56.1454 44.8417 56.0629 44.7 56.1127L44.1977 55.2604C44.172 55.2149 44.1104 55.1665 44.0346 55.2092C43.9602 55.2505 43.9631 55.3301 43.9974 55.3899L44.4768 56.2095C44.3795 56.3105 44.2493 56.5424 44.2965 56.6933C44.3494 56.8569 44.6728 59.0254 45.5243 59.0026C46.6347 58.9713 47.2615 59.6429 47.2615 59.6429C47.2615 59.6429 46.6548 59.1634 45.3955 59.1591C44.3866 59.1563 44.1434 58.0478 43.7756 57.6622C43.1388 56.9949 43.0901 57.9027 42.2416 58.4662C41.9225 58.6782 41.7722 59.0723 41.9754 59.4536C42.19 58.9613 42.9241 58.7123 42.9241 58.7123C42.3074 58.977 41.9482 59.4935 41.9911 59.8705C42.0498 60.3856 41.8251 60.767 42.2974 60.9178C42.4376 60.5108 42.9742 60.1494 42.9742 60.1494C42.6294 60.5051 42.316 60.9349 42.3389 61.3261C42.3661 61.8099 43.0057 61.6449 43.4007 62.0205C43.4851 62.1002 43.6468 61.9323 43.6955 61.578C43.9473 61.4997 43.9874 61.6008 44.1763 61.6876C44.245 61.7189 44.2965 61.6548 44.378 61.7018C44.6542 61.8597 44.5698 62.3748 44.7301 62.2866C44.8946 62.1955 44.9962 61.8754 45.1966 61.7302C45.3769 61.5993 45.643 61.706 45.8062 61.6221C45.9149 61.5666 45.9693 61.0174 45.9693 61.0174C45.9693 61.0174 45.9135 61.6278 46.0409 61.7985C46.2813 61.3603 46.7506 61.5865 46.9238 61.4314C47.0769 61.2934 46.9424 60.6873 47.3903 61.0245C47.7223 61.2749 47.9756 61.9536 47.9756 61.9536C47.9112 61.837 47.6736 61.8028 47.6035 61.8014C47.9756 62.0319 48.0142 62.7362 48.4879 63.2456C47.977 63.8233 46.6948 63.1346 45.9693 64.566C44.3294 63.1119 43.3892 63.9627 43.1488 64.6144C42.9814 65.0683 42.6537 65.0441 42.6208 65.7584C42.5879 66.4528 42.9413 66.7231 43.0658 67.7376C43.1689 67.6124 43.1359 67.4644 43.1359 67.4644C43.2604 67.9852 43.654 68.2484 43.7141 69.3099C43.9173 68.8546 43.9774 68.5643 43.903 68.3153C44.0389 68.718 43.777 69.0396 44.3208 70.01C44.2049 69.0566 44.886 68.5615 44.919 67.6138C45.1136 68.0108 45.301 68.4775 45.0964 68.8019C45.0964 68.8019 45.3769 68.6397 45.427 68.3367C46.2283 67.2538 44.4095 65.4169 44.8202 64.8449C45.0993 64.4565 45.6216 64.7055 45.8005 64.9388C45.5987 65.3358 45.54 65.9718 45.726 66.5581C45.9908 67.3919 46.6075 67.813 47.0912 68.1289C47.2429 68.2271 47.1528 68.4419 47.2343 68.617C47.2873 68.7279 47.4175 68.7493 47.4404 68.9328C47.4762 69.206 47.4347 69.7567 46.7349 70.2803C46.5961 70.3842 46.6791 70.5777 46.7206 70.7712C46.7535 70.9277 46.536 70.9832 46.7063 71.2351C46.9066 71.5296 46.8995 72.2396 46.8651 72.7092C46.8265 73.2456 46.2999 73.5928 46.5074 74.1406C46.5646 74.1278 46.5832 74.0296 46.5832 74.0296C46.5818 74.1036 46.6204 74.1306 46.6362 74.2487C46.765 74.1761 46.6791 74.0282 46.7549 74.0296C46.8852 74.0324 46.6219 74.3298 46.7964 74.7197C46.6676 75.0811 46.4573 74.576 46.3585 74.327C46.1353 73.7635 45.6745 72.4943 44.5798 73.0393C45.9135 72.6864 45.5987 74.7567 46.6004 75.7399C47.1299 76.2592 48.143 76.4499 49.637 75.7171C50.0749 75.5023 50.0892 75.7157 49.8015 75.9135C49.6112 76.0444 49.0474 76.2877 48.9272 76.891C49.0231 76.6135 49.295 76.3773 49.7972 76.2237C50.301 76.07 51.0379 76.0444 51.0723 76.4727C51.088 76.669 50.819 76.9465 50.5514 76.9778C51.1624 77.1215 51.7963 76.1838 53.369 76.5495C53.8842 76.669 54.3807 76.033 55.0175 75.9676C54.9073 75.8993 54.8286 75.9178 54.7313 75.932C55.0547 75.6929 55.5871 75.488 55.9062 75.6189C56.0622 75.683 55.9792 75.8893 55.9792 75.8893C56.2253 75.7015 56.0822 75.4624 56.0407 75.2205C55.9477 74.6784 56.6274 74.778 56.6703 74.8022C56.6703 75.01 56.9408 74.9488 56.7791 75.0896C56.7447 75.1195 56.6603 75.1209 56.6431 75.2106C57.2155 75.2092 56.7848 74.4266 56.6532 74.0452C56.8134 73.9656 56.8234 73.7564 56.9379 73.6824C57.0495 73.6098 57.1411 73.6838 57.164 73.6041C57.2771 73.6753 57.496 73.432 57.7894 73.4547C58.1414 73.4818 58.4047 73.8247 58.7811 73.6013C58.8912 73.5359 58.98 73.4519 58.9614 73.2684C59.0844 73.1318 59.2962 73.099 59.4851 73.0748C59.6368 73.0549 59.6597 72.9069 59.777 72.8899C60.0947 72.8458 60.1491 72.6579 60.7959 72.5299C60.9476 72.5 61.0707 72.3961 61.105 72.3392C61.1622 72.2439 61.1122 72.0489 61.1479 71.8981C61.188 71.7288 61.198 71.6178 61.0964 71.4115C61.1465 71.6377 61.0234 71.7871 61.0249 71.9024ZM51.5688 68.2399L52.9912 70.6517C52.1899 69.4579 51.0565 69.5276 51.5688 68.2399ZM46.8909 75.1949C47.0812 75.2646 47.3331 75.0356 47.3803 74.8164C47.4991 75.1764 47.7323 75.0839 47.8411 75.5521C47.5305 75.6474 47.0812 75.4752 46.8909 75.1949ZM52.8496 72.6594C52.6521 72.6736 52.3859 72.8842 52.4203 73.0065C52.2471 72.9582 52.1655 73.1702 52.0368 73.2527C52.1054 73.1417 52.001 73.1019 51.991 73.0151C52.0038 72.8116 51.9652 72.5839 51.8536 72.3719C51.44 71.5879 50.6902 71.3731 49.7901 71.7231C47.4461 72.6337 48.7927 74.6884 48.8528 74.8549C48.6238 74.9573 48.4864 74.9943 48.2432 74.9986C48.0958 74.6471 47.8997 74.6599 47.8024 74.364C47.6107 74.327 47.6937 74.142 47.6708 74.0068C47.6464 73.8603 47.5448 73.809 47.4762 73.5401C47.2443 72.6266 47.7652 72.1044 47.6908 71.4784C48.3977 70.7954 48.2918 70.4639 48.568 69.9929C48.8728 69.4707 49.6155 69.2231 49.8015 68.6269C50.0362 68.7379 50.238 68.9641 50.2423 69.2758C50.2437 69.3796 50.2294 69.465 50.3253 69.6201C50.4541 69.8278 50.3854 69.9559 50.5185 70.0498C50.7617 70.222 51.3628 69.9189 52.3473 70.8722C52.5877 71.1042 52.6979 71.4471 52.8782 71.6562C53.0456 71.8497 53.2044 71.8469 53.2044 71.8469C53.1987 71.7829 53.1486 71.7331 53.1486 71.7331C53.1987 71.78 53.2889 71.8469 53.3876 71.8583C53.2932 71.8782 53.2417 71.9451 53.2631 71.9991C53.3146 72.1315 53.2073 72.325 53.4849 72.2937C53.4205 72.3705 52.8395 72.278 52.8496 72.6594ZM54.0802 71.955C54.0645 71.9479 54.0502 71.955 54.0373 71.9451L53.7997 71.5339C53.8756 71.3019 54.0616 71.4698 54.1518 71.6135C54.1217 71.7245 54.0716 71.8227 54.0802 71.955ZM57.0896 71.6363C56.8964 71.652 56.6145 71.7274 56.5787 71.8796C56.6031 71.8256 56.9451 71.6975 56.9107 71.9707C56.8549 71.9707 56.8335 72.012 56.8449 72.0603C56.7719 72.0233 56.6431 72.0831 56.5458 72.0859C56.6174 71.9806 56.3727 71.9579 56.1666 71.9493C55.982 71.9408 55.9849 71.8654 55.8432 71.881C55.7531 71.891 55.713 71.9337 55.5914 71.9479C55.4669 71.864 55.142 71.9721 55.142 71.9721C55.1506 71.9536 55.1435 71.9266 55.132 71.9081C55.2923 71.9024 55.318 71.7131 55.4382 71.7729C55.577 71.6875 55.6414 71.4001 55.7488 71.4585C55.8074 71.4898 55.8561 71.6093 55.7259 71.6434C55.889 71.7103 55.9734 71.4855 55.8933 71.3304C55.8475 71.2393 55.7674 71.1938 55.6672 71.1995C55.5542 71.2052 55.5355 71.1668 55.4568 71.1781C55.2522 71.2066 55.1578 71.5694 54.9889 71.7131C54.9188 71.7729 54.8057 71.7843 54.7371 71.8512C54.6354 71.9522 54.6455 72.1258 54.5496 72.224C54.5353 72.0575 54.6025 71.8199 54.4437 71.6975C54.6841 71.5524 54.6569 71.0273 54.9245 71.0985C55.0018 71.1198 55.0075 71.2607 54.8973 71.3076C55.1635 71.3603 55.1835 70.8125 54.9488 70.7399C54.9145 70.7285 54.9088 70.7783 54.8744 70.7812C54.8115 70.7854 54.7471 70.7726 54.6855 70.7911C54.6254 70.8096 54.5911 70.868 54.531 70.8865C54.4551 70.9178 54.4008 70.868 54.3235 70.9106C54.0845 71.0444 54.229 71.3133 54.1747 71.5339C54.0688 71.42 54.1689 71.1682 54.0258 71.0914C53.9371 71.0444 53.8427 70.8865 53.7439 70.9419C53.6452 70.996 53.5064 70.9462 53.5293 71.097L52.0625 68.6099L51.6718 67.9454C51.7248 67.776 51.752 67.315 51.669 67.0703C51.9953 67.0433 52.2586 66.9792 52.4045 66.928C52.6049 67.0575 52.8481 67.2951 52.8596 67.6096C52.8624 67.6978 52.9497 67.6949 52.9626 67.8116C52.9769 67.934 52.9712 68.0962 53.0227 68.2285C53.0785 68.3722 53.163 68.311 53.2531 68.4206C53.3733 68.5657 53.7783 68.1901 53.9729 68.1531C53.9114 68.1801 53.9414 68.2897 54.0344 68.2442C54.7871 67.8756 55.0647 68.8005 55.3223 68.8845C55.537 68.9542 55.5313 69.1178 55.6157 69.2473C55.8833 69.6599 56.3899 69.8335 56.6503 70.3372C56.2925 70.3415 56.2854 70.7911 56.4872 70.9348C56.387 70.747 56.5115 70.4838 56.7648 70.6289C56.7877 70.6047 56.7948 70.5521 56.7719 70.5194C56.8549 70.5549 56.8864 70.6801 56.9436 70.7598C56.6904 70.7997 56.5945 71.1269 56.8077 71.2607C56.7133 70.9291 57.0467 71.0387 57.1154 71.0003C57.1855 71.0842 57.2141 71.2379 57.2527 71.3759C57.1955 71.4613 57.0996 71.5253 57.0896 71.6363Z" fill="#081828"/>
<path d="M91.232 75.8907C91.1476 75.5791 90.933 75.3472 90.6825 75.2504C90.6783 75.0242 90.5895 74.8833 90.5137 74.8051C90.4135 74.704 90.2933 74.6585 90.1989 74.6386C89.2172 72.6167 87.1895 71.366 85.0129 71.3774C84.7124 71.3802 84.6037 71.1369 84.1529 71.1013C84.2445 71.0515 84.316 70.9846 84.3561 70.8808C84.4334 70.6816 84.2645 70.4938 84.1214 70.3956C84.2774 70.4696 84.5278 70.5208 84.6623 70.3543C84.8698 70.0996 84.7468 70.0299 84.5636 69.3483C84.3804 68.6668 84.4505 68.5458 84.1429 68.4277C83.9425 68.3509 83.7522 68.5188 83.6549 68.6611C83.7293 68.5046 83.7808 68.257 83.6134 68.1232C83.3601 67.9183 83.0381 68.0962 82.5473 68.23C82.0565 68.358 81.6873 68.3651 81.5714 68.6682C81.4941 68.866 81.663 69.0552 81.8061 69.1534C81.6501 69.0794 81.3997 69.0282 81.2651 69.1947C81.0576 69.4494 81.1807 69.5191 81.3639 70.2006C81.5471 70.8822 81.4769 71.0031 81.7846 71.1212C81.9835 71.1981 82.1753 71.0302 82.2726 70.8879C82.1982 71.0444 82.1466 71.292 82.3141 71.4257C82.3999 71.4969 82.4972 71.5211 82.606 71.5168C82.2354 71.7701 82.2611 72.0347 81.9992 72.1813C80.1103 73.2527 78.9841 75.3443 79.1501 77.5825C79.0786 77.6466 78.9956 77.7462 78.9598 77.8842C78.9326 77.9895 78.9269 78.1559 79.0385 78.3537C78.8682 78.5615 78.7981 78.8702 78.8825 79.1818C78.9641 79.4849 79.1702 79.7154 79.4134 79.815C79.4549 80.0626 79.5608 80.2405 79.7297 80.3415C79.8728 80.4269 80.0273 80.434 80.1404 80.4197C80.3121 80.6744 80.5053 80.9049 80.7113 81.1227C80.6927 81.5737 80.5282 81.9465 80.189 82.2453C78.1713 84.0139 70.9505 82.8799 70.6958 80.9604C71.2038 81.4229 72.0566 81.7757 72.1096 81.7957C72.0939 81.7672 71.7189 81.1909 71.7146 80.7299C72.6963 81.7914 74.3634 81.4015 74.3634 81.4015C74.3634 81.4015 72.5847 80.1309 72.8652 78.6227C73.3245 79.0168 74.4478 79.3255 75.1061 79.1434C76.6187 78.7208 76.8863 77.0561 76.809 76.3688C76.1665 77.9624 74.8958 77.5896 74.5223 76.6349C73.6622 74.4394 74.3362 72.4531 71.6202 71.42C70.5312 71.006 69.0945 71.2621 69.0945 71.2621C69.1803 71.0999 69.5152 70.2504 69.5352 70.1978C67.0295 72.0988 65.2895 70.5236 65.1206 70.1807C65.8204 70.3031 66.3541 70.2206 66.3541 70.2206C65.2809 69.2971 64.086 67.5982 64.199 65.1907C64.7571 67.8429 66.9852 69.051 66.9852 69.051C66.9852 69.051 68.0699 67.0362 68.0756 65.9149C69.083 67.8629 71.5443 68.5202 71.5443 68.5202C71.5443 68.5202 72.7364 66.3418 72.2169 64.6215C72.2083 64.5959 72.2012 64.5717 72.194 64.5461C73.3188 66.8014 74.9015 67.786 77.1625 67.7988C77.1625 67.7988 77.9309 65.138 76.7904 63.294C79.0728 65.6674 82.0493 64.8762 82.0579 64.8734C82.0579 64.8734 82.5931 62.6295 80.6055 60.397C83.6606 62.1785 86.0461 60.8381 86.0461 60.8381C86.0461 60.8381 85.7871 58.5003 83.7265 57.2738C86.7273 58.1233 88.5475 56.5424 88.5475 56.5424C88.5475 56.5424 88.1883 54.5006 86.1019 53.6199C89.5821 53.4278 90.7541 51.4642 90.7541 51.4642C90.7541 51.4642 88.7221 49.2602 85.9359 49.041C90.1345 47.8131 90.4321 45.0485 90.4321 45.0485C90.4321 45.0485 88.2627 44.2374 85.0702 44.7553C90.9831 41.8399 89.8755 38.8091 89.8755 38.8091C89.8755 38.8091 86.1477 39.633 83.4102 40.7869C88.3543 37.8615 88.9167 35.4568 87.8892 33.4492C87.8892 33.4492 84.0828 35.4597 82.7147 36.2494C87.7232 31.7773 85.883 28.0963 85.883 28.0963C85.3564 28.6285 82.1452 30.0556 80.6799 31.6563C83.8653 27.5399 84.3861 24.5106 82.1896 22.419C82.1896 22.419 78.635 26.5311 78.4318 26.7858C79.5107 24.3157 80.0946 21.8285 79.515 19.7042C78.9297 17.5585 76.3554 16.4088 76.3554 16.4088C76.3554 16.4088 74.9487 20.5294 74.2332 23.0778C73.0655 27.2326 72.081 29.7995 71.7604 30.2064C71.5315 29.9233 71.0549 29.5533 71.0549 29.5533C70.9376 30.9506 69.6282 34.744 68.6223 35.9449C68.3604 35.4511 67.8008 34.7667 67.8008 34.7667C67.8309 36.0544 64.1218 41.4372 63.4277 43.1788C62.529 45.4312 63.0685 47.224 64.8172 48.1105C66.9866 49.2089 66.1853 51.3219 65.5914 52.0931C64.3936 53.6483 62.7723 53.1916 61.1882 52.7377C60.8934 52.6537 60.6072 52.5712 60.3253 52.5029C61.0766 52.0291 61.5216 51.4372 61.6418 50.7385C61.8679 49.4295 61.0923 48.4676 60.6745 48.0109C58.6596 50.9705 55.4742 49.0197 55.447 48.9984C57.9312 49.1563 58.8371 47.0775 58.1302 46.0971C58.1302 46.0971 57.7152 47.1387 56.2513 47.133C55.1966 47.1273 54.2722 46.3675 53.6568 44.8791C52.3561 41.746 54.5412 38.193 55.1222 37.3322C55.168 37.3905 55.2467 37.4531 55.3655 37.4731C55.6173 37.5214 55.9364 37.3848 56.3428 37.0561C57.0526 36.4856 59.0031 35.5465 60.2609 36.2494C61.8293 37.1244 61.4973 38.0081 61.4973 38.0081C62.0697 37.3692 62.2285 36.8669 62.0597 36.201C61.9781 35.8723 61.772 35.6219 61.4644 35.4412C61.0752 35.2107 60.4169 35.1296 59.9189 35.0912C60.3511 35.0954 61.0451 35.1623 61.5746 35.2946C63.9572 35.8894 64.7657 35.8581 65.8075 35.3601C67.4159 34.5931 67.0682 32.0291 67.0496 31.9025C67.0267 31.9936 66.6375 33.4819 65.1807 33.9016C63.9758 34.2502 60.9578 33.4179 59.2764 33.9671C59.74 33.4876 61.1324 32.7576 62.0525 32.7036C63.5322 32.6139 64.159 33.3496 64.159 33.3496C64.159 33.3496 65.7159 30.5123 63.4334 28.9927C61.8708 27.9512 60.7432 28.3026 60.2581 28.5559C60.1579 28.2386 59.989 28.038 59.7543 27.9597C59.5554 27.8928 59.3494 27.9355 59.1762 28.0195C59.1319 27.8729 59.0675 27.7577 58.9759 27.6694C63.6138 25.8965 64.9245 23.573 62.6707 20.5664C62.3888 20.1894 61.5531 19.1208 61.8951 18.1262C62.24 18.1817 62.9741 18.3595 63.91 18.3695C65.1478 18.3823 66.0464 19.1023 66.1581 20.5721C66.2611 21.9153 65.3724 22.7662 65.7173 24.0368C66.0135 25.1267 67.0524 25.6987 67.5977 26.339C68.4634 27.3521 67.7393 28.8789 67.7035 28.9557C67.7465 28.9315 69.1274 28.1205 69.4479 26.9921C69.7213 26.0303 69.229 25.4142 68.3604 24.7696C67.8366 24.3826 67.7665 24.0368 67.7751 23.7907C68.1672 24.2175 69.2433 25.0442 70.7745 23.9415C71.5959 23.3524 72.2126 24.1791 71.5973 24.9176C72.2355 24.5789 72.7435 23.8006 72.4659 22.7847C72.3414 22.3294 72.1525 22.0548 71.7375 21.8371C71.1523 21.5368 70.6815 21.8428 70.3137 22.1046C69.883 22.4147 69.2905 22.705 69.1846 22.0846C69.0902 21.5311 69.8271 20.787 70.0561 20.2136C70.4081 19.3356 70.4811 18.5858 69.5925 17.6381C68.7467 16.7346 66.3741 16.8897 65.9248 16.9281C65.6028 16.7332 64.0459 15.7514 63.2961 15.3004C62.2085 14.643 61.2326 14.9617 60.6101 15.8169C60.0577 16.5781 59.6384 16.8726 59.2721 17.1757C57.5778 18.5844 59.4381 20.7414 60.1464 21.6407C60.726 22.3792 61.2741 23.075 61.4644 23.8035C61.5975 24.2944 61.4644 25.8425 58.6239 27.1942C58.4622 26.1498 58.4206 25.1367 58.4865 23.9031C58.5394 22.9384 58.236 22.2013 57.7309 21.7247C57.22 21.2466 56.1826 21.3021 55.2066 21.47C55.2066 21.47 55.2581 21.8584 55.2939 22.1771L54.9834 22.2298C54.9405 21.9737 54.8818 21.6208 54.4968 21.5966C54.7029 21.4429 54.7845 21.1157 54.7158 20.8595C54.6514 20.6219 54.4868 20.4085 54.2693 20.2975L54.2665 20.2961C54.3108 20.2676 54.3423 20.2249 54.3695 20.1509C54.4253 20.0072 54.3022 19.8706 54.1992 19.7995C54.3122 19.8521 54.4926 19.8906 54.5899 19.771C54.7387 19.5875 54.6514 19.5363 54.5197 19.0454C54.3867 18.5545 54.4367 18.4663 54.2164 18.3809C54.0718 18.3254 53.9345 18.4478 53.8629 18.5502C53.9159 18.4378 53.9545 18.2585 53.8343 18.1618C53.6497 18.0138 53.4179 18.1447 53.063 18.2386C52.7067 18.3339 52.4405 18.3354 52.3561 18.5559C52.3003 18.6996 52.4233 18.8362 52.5264 18.9074C52.4133 18.8547 52.233 18.8163 52.1357 18.9358C51.9869 19.1194 52.0742 19.1706 52.2058 19.6615C52.3389 20.1524 52.2888 20.2406 52.5092 20.326C52.6537 20.3815 52.7911 20.2591 52.8626 20.1566C52.8097 20.269 52.7711 20.4483 52.8913 20.5451C52.9528 20.5949 53.0014 20.6162 53.053 20.6191L53.0515 20.6219C52.9199 20.8268 52.8827 21.0929 52.9471 21.3305C53.0158 21.5866 53.2519 21.8299 53.508 21.8598C53.1861 22.0718 53.3134 22.4062 53.405 22.6495L53.1088 22.7577C52.98 22.4645 52.8283 22.1017 52.8283 22.1017C51.8996 22.4418 50.9723 22.9085 50.7705 23.5772C50.5716 24.2403 50.6818 25.03 51.2113 25.8382C51.8567 26.8242 52.3146 27.6851 52.6909 28.6171C49.0447 28.6825 46.177 27.2525 45.1009 26.6265L44.6473 25.0086C44.8619 24.3684 46.4217 19.448 44.3096 17.9284C43.1733 17.1117 41.3045 17.1658 40.8279 17.1942C40.7149 17.079 40.5432 16.9979 40.2813 17.0277C39.8591 17.0733 39.6488 17.308 39.6559 17.7463L39.2166 17.8018L39.0936 17.1515L38.929 17.2383C39.1594 16.9153 39.251 16.497 39.1394 16.0858C39.0206 15.6447 38.6957 15.3103 38.2936 15.1609C38.3895 15.1097 38.4611 15.0414 38.5026 14.9361C38.5798 14.7383 38.411 14.5491 38.2679 14.4509C38.4239 14.5249 38.6743 14.5761 38.8088 14.4111C39.0134 14.1578 38.8932 14.0838 38.7101 13.4037C38.5269 12.7221 38.5956 12.6012 38.2893 12.4831C38.0904 12.4062 37.8987 12.5741 37.8014 12.7164C37.8758 12.5613 37.9273 12.3123 37.7599 12.1786C37.5051 11.9751 37.1832 12.1544 36.6909 12.2853C36.2001 12.4162 35.8295 12.4205 35.7107 12.7235C35.6334 12.9227 35.8051 13.112 35.9468 13.2087C35.7894 13.1347 35.539 13.0835 35.4044 13.25C35.1998 13.5033 35.32 13.5744 35.5032 14.256C35.6864 14.9375 35.6191 15.0599 35.9239 15.178C36.1228 15.2534 36.3146 15.0841 36.4133 14.9418C36.3389 15.0983 36.2859 15.3459 36.4534 15.4796C36.5407 15.5508 36.638 15.5736 36.7467 15.5707C36.4763 15.8994 36.3604 16.3504 36.4791 16.7915C36.5907 17.2027 36.8798 17.52 37.2433 17.6851L37.0558 17.6922L37.2776 18.3169L36.8669 18.4876C36.6537 18.1034 36.3532 18.0053 35.9668 18.1746C35.7236 18.2799 35.6148 18.435 35.5747 18.5915C35.1469 18.8035 33.5026 19.6857 32.9288 20.9577C32.2405 22.4859 33.5942 24.4808 34.7734 25.8225C34.7691 25.841 34.7662 25.8524 34.7662 25.8524L34.7762 25.8268C35.4216 26.561 36.0169 27.1003 36.1958 27.2582L36.6165 28.8846C35.9997 29.9617 34.2367 32.6239 31.0442 34.3826C30.9011 33.388 30.8653 32.4147 30.9268 31.2394C30.9798 30.2747 30.6764 29.5377 30.1713 29.061C29.6604 28.5829 28.6229 28.6384 27.647 28.8063C27.647 28.8063 27.6985 29.1948 27.7343 29.5135L27.4238 29.5661C27.3808 29.31 27.3222 28.9571 26.9372 28.9329C27.1433 28.7793 27.2248 28.452 27.1562 28.1959C27.0918 27.9583 26.9272 27.7448 26.7097 27.6339L26.7068 27.6324C26.7512 27.604 26.7827 27.5613 26.8099 27.4873C26.8657 27.3436 26.7426 27.207 26.6396 27.1359C26.7526 27.1885 26.9329 27.2269 27.0302 27.1074C27.1791 26.9238 27.0918 26.8726 26.9601 26.3817C26.827 25.8908 26.8771 25.8026 26.6567 25.7172C26.5122 25.6618 26.3748 25.7841 26.3033 25.8866C26.3562 25.7742 26.3949 25.5949 26.2747 25.4981C26.0901 25.3501 25.8582 25.481 25.5034 25.575C25.147 25.6703 24.8809 25.6717 24.7964 25.8923C24.7406 26.036 24.8637 26.1726 24.9667 26.2437C24.8537 26.1911 24.6734 26.1526 24.5761 26.2722C24.4272 26.4557 24.5145 26.5069 24.6462 26.9978C24.7793 27.4887 24.7292 27.5769 24.9496 27.6623C25.0941 27.7178 25.2315 27.5954 25.303 27.493C25.2501 27.6054 25.2114 27.7847 25.3316 27.8814C25.3932 27.9312 25.4418 27.9526 25.4933 27.9554L25.4919 27.9583C25.3603 28.1632 25.323 28.4292 25.3874 28.6669C25.4561 28.923 25.6922 29.1663 25.9484 29.1962C25.6264 29.4082 25.7538 29.7426 25.8454 29.9859L25.5491 30.094C25.4204 29.8009 25.2687 29.4381 25.2687 29.4381C24.34 29.7781 23.4127 30.2448 23.2109 30.9136C23.012 31.5767 23.1222 32.3663 23.6516 33.1745C24.3285 34.2104 24.8022 35.1082 25.1871 36.0929C22.0475 36.3348 21.1545 35.0599 21.0229 34.569C20.8211 33.8433 20.9442 32.9682 21.0758 32.0405C21.2361 30.9093 21.7627 28.1162 19.5876 27.7392C19.1182 27.658 18.6074 27.6125 17.7459 27.2269C16.7771 26.7958 15.7711 27.0049 15.1601 28.1148C14.7365 28.8789 13.8822 30.5024 13.7019 30.8311C13.2941 31.0217 11.1619 32.0661 10.8828 33.2699C10.5895 34.532 11.0302 35.1452 11.7758 35.73C12.2623 36.1128 13.2755 36.3902 13.4715 36.9167C13.6904 37.5072 13.0322 37.5499 12.5027 37.4958C12.052 37.4517 11.4896 37.4204 11.1347 37.9725C10.8828 38.3666 10.8585 38.6996 10.9801 39.1549C11.2506 40.1722 12.0806 40.5934 12.8047 40.5707C11.9003 40.2377 12.019 39.2147 13.0265 39.3171C14.9068 39.5106 15.422 38.2585 15.5479 37.695C15.6795 37.9042 15.7926 38.2371 15.5336 38.8333C15.1043 39.8236 14.9898 40.602 15.7096 41.2992C16.5539 42.1173 18.1595 42.133 18.2081 42.133C18.1394 42.0846 16.7442 41.1227 16.9846 39.8137C17.1349 38.9884 17.7473 37.9768 17.4554 36.8854C17.1148 35.6148 15.9171 35.3188 15.3318 34.1037C14.6893 32.7761 15.1057 31.7061 16.1704 31.0786C16.9746 30.6048 17.5227 30.0869 17.7931 29.8664C18.5888 30.5579 18.4027 31.8982 18.3484 32.3649C17.9062 36.0886 20.2115 37.4489 25.1198 36.6791C25.0855 36.8 25.0869 36.9324 25.1227 37.0803C24.9295 37.0931 24.7306 37.1586 24.5918 37.3165C24.4287 37.5015 24.3829 37.7576 24.4559 38.0835C23.9078 38.1048 22.7544 38.3609 21.9244 40.0399C20.7109 42.4915 23.4871 44.1748 23.4871 44.1748C23.4871 44.1748 23.6602 43.2257 24.9853 42.5684C25.8096 42.1586 27.3823 42.0988 28.0248 42.2838C26.2918 42.6452 24.0967 44.8663 22.8775 45.1623C21.405 45.5223 20.3188 44.4281 20.253 44.3598C20.3002 44.4779 21.2876 46.8726 23.0664 46.736C24.2183 46.6492 24.9338 46.275 26.6982 44.5761C27.0889 44.1976 27.657 43.7963 28.0291 43.5772C27.6155 43.8589 27.0875 44.2559 26.8671 44.6486C26.6925 44.9588 26.6396 45.2761 26.734 45.6034C26.9229 46.2636 27.3121 46.6207 28.1292 46.8897C28.1292 46.8897 27.3966 46.2906 28.3153 44.7525C29.0508 43.5174 31.2116 43.3623 32.1131 43.5032C32.6312 43.5857 32.9746 43.5459 33.1692 43.378C33.2608 43.3026 33.298 43.2087 33.308 43.1347C34.2453 43.5914 37.9244 45.582 38.3723 48.9414C38.587 50.5351 38.1691 51.6534 37.2576 52.1828C35.9926 52.9155 35.1097 52.2197 35.1097 52.2197C34.9923 53.4207 36.8197 54.771 38.8932 53.3979C38.8803 53.4292 37.1016 56.7018 33.869 55.1409C33.7359 55.7442 33.5484 56.9636 34.4027 57.9838C34.8578 58.5288 35.5418 58.8205 36.4305 58.8575C36.2215 59.0567 36.014 59.2701 35.8023 59.4892C34.6575 60.6702 33.4855 61.8711 31.6652 61.1198C30.7637 60.747 29.0064 59.3171 30.333 57.2866C31.4019 55.6489 30.9669 53.829 29.0565 52.325C27.5797 51.1611 21.6611 48.3438 21.0401 47.2141C21.0401 47.2141 20.8998 48.0849 20.9213 48.6426C19.4474 48.1019 16.4051 45.4682 15.6008 44.3171C15.6008 44.3171 15.3747 44.8749 15.3175 45.2334C14.8352 45.0413 12.6916 43.3068 9.59206 40.2889C7.6917 38.4378 4.4004 35.5692 4.4004 35.5692C4.4004 35.5692 2.74759 37.8444 3.31999 39.9944C3.88667 42.1216 5.6425 43.9856 7.81906 45.5891C7.51568 45.4682 2.36838 43.6754 2.36838 43.6754C1.51836 46.578 3.49314 48.9429 8.32134 50.9249C6.24925 50.2676 2.74902 50.6275 2.02637 50.4283C2.02637 50.4283 2.28395 54.5319 8.86941 55.9135C7.28672 55.9093 2.97941 56.0601 2.97941 56.0601C3.09819 58.3097 4.79535 60.1124 10.548 60.1879C7.59868 60.5493 3.95536 61.689 3.95536 61.689C3.95536 61.689 4.5206 64.8649 11.1061 64.4494C8.08093 65.5877 6.60986 67.3691 6.60986 67.3691C6.60986 67.3691 7.48277 68.5558 9.5935 68.8105L10.5666 68.7507L10.5151 69.0965C10.3848 69.0808 10.2646 69.152 10.2475 69.1605C10.2446 69.1591 10.2389 69.1605 10.2317 69.1605C10.2203 69.1591 10.206 69.1605 10.1917 69.1719C10.1702 69.1861 10.1616 69.2189 10.1788 69.2445L10.1473 69.263L10.1158 69.2174L10.1144 69.2203L10.1058 69.2288C10.1258 69.142 10.0614 69.0965 10.0113 69.0951C10.0028 69.0951 9.99418 69.0936 9.98702 69.0951C9.98988 69.0894 9.98845 69.0865 9.99131 69.0808C9.99131 69.0794 9.99418 69.0751 9.99274 69.0723C9.99274 69.0638 9.98845 69.0566 9.9813 69.0524C9.97557 69.0481 9.96699 69.0453 9.96269 69.0453C9.97128 69.0453 9.97987 69.0424 9.98702 69.0382C9.98845 69.0382 9.98988 69.0325 9.99131 69.0325C9.99418 69.0296 9.99847 69.0268 9.9999 69.0211C10.0013 69.0168 9.9999 69.014 9.9999 69.0125C10.0013 68.9955 9.98845 68.9869 9.95697 68.9485C9.95268 68.9428 9.94981 68.94 9.94695 68.9343C9.92263 68.9016 9.91833 68.893 9.89544 68.8944C9.88542 68.8944 9.87826 68.9016 9.87397 68.9087C9.87111 68.9158 9.86825 68.9215 9.86682 68.9272C9.86682 68.9201 9.86682 68.9172 9.86395 68.9101L9.86252 68.9044C9.85966 68.8959 9.85394 68.8902 9.84535 68.8902C9.84392 68.8902 9.84392 68.8902 9.84106 68.8916C9.82102 68.8888 9.79813 68.9087 9.77523 68.9286C9.7738 68.9314 9.76951 68.9329 9.76808 68.9343C9.74232 68.9556 9.72372 68.9699 9.71513 68.9869C9.7137 68.9912 9.71084 68.994 9.70941 68.9997C9.71084 69.004 9.7137 69.0054 9.7137 69.0069C9.71942 69.0182 9.7323 69.0253 9.74375 69.0296C9.7366 69.0296 9.72515 69.0325 9.71656 69.041C9.71084 69.0453 9.70654 69.0453 9.70368 69.051C9.69796 69.0766 9.70798 69.078 9.74661 69.1235C9.74661 69.1235 9.74661 69.1235 9.74661 69.1249C9.78096 69.1676 9.78382 69.1819 9.80815 69.1776C9.82532 69.1747 9.83247 69.1619 9.83534 69.1506C9.83534 69.1491 9.83677 69.1463 9.8382 69.1434C9.8382 69.1506 9.83963 69.1563 9.84106 69.1619C9.84106 69.1634 9.84106 69.1634 9.84249 69.1662C9.84249 69.1676 9.84535 69.1676 9.84535 69.1691C9.84965 69.1747 9.85251 69.1804 9.85966 69.1819C9.86396 69.1833 9.86825 69.1819 9.87397 69.1804C9.87826 69.179 9.88256 69.1804 9.88399 69.1776C9.86968 69.2203 9.88828 69.3142 9.99131 69.3199L9.97987 69.327L10.0185 69.3654L9.99274 69.391L9.98988 69.3896C9.97557 69.374 9.93837 69.3683 9.91547 69.3996C9.90259 69.4138 9.8983 69.4252 9.89973 69.438C9.89973 69.4394 9.8983 69.4422 9.89973 69.4451C9.88685 69.4593 9.85823 69.4963 9.83247 69.5461C9.80385 69.5945 9.78239 69.6543 9.78239 69.7112C9.78382 69.7951 9.84535 69.8634 9.92406 69.9189C9.99847 69.9744 10.0872 70.0142 10.1544 70.0399C10.1974 70.0555 10.2317 70.0683 10.2432 70.0726L10.329 70.1779C10.3247 70.2476 10.3018 70.387 10.236 70.5436C10.2031 70.6204 10.1602 70.7015 10.1015 70.7812C10.0142 70.673 10.0099 70.4881 9.89973 70.4297C9.88685 70.4198 9.87254 70.4155 9.85394 70.4112C9.80815 70.4013 9.74661 70.4269 9.70511 70.4482C9.67649 70.4639 9.65646 70.4767 9.65646 70.4767C9.65646 70.4767 9.6722 70.5051 9.68651 70.5265L9.67792 70.5336L9.66505 70.5436C9.66218 70.5407 9.66075 70.5364 9.65789 70.5322C9.64787 70.5179 9.6307 70.5037 9.61496 70.508C9.61067 70.5094 9.60494 70.5123 9.60208 70.5151C9.60924 70.5023 9.6121 70.4866 9.60781 70.4724C9.60781 70.4724 9.60924 70.4696 9.60924 70.4681C9.60924 70.4667 9.60638 70.4653 9.60494 70.4625C9.60208 70.4539 9.59779 70.4496 9.59063 70.4425C9.58777 70.4397 9.58634 70.4354 9.58205 70.4326C9.57346 70.4269 9.56201 70.4226 9.54914 70.4226C9.5477 70.4226 9.54627 70.4212 9.54484 70.4212C9.5477 70.4183 9.54913 70.4141 9.5477 70.407C9.54913 70.4027 9.54484 70.3984 9.54198 70.3956C9.53626 70.3913 9.53196 70.387 9.52481 70.387C9.52624 70.3842 9.52624 70.3842 9.5291 70.3856C9.53769 70.3828 9.54913 70.3828 9.55343 70.37C9.55486 70.3586 9.55343 70.3543 9.5477 70.3486C9.54341 70.3415 9.53482 70.3344 9.52195 70.3187C9.51765 70.3131 9.51622 70.3116 9.51479 70.3074C9.49762 70.286 9.49333 70.2761 9.47615 70.2775C9.46184 70.2789 9.45612 70.2931 9.45469 70.3031C9.45326 70.2988 9.45469 70.2946 9.45326 70.2903C9.4504 70.2817 9.44753 70.2775 9.43895 70.2746C9.43179 70.2746 9.42464 70.2789 9.41891 70.2817C9.41319 70.286 9.40746 70.2874 9.40174 70.2931C9.39459 70.2974 9.38886 70.3031 9.38314 70.3059C9.36024 70.3244 9.33878 70.3344 9.34021 70.3543C9.34164 70.3586 9.3445 70.36 9.3445 70.3614C9.34879 70.3685 9.35881 70.3728 9.36597 70.3757C9.36597 70.3757 9.36454 70.3757 9.36167 70.3771C9.36024 70.3771 9.35738 70.3757 9.35452 70.3771C9.34593 70.3799 9.34164 70.3842 9.33735 70.3927C9.33448 70.4041 9.33735 70.4098 9.34736 70.4226C9.35309 70.4269 9.35881 70.434 9.36883 70.4454C9.39459 70.4767 9.39459 70.4852 9.41319 70.4852C9.41462 70.4852 9.41462 70.4824 9.41605 70.4824C9.42178 70.4809 9.42607 70.4781 9.42893 70.4724C9.43036 70.4696 9.43322 70.4653 9.43465 70.4625C9.43322 70.4667 9.43466 70.471 9.43609 70.4753C9.43752 70.4809 9.44181 70.4866 9.44896 70.4895C9.4504 70.4895 9.4504 70.4895 9.4504 70.4895C9.45755 70.4923 9.46327 70.4909 9.46327 70.4909C9.45898 70.5222 9.48188 70.5734 9.54055 70.5692C9.52338 70.5948 9.54484 70.6147 9.55915 70.6304L9.5477 70.6417L9.54198 70.6503C9.52195 70.6318 9.49905 70.6104 9.49905 70.6104C9.47043 70.6375 9.4461 70.6702 9.42893 70.7001C9.41319 70.7285 9.40174 70.757 9.39745 70.784C9.39602 70.7869 9.39459 70.7897 9.39459 70.7911C9.38886 70.8352 9.39888 70.8694 9.41462 70.8979C9.46614 70.996 9.61639 71.0245 9.71942 71.1127C9.61925 71.1739 9.54055 71.191 9.47615 71.1796C9.47472 71.1796 9.469 71.1796 9.46614 71.1796C9.46041 71.1767 9.45612 71.1739 9.45183 71.1725C9.40747 71.1582 9.37455 71.1326 9.34736 71.0971C9.31445 71.0544 9.28869 71.0017 9.27438 70.9477C9.24862 70.858 9.19138 70.6318 9.01394 70.6759L9.00392 70.6787C8.92379 70.6958 8.86082 70.693 8.80931 70.7072C8.74634 70.7243 8.70198 70.7726 8.69626 70.8552C8.69483 70.868 8.6934 70.8865 8.69197 70.905C8.69054 70.9292 8.68767 70.9548 8.68767 70.9832C8.68338 71.0373 8.68052 71.0899 8.68052 71.107L8.66907 71.1099C8.64045 71.117 8.61183 71.1383 8.59036 71.1696C8.52597 71.2593 8.5088 71.4186 8.62185 71.4997C8.64331 71.5168 8.67193 71.531 8.70628 71.5396C8.73346 71.5467 8.7721 71.5453 8.80788 71.5495C8.83507 71.5538 8.85939 71.5566 8.8737 71.5709C8.90089 71.5993 8.88086 71.6207 8.85224 71.6349C8.84222 71.6392 8.83077 71.6449 8.82076 71.6477C8.78498 71.6591 8.74205 71.6776 8.73346 71.7302C8.73203 71.7473 8.7306 71.7615 8.7349 71.7743C8.73919 71.7928 8.75064 71.8071 8.76352 71.8227C8.80788 71.8754 8.8737 71.8882 8.9338 71.8711L8.94955 71.8668C8.94096 71.8668 8.93524 71.864 8.92951 71.864C8.86941 71.854 8.85224 71.79 8.92236 71.7658C8.94811 71.7587 8.96958 71.7473 8.98532 71.7359C9.06689 71.6804 9.06403 71.5965 9.05544 71.5581C9.06116 71.5623 9.06689 71.5695 9.07404 71.5766C9.07834 71.5837 9.0812 71.5965 9.08692 71.6093C9.08978 71.6193 9.09408 71.6292 9.09408 71.6434C9.09408 71.7103 9.10553 71.7644 9.14416 71.7971C9.15561 71.8071 9.17135 71.817 9.19139 71.8227C9.30873 71.8583 9.4046 71.8 9.40747 71.8C9.40031 71.7971 9.26293 71.7743 9.23575 71.6676C9.23145 71.6534 9.23002 71.6377 9.22716 71.6207C9.22716 71.6107 9.2243 71.6008 9.22287 71.5894C9.21857 71.541 9.20713 71.4926 9.17851 71.4485C9.17421 71.4428 9.17278 71.4371 9.16992 71.4314C9.15132 71.4087 9.12985 71.393 9.10696 71.3816C9.06259 71.3589 9.01108 71.3475 8.96099 71.3219C8.94668 71.3148 8.92951 71.3062 8.9152 71.2963C8.82076 71.218 8.81503 71.1241 8.8737 71.0401C8.88372 71.0273 8.89087 71.0145 8.8966 71.0003C8.91234 70.9775 8.92379 70.9562 8.9338 70.9363C8.94096 70.922 8.94955 70.905 8.95241 70.895C8.98675 70.905 9.01108 70.9306 9.02968 70.9576C9.0583 70.9975 9.07261 71.043 9.07977 71.0643C9.0998 71.1255 9.12842 71.171 9.15847 71.2109C9.23002 71.2991 9.33019 71.3276 9.45898 71.2934C9.51479 71.2778 9.57775 71.2465 9.64501 71.2095C9.67506 71.1924 9.70368 71.1796 9.7366 71.1568C9.7366 71.1668 9.74232 71.1767 9.75091 71.1867C9.70511 71.2009 9.69653 71.255 9.73373 71.2835C9.69653 71.3048 9.62355 71.3603 9.61353 71.5012C9.6121 71.5054 9.6121 71.5097 9.61067 71.5168C9.60924 71.5424 9.61353 71.5652 9.61925 71.5879C9.66218 71.7473 9.86968 71.7743 9.86968 71.7743C9.86968 71.7743 9.86395 71.7544 9.86825 71.7231C9.87111 71.716 9.87397 71.7046 9.87826 71.6947C9.88542 71.6676 9.89973 71.6377 9.92692 71.6022C9.93121 71.5965 9.94123 71.5894 9.94838 71.5837C9.97414 71.5581 10.0113 71.5353 10.05 71.514C10.0829 71.4983 10.1172 71.4855 10.1459 71.4784L10.1444 71.4812C10.1373 71.4855 10.1316 71.4912 10.1244 71.4969C9.99561 71.6022 9.93264 71.8654 9.78382 71.9038C9.7738 71.9067 9.76522 71.9067 9.7552 71.9095C9.74661 71.9095 9.73803 71.9124 9.7323 71.9138C9.72801 71.9124 9.72372 71.9124 9.72085 71.9124C9.67363 71.9124 9.63786 71.8981 9.63213 71.8967C9.63786 71.8996 9.67506 71.9351 9.72801 71.9636C9.73087 71.965 9.73373 71.9664 9.73516 71.9679C9.74518 71.9721 9.75234 71.9764 9.76235 71.9807C9.76951 71.9835 9.77523 71.9864 9.78096 71.9864C9.78811 71.9892 9.79527 71.9906 9.80385 71.9935C9.81101 71.9963 9.81959 71.9963 9.82675 71.9977C9.8339 71.9977 9.83963 71.9992 9.84678 71.9992C9.85394 71.9992 9.86109 71.9977 9.86968 71.9977C9.8754 71.9963 9.88256 71.9963 9.88971 71.9949C9.89973 71.992 9.90832 71.9849 9.91833 71.9835C10.0099 71.9465 10.0571 71.8654 10.1215 71.6961C10.1387 71.6548 10.1688 71.6064 10.1888 71.578C10.1187 71.7502 10.2317 71.8426 10.309 71.8227C10.309 71.8227 10.2389 71.8028 10.2518 71.6562C10.2603 71.5282 10.4192 71.4528 10.4936 71.4329C10.5337 71.4215 10.5938 71.4101 10.5709 71.366C10.6238 71.3688 10.7769 71.3774 10.9215 71.4414L10.9286 71.4457C10.9529 71.4556 10.9758 71.467 10.9973 71.4827C11.0045 71.4855 11.0102 71.4898 11.0145 71.4926C11.0359 71.5068 11.0517 71.5211 11.0689 71.5353C11.0774 71.541 11.0832 71.5467 11.0889 71.5538C11.1075 71.5723 11.1232 71.5922 11.1361 71.6121C11.1404 71.6178 11.1447 71.6221 11.149 71.6278C11.1619 71.6506 11.1705 71.6691 11.1805 71.6904C11.2162 71.7772 11.2148 71.8498 11.1748 71.9081C11.1633 71.9237 11.1433 71.9351 11.1189 71.9494C11.0731 71.9707 11.0159 71.9849 11.0159 71.9849C11.066 72.0162 11.1447 72.0475 11.2205 72.0319L11.2291 72.029C11.2406 72.0262 11.252 72.0205 11.262 72.0162C11.2721 72.012 11.2792 72.0049 11.2878 71.9992C11.2935 71.9949 11.2978 71.9949 11.3021 71.9892C11.315 71.9792 11.3236 71.9664 11.335 71.9522C11.335 71.9508 11.3365 71.9494 11.3379 71.9465C11.3379 71.9551 11.335 71.9821 11.3264 72.0162C11.325 72.0191 11.3236 72.0233 11.3236 72.0276C11.3207 72.0418 11.3179 72.0546 11.3121 72.0675C11.3078 72.0774 11.305 72.086 11.3007 72.0959C11.295 72.1087 11.2921 72.1173 11.2864 72.1301C11.2806 72.1386 11.2735 72.1486 11.2678 72.1571C11.2592 72.1671 11.2535 72.1784 11.2463 72.1884C11.2391 72.1941 11.232 72.1984 11.2248 72.2055C11.212 72.2154 11.2019 72.2268 11.1891 72.2325C11.1833 72.2368 11.1776 72.2354 11.1733 72.2382C11.1333 72.2553 11.0846 72.2624 11.0245 72.2453C11.0188 72.3222 11.0817 72.4488 11.1991 72.4644C11.2391 72.4701 11.2878 72.4644 11.3436 72.4388C11.3365 72.4943 11.3193 72.5455 11.2921 72.5939C11.2349 72.6921 11.1433 72.7661 11.0631 72.7689C11.0359 72.7704 10.9973 72.7647 10.9601 72.7519C10.9286 72.7391 10.8957 72.722 10.8714 72.6921C10.8399 72.6551 10.8213 72.6025 10.8342 72.5285C10.8556 72.3691 10.7626 72.2482 10.5666 72.1998C10.5623 72.1984 10.5523 72.1969 10.5465 72.1969C10.5351 72.1955 10.5236 72.1927 10.5108 72.1912C10.3491 72.1656 10.0199 72.1528 9.86539 72.1144C9.85394 72.113 9.84249 72.1101 9.83247 72.1059C9.81673 72.1016 9.79956 72.0959 9.79097 72.0888C9.79097 72.0888 9.79813 72.1144 9.80815 72.1443C9.8153 72.1642 9.82102 72.1841 9.82961 72.2012C9.76665 72.2055 9.65217 72.1841 9.54627 72.1543C9.43752 72.1258 9.33449 72.086 9.28297 72.0575C9.28297 72.0575 9.2844 72.1045 9.29299 72.1343C9.10266 72.1059 8.89231 72.039 8.69769 71.9693C8.47875 71.891 8.27984 71.8113 8.14532 71.78C8.14246 71.8412 8.14675 71.8967 8.15534 71.9465C8.16106 71.9835 8.17251 72.0177 8.18539 72.0475C8.18825 72.0589 8.18968 72.0717 8.19541 72.0831C8.20972 72.1116 8.22546 72.1372 8.24263 72.1599C8.24979 72.1713 8.25265 72.1827 8.26123 72.1912C8.27841 72.2126 8.29844 72.2311 8.31704 72.2496C8.32563 72.2581 8.33278 72.2695 8.34423 72.2766C8.36427 72.2923 8.3843 72.3051 8.40577 72.315C8.41721 72.3236 8.42723 72.3307 8.43725 72.3364C8.46014 72.3478 8.47875 72.3549 8.50021 72.362C8.51452 72.3663 8.5274 72.3734 8.54171 72.3791C8.55745 72.3833 8.57605 72.3876 8.5918 72.3919C8.6104 72.3961 8.62614 72.4018 8.64474 72.4033C8.65333 72.4047 8.66478 72.4061 8.67622 72.4075C8.69626 72.4089 8.71629 72.4118 8.73346 72.4132C8.72488 72.4132 8.70771 72.4161 8.6891 72.4189C8.56461 72.4289 8.26982 72.4559 8.26982 72.4559C8.29558 72.6295 8.41864 72.7348 8.64045 72.7775C8.7306 72.7945 8.8365 72.8017 8.95956 72.7974C8.90662 72.8074 8.84938 72.823 8.79643 72.8401C8.65476 72.8885 8.5274 72.9596 8.48304 72.971L8.47445 72.9738C8.47445 72.9738 8.59895 73.2058 9.00106 73.1787C9.05401 73.1759 9.10982 73.1688 9.17278 73.1545C9.05401 73.2072 8.73776 73.3651 8.73776 73.3651C8.78212 73.4491 8.90089 73.5231 9.07977 73.5174C9.1828 73.5159 9.30443 73.4861 9.44324 73.4178C9.34021 73.4818 9.22859 73.5672 9.14559 73.634C9.06116 73.7023 9.00392 73.7536 9.00392 73.7536C9.00392 73.7536 9.16276 73.8631 9.41748 73.8019C9.48188 73.7863 9.55343 73.7621 9.63213 73.7166C9.59493 73.7564 9.56488 73.7948 9.53626 73.8304C9.45183 73.9428 9.41605 74.0381 9.40317 74.0737C9.40174 74.0823 9.39888 74.0879 9.39888 74.0879C9.39888 74.0879 9.45612 74.1022 9.54055 74.0993C9.63643 74.0979 9.76665 74.0737 9.88256 73.9798C9.87397 73.9955 9.86682 74.0097 9.85966 74.0239C9.81816 74.1164 9.80528 74.2146 9.80385 74.2886C9.80528 74.364 9.81387 74.4138 9.81387 74.4138C9.89401 74.401 9.96126 74.3839 10.0199 74.3526C10.0342 74.3441 10.05 74.3341 10.0643 74.3241C10.0786 74.3142 10.0958 74.3056 10.1101 74.2928C10.1101 74.2914 10.1115 74.29 10.1129 74.29C10.1373 74.2658 10.1602 74.2416 10.1831 74.2089C10.1773 74.2359 10.1759 74.2615 10.1759 74.2857C10.1759 74.3327 10.1859 74.3725 10.2002 74.4081C10.226 74.4721 10.2632 74.512 10.2632 74.512C10.2632 74.512 10.2789 74.5077 10.2933 74.502C10.2961 74.5048 10.3018 74.5077 10.3047 74.512C10.3076 74.5134 10.3076 74.5148 10.3104 74.5162C10.3305 74.5276 10.3591 74.5305 10.3906 74.512C10.3949 74.5276 10.4063 74.5404 10.4192 74.5475C10.4349 74.5561 10.4521 74.5561 10.4693 74.549C10.475 74.5475 10.4793 74.5461 10.485 74.5433L11.4982 75.0811C11.5067 75.1025 11.5282 75.1451 11.5897 75.1352C11.5897 75.1352 11.5854 75.1594 11.604 75.1736C11.604 75.1736 11.6141 75.1608 11.6269 75.1565C11.6312 75.1551 11.6384 75.1579 11.6455 75.1608C11.6556 75.1651 11.6656 75.1722 11.6799 75.1907C11.6828 75.1935 11.687 75.1992 11.6899 75.2035C11.7071 75.2291 11.7371 75.2675 11.7915 75.2704C11.8115 75.3187 11.8645 75.3273 11.896 75.3159C11.9017 75.3145 11.9074 75.313 11.9117 75.3102C11.9289 75.3244 11.9704 75.3614 12.0291 75.4027C12.0319 75.4041 12.0319 75.4041 12.0348 75.4055C12.0248 75.4311 12.0248 75.5265 12.062 75.5805C12.0849 75.6147 12.1192 75.6332 12.1722 75.6147C12.1822 75.636 12.1993 75.6588 12.2222 75.6716C12.2408 75.6858 12.2652 75.6929 12.2881 75.6858C12.3024 75.6816 12.3153 75.6759 12.3267 75.6688C12.341 75.6602 12.3525 75.6517 12.3525 75.6517C12.3725 75.6801 12.4068 75.6858 12.4426 75.6816C12.444 75.6816 12.444 75.6816 12.4469 75.6801L12.4555 75.6773C12.4655 75.6744 12.4741 75.6744 12.4841 75.6702C12.5399 75.6517 12.57 75.6688 12.6143 75.6503C12.6158 75.6645 12.6244 75.6773 12.6329 75.6887C12.6601 75.72 12.7145 75.7356 12.7574 75.7114C12.7775 75.7314 12.8261 75.7399 12.8547 75.7129C12.8648 75.7171 12.8733 75.7171 12.8819 75.7186C12.912 75.7186 12.9377 75.7001 12.9435 75.6844C12.9707 75.6403 12.932 75.6005 12.9077 75.6019C12.9091 75.5421 12.8433 75.525 12.829 75.5265C12.8276 75.5222 12.8247 75.5165 12.8233 75.5137C12.8175 75.5023 12.8104 75.4866 12.7961 75.4781C12.7803 75.4667 12.7589 75.4624 12.7374 75.4667C12.7317 75.4681 12.7245 75.4681 12.7174 75.4696C12.7174 75.4696 12.6744 75.4368 12.653 75.4198C12.6644 75.397 12.6744 75.3685 12.6859 75.3429C12.7059 75.2903 12.7274 75.2319 12.7446 75.1707C12.7703 75.0896 12.7961 75.0043 12.829 74.9402C12.9063 74.7866 12.9936 74.6955 13.1238 74.6201C13.1409 74.6087 13.1581 74.5959 13.1724 74.5831C13.2239 74.5433 13.2626 74.4949 13.2583 74.4622C13.2554 74.4536 13.2526 74.4465 13.2454 74.438C13.2154 74.4052 13.1424 74.3768 13.0994 74.3441C13.0894 74.3355 13.0794 74.3284 13.0737 74.3184C13.0737 74.3184 13.0737 74.3184 13.0751 74.3184C13.1037 74.3113 13.1281 74.2985 13.1524 74.2829C13.2211 74.2359 13.2597 74.1619 13.2383 74.0837C13.2325 74.0623 13.2225 74.0381 13.2053 74.0168C13.2039 74.0196 13.201 74.0268 13.1953 74.0339C13.1767 74.0623 13.1381 74.115 13.0594 74.1363C12.9406 74.1676 12.8547 74.0396 12.8877 73.9158C12.9106 73.8418 12.9749 73.7678 13.1052 73.7336C13.1796 73.7137 13.2626 73.718 13.3399 73.7678C13.5044 73.8745 13.4529 73.9855 13.4243 74.0979C13.4128 74.1434 13.4043 74.1904 13.4171 74.2373C13.4257 74.2686 13.4429 74.2985 13.4744 74.3298C13.4715 74.3099 13.4715 74.29 13.4758 74.2715C13.493 74.1819 13.5745 74.1079 13.5774 74.105C13.5774 74.1292 13.5602 74.1762 13.5388 74.2317C13.5144 74.2957 13.4815 74.3711 13.45 74.438C13.3599 74.6315 13.3713 74.8321 13.2798 74.899C13.2397 74.9289 13.2025 74.9217 13.1753 74.8961C13.1467 74.8719 13.1281 74.8278 13.1324 74.7837C13.0894 74.8293 13.0465 74.9772 13.1052 75.0669C13.1324 75.111 13.1839 75.1423 13.2726 75.138C13.2397 75.1978 13.2383 75.2433 13.2554 75.2817C13.2955 75.3714 13.4429 75.4198 13.5245 75.4909C13.5602 75.5222 13.586 75.5578 13.5817 75.6062C13.6117 75.5891 13.6246 75.5663 13.6261 75.5407L13.6232 75.5293C13.6232 75.5208 13.6246 75.5122 13.6218 75.5023C13.6189 75.4937 13.6146 75.4852 13.6132 75.4767C13.596 75.4283 13.5674 75.3799 13.5588 75.3415C13.5559 75.3315 13.5574 75.3202 13.5588 75.3116C13.5617 75.3145 13.5617 75.3145 13.5645 75.3159C13.5831 75.3372 13.6032 75.3529 13.6218 75.3671C13.6289 75.3714 13.6346 75.3771 13.6432 75.3813C13.6618 75.3941 13.6776 75.4027 13.6933 75.4084C13.6962 75.4098 13.7005 75.4126 13.7062 75.4141C13.7248 75.4212 13.7463 75.4269 13.7663 75.4283C13.7706 75.4297 13.7749 75.4297 13.7792 75.4297C13.7963 75.4311 13.8135 75.4311 13.8307 75.4269C13.8335 75.4283 13.8335 75.4283 13.835 75.4283C13.9809 75.4027 14.0811 75.2533 14.0654 75.1864C14.0969 75.2006 14.1398 75.212 14.1884 75.2149C13.782 76.1639 14.5247 77.2211 15.422 77.039C15.3003 77.6907 15.8455 78.0037 16.3006 77.8458L24.7664 88.8574C24.7435 89.1377 24.7836 89.741 25.5062 89.9345C25.5062 89.9345 25.3488 90.1821 25.4805 90.4453C25.4805 90.4453 26.0843 90.0484 26.2389 91.006C26.2933 91.3361 26.3519 91.7473 26.6854 92.1357C26.7741 92.2282 26.9043 92.3306 27.0617 92.4189C27.0789 92.6579 27.159 92.877 27.305 93.052C27.5168 93.3082 27.8316 93.449 28.2022 93.4576C28.3181 93.7137 28.6186 94.3397 29.0723 95.1337C28.7217 95.5848 28.155 96.77 28.5085 97.5256C28.6344 97.7945 28.9177 98.0862 29.5416 98.1417C29.5559 98.7222 29.9094 99.5361 30.5805 99.5347C30.9254 99.5347 31.3447 99.4507 31.3447 99.4507C31.5007 100.253 32.1761 100.306 32.6813 100.324C33.5255 100.35 33.5771 100.694 34.2382 100.764C34.0064 101.537 34.6474 102.227 35.5089 102.146C35.6964 102.656 36.2101 102.728 36.5822 102.654C36.8011 102.944 37.2776 103.085 37.7126 102.796C38.2292 102.45 37.9946 101.794 37.747 101.693C38.0575 101.03 37.4136 100.512 37.2519 100.465C37.3191 100.131 37.1102 99.2544 36.296 99.27C36.296 99.27 35.9797 98.6866 35.8137 98.4006C36.5621 97.8457 37.3506 96.9678 38.1133 96.1155C38.8088 95.3372 39.5329 94.5404 40.2054 93.9869C41.6951 92.7632 42.5509 92.2993 44.6473 92.0404C46.0353 91.8682 47.2817 91.3389 47.4392 90.8338C47.6381 90.1963 46.1699 89.1377 46.0511 88.3281C47.7897 88.6269 49.4883 87.4872 49.0276 85.6673C48.9417 85.7356 47.7454 86.5438 46.7952 86.272C45.0937 85.7826 44.9907 82.3335 48.0373 82.0205C49.3052 81.891 50.8821 82.1898 51.7837 83.5999C53.9388 86.9764 49.2193 87.4786 50.4314 90.4894C50.7362 89.0723 52.7224 88.5188 52.7224 88.5188C52.4305 89.0424 50.9308 90.4311 49.6128 91.5509C47.6309 93.2356 46.5748 95.478 45.39 95.7939C44.3697 96.0657 43.7343 94.9174 44.3453 93.772C43.6656 93.782 42.0658 95.165 42.528 96.8796C42.6882 97.4729 43.0932 98.1488 44.1135 98.3907C43.5597 98.8033 43.3594 99.0751 43.1075 99.6072C42.4292 101.047 43.1891 102.507 44.4155 103.405C44.9635 103.808 45.3499 104.25 45.1581 105.108C45.1581 105.108 46.177 104.912 46.2514 103.485C46.2815 102.931 46.1412 102.133 46.4088 101.744C46.5806 102.615 47.163 103.56 47.8999 104.044C48.6927 104.565 49.6629 104.782 50.6446 104.488C51.8323 104.132 52.4147 103.115 52.6222 102.877C53.581 104.283 55.1708 104.903 56.8723 104.448C57.6665 104.236 58.3477 103.795 58.8528 103.237C60.1407 104.819 61.6976 105.152 61.6976 105.152C61.6976 105.152 62.8782 104.091 63.1973 102.08C63.9143 102.314 64.7271 102.356 65.5213 102.144C67.2242 101.693 68.2903 100.366 68.4119 98.671C68.711 98.7734 69.727 99.3653 70.9347 99.0822C71.9336 98.8488 72.6634 98.1787 73.0884 97.3321C73.4848 96.548 73.5134 95.4396 73.2243 94.6001C73.6522 94.8036 73.9313 95.5634 74.2361 96.0287C75.0174 97.2268 75.9991 96.891 75.9991 96.891C75.4023 96.2421 75.5139 95.6673 75.7858 95.0455C76.3969 93.6582 76.3196 92.0162 75.0088 91.107C74.5237 90.7712 74.2146 90.636 73.5263 90.5535C74.2876 89.8363 74.299 89.0495 74.1388 88.4561C73.6765 86.7416 71.5959 86.3389 71.002 86.669C72.1067 87.3577 72.1354 88.6667 71.1136 88.9385C69.9288 89.2544 67.8853 87.8372 65.3224 87.3634C63.618 87.0489 61.6204 86.5908 61.1052 86.2834C61.1052 86.2834 63.1029 85.7755 64.0788 86.8511C63.6138 83.6411 59.275 85.5521 59.4438 81.5566C59.5154 79.8862 60.7303 78.8432 61.8937 78.3253C64.6899 77.0817 66.3355 80.1209 65.1077 81.3902C64.4223 82.0973 62.9784 81.992 62.8711 81.9749C63.3876 83.7792 65.4311 83.9229 66.7863 82.7988C67.0896 83.56 66.3512 85.2063 66.8449 85.6588C67.2342 86.0173 68.3489 85.7726 69.2118 85.5293C71.6903 84.8307 73.6279 85.4596 76.5156 84.9886C78.396 84.6798 79.2474 85.1124 80.677 85.525C81.7603 85.8366 82.9194 86.1312 83.7179 85.8523C84.4706 85.5905 84.5335 84.6841 85.4222 84.4991C85.9889 84.3825 86.879 84.2629 87.2854 83.9086C87.8034 83.4604 87.6088 82.9724 88.7579 82.3065C89.2287 82.0333 89.6479 81.5168 89.4934 80.9419C89.4834 80.9035 89.4662 80.868 89.4533 80.831C90.1931 79.9289 90.6639 78.8105 90.7527 77.5896C90.8571 77.5441 90.9859 77.463 91.0689 77.3165C91.1648 77.1457 91.1648 76.9394 91.0789 76.7032C91.2535 76.4955 91.3136 76.1938 91.232 75.8907ZM12.487 75.0683C12.3525 75.1039 12.3153 75.0043 12.2022 75.0356C12.1707 75.0441 12.1607 75.074 12.165 75.1039C12.1307 75.1025 12.1006 75.1295 12.1035 75.1608C12.0605 75.1508 12.0305 75.1466 12.0147 75.1437C12.0162 75.0939 11.9718 75.0413 11.9174 75.0612C11.8874 75.0285 11.8445 75.0057 11.7829 75.0157C11.7085 75.027 11.7257 74.9644 11.7257 74.9644C11.6985 74.9602 11.6842 74.9758 11.6842 74.9758C11.6684 74.926 11.6198 74.9132 11.5854 74.936L10.714 74.539C10.7712 74.502 10.8971 74.3939 10.9157 74.1705C10.9715 74.4109 11.1476 74.4807 11.1476 74.4807C11.149 74.4807 11.345 74.3213 11.2935 74.0538C11.3636 74.2188 11.5797 74.2943 11.5797 74.2943C11.687 74.1434 11.6956 73.9912 11.5969 73.8076C11.5998 73.8091 11.5998 73.8105 11.6026 73.8119C11.6928 73.93 11.8974 73.9542 11.8974 73.9542C11.8974 73.9542 11.9704 73.7593 11.8874 73.597C11.9618 73.6525 12.1493 73.6753 12.1493 73.6753C12.1493 73.6753 12.175 73.469 12.0233 73.3068C12.1908 73.4149 12.248 73.5743 12.258 73.6895C12.258 73.6895 12.2909 73.6568 12.3153 73.6056C12.331 73.634 12.3525 73.8247 12.1063 73.9015C12.1106 73.903 12.1822 73.92 12.1979 73.9215C12.1979 73.9215 12.1135 74.0068 12.0877 74.0979C12.0276 74.3284 12.1908 74.3782 12.2995 74.5404C12.3539 74.6201 12.2709 74.7211 12.1736 74.6784C12.2251 74.7311 12.3553 74.778 12.4412 74.6984C12.4827 74.6599 12.517 74.5731 12.5127 74.5233C12.6286 74.576 12.6286 74.7553 12.6286 74.7553C12.6286 74.7553 12.7345 74.6628 12.7102 74.5475C12.7403 74.5703 12.7603 74.6215 12.7632 74.6258C12.7646 74.6215 12.7803 74.5461 12.7746 74.4906C12.902 74.6799 12.6458 75.0256 12.487 75.0683ZM69.0158 93.7393C69.249 93.9186 69.7112 94.6442 69.4351 95.2703C69.1088 96.0102 68.4419 95.959 68.0069 96.0429C67.8896 95.71 67.7479 95.3471 67.6034 95.0483C68.3246 94.8207 68.7367 94.4237 69.0158 93.7393ZM36.6051 36.8214C37.4951 36.191 38.0947 34.8293 38.0947 34.8293C38.0947 34.8293 36.4505 35.6247 35.3644 35.8709C37.4264 34.5718 38.2235 32.4617 38.2235 32.4617C38.2235 32.4617 35.0911 33.8333 33.6171 34.1492C36.1557 32.8117 38.2879 30.9563 39.4298 29.0653C39.4298 29.0653 39.8978 29.0098 41.107 28.6868C42.3147 28.3652 42.7498 28.1802 42.7498 28.1802C44.6902 29.2502 47.4692 29.7966 50.3398 29.6942C48.9045 30.1538 45.5016 30.5223 45.5016 30.5223C45.5016 30.5223 47.2531 31.9537 49.6915 32.0533C48.6269 32.3792 46.8038 32.5086 46.8038 32.5086C46.8038 32.5086 48.0087 33.3894 49.0963 33.4933C48.5382 34.9489 44.1908 36.6748 44.1908 36.6748C44.1908 36.6748 45.9509 37.086 47.1272 36.9011C45.6504 39.8293 45.6905 43.9543 45.8364 46.2309C44.819 44.1876 42.7784 40.5963 40.0266 38.7935C41.137 38.3695 42.455 37.1373 42.455 37.1373C42.455 37.1373 37.82 37.8046 36.6051 36.8214ZM35.7837 93.6269C34.9394 93.5244 34.553 93.0876 34.1781 92.665C33.8103 92.251 33.4325 91.8255 32.6884 91.8127C32.2791 91.8056 32.0716 92.0717 31.9314 92.379C31.6008 92.2894 31.1014 92.288 30.944 92.6849C30.5348 92.3662 30.2242 92.1613 30.0554 92.056C30.1613 91.659 30.1055 91.2592 29.8593 90.9618C29.7377 90.8167 29.5788 90.7071 29.3957 90.6374C29.3413 90.4268 29.2526 90.249 29.1639 90.1223C28.8548 89.7268 28.4727 89.5546 28.1493 89.4678C27.2563 89.2245 27.7744 88.6112 27.7744 88.6112C27.5511 88.4433 27.2477 88.5358 27.2477 88.5358C27.1934 87.7902 26.6167 87.6266 26.3476 87.591L18.7261 78.8332C19.5361 78.7052 21.4837 78.1559 22.8403 75.784C22.2421 78.7052 23.8334 80.3828 23.8334 80.3828C23.842 80.3799 26.817 79.5859 27.6012 76.3958C27.5411 78.56 29.5445 80.4824 29.5445 80.4824C31.4964 79.3483 32.3722 77.7077 32.2119 75.1949C32.219 75.2205 32.2248 75.2447 32.2305 75.2718C32.6469 77.0205 34.7734 78.3153 34.7734 78.3153C34.7734 78.3153 36.575 76.5225 36.4677 74.3341C37.0372 75.3031 38.9891 76.5083 38.9891 76.5083C38.9891 76.5083 40.3128 74.354 39.4613 71.78C40.7707 73.8076 40.5904 75.8736 40.1253 77.2069C40.1253 77.2069 40.629 77.0134 41.1742 76.5595C41.2 76.9408 40.4845 79.169 37.3592 78.7692C37.4036 78.8048 38.1205 79.3739 38.2765 79.4707C38.2765 79.4707 36.9041 79.963 36.1686 80.8637C34.3355 83.1076 35.9196 84.4934 36.2774 86.8227C36.4333 87.8344 35.5218 88.7891 34.1638 87.7291C34.4428 88.3637 35.5118 89.6713 37.0344 89.2857C37.6955 89.1164 38.5126 88.2897 38.7129 87.7205C39.7146 88.8859 38.8131 90.8722 38.8131 90.8722C38.8131 90.8722 40.453 90.3813 40.7693 88.9741C40.9982 89.3753 40.9639 90.0611 40.9639 90.0939C40.9997 90.0498 41.5606 89.3198 41.7681 88.6682C41.9198 88.9357 42.1044 89.3412 42.1674 89.6884C42.0901 89.7666 38.1205 93.9143 35.7837 93.6269ZM50.055 100.434C49.4998 100.03 49.5356 99.1718 49.6486 98.9001C50.2339 99.354 50.7906 99.4934 51.5304 99.3298C51.5547 99.6613 51.6162 100.045 51.6806 100.393C51.2614 100.536 50.7104 100.912 50.055 100.434ZM53.3878 92.093C52.6995 93.6368 52.0312 95.1565 51.7107 96.8682C51.2413 96.8212 50.7677 96.5096 50.6532 95.8153C50.2897 93.6013 53.4909 91.7117 54.7573 88.486C54.441 89.7865 53.893 90.9633 53.3878 92.093ZM56.0309 99.0794C55.3912 96.706 55.6431 94.6414 55.9078 92.4587C56.0724 91.1198 56.2455 89.5461 56.1811 88.0307C56.4545 89.6599 56.5002 91.3873 56.546 92.8528C56.619 95.1807 56.785 98.9285 57.7896 101.392C56.9739 101.235 56.3686 100.33 56.0309 99.0794ZM63.2188 99.9445C62.8496 97.3121 61.1081 93.984 60.0019 91.9322C59.305 90.6403 58.4765 89.1221 57.8926 87.5754C58.5995 88.92 59.5397 90.1963 60.3568 91.2749C61.6833 93.0335 62.9397 94.6969 63.5794 97.0703C63.9157 98.3195 63.8456 99.4038 63.2188 99.9445ZM66.5931 91.5694C66.8435 92.2268 66.5902 92.7333 66.2067 93.0065C65.0691 91.6847 63.7268 90.6986 62.353 89.7054C61.347 88.9783 60.2824 88.2313 59.3522 87.2624C62.0726 89.4266 65.796 89.4707 66.5931 91.5694ZM61.0952 75.6346L57.7681 76.5211C56.5417 76.8483 55.0836 78.0976 55.0006 80.2433C53.85 78.4263 51.9568 78.0692 50.7319 78.395L47.4048 79.2814C45.2426 79.8577 43.8574 78.8475 43.4553 77.3591L37.6697 55.8879L57.7638 50.5336L63.5494 72.0048C63.95 73.4946 63.2574 75.0583 61.0952 75.6346Z" fill="#081828"/>
<path d="M13.9188 70.0838C11.5219 69.6072 9.01476 69.7096 6.51338 69.7779C5.69771 69.7993 4.87918 69.8306 4.05921 69.869C4.39979 68.9583 4.75897 68.0534 5.11815 67.1456C6.26009 64.2614 7.32762 60.3556 14.1277 49.7993C14.517 49.196 14.4554 48.7862 14.0862 48.5543C13.1718 47.9823 12.2188 47.6237 11.3502 47.6223C10.3442 47.6223 9.45265 48.1061 8.8688 49.3027C2.21322 62.9595 0.81943 69.0423 0.560419 70.8152C0.392992 71.9492 0.577591 72.9524 1.6952 73.6368C2.36205 74.0451 2.72695 73.9797 2.94876 73.2469C4.2896 73.2754 5.62186 73.3678 6.94268 73.4433C8.91316 73.5542 10.6404 73.8388 12.4391 74.1618C13.2591 74.3084 14.0691 74.4848 14.8189 74.785C15.8621 75.2034 15.8592 75.2076 16.2342 74.2045C17.0198 72.1043 16.2771 70.5534 13.9188 70.0838Z" fill="url(#paint0_linear_8865_65137)"/>
<path d="M80.1042 54.721C79.31 53.8516 78.284 53.3024 76.936 53.7008C74.4589 54.4563 71.046 56.6789 71.9919 58.4816L72.0162 58.5272C68.9882 60.7881 66.9777 63.7577 64.5192 65.1436C63.6148 65.653 62.9766 65.0169 63.2399 64.1803C63.4417 63.5386 65.4322 60.1962 70.5137 56.5693C71.3322 55.9859 71.0088 55.8977 70.0758 54.8917C69.1943 54.0551 68.5718 53.7947 67.5515 54.4193C65.1789 55.8735 64.3575 56.7528 62.0865 58.1757C61.8833 58.3066 61.8017 58.1387 61.8633 58.0036C62.5516 56.4953 63.6492 55.6074 64.6351 54.7566C65.0143 54.4279 64.7939 54.2329 64.4391 53.9512C63.3443 53.0833 62.0865 53.0221 61.205 53.9356C59.9514 55.2375 59.2918 56.3957 58.9025 57.9139C58.7294 58.7093 58.9641 59.4449 59.4978 59.8391C57.9137 61.9549 55.7486 63.8815 53.1342 65.0866C52.5546 65.3527 51.8577 65.5021 51.2023 65.5775C50.65 65.6416 50.1062 65.4851 49.8758 64.9472C49.4765 64.0181 49.8228 63.1145 50.1548 62.2409C50.3595 61.703 50.7 61.9392 51.2739 62.174C51.8134 62.3946 52.5589 62.6165 53.5949 62.1954C55.5182 61.4156 56.6559 59.7494 57.4329 57.968C58.3072 55.9603 57.337 54.2628 55.0875 53.6937C53.6636 53.3351 52.506 53.752 51.5286 54.647C48.9585 57.0019 47.3773 59.812 46.7576 63.0462C45.9262 63.8758 45.1563 64.4748 44.5625 64.8291C44.2477 65.0169 43.9286 65.3043 43.5322 65.0696C42.8424 64.6626 43.5722 63.0092 43.8584 62.3689C46.9852 55.8806 48.1786 54.4122 51.6974 49.5175C52.0208 49.0679 52.0251 48.7876 51.7089 48.55C51.1751 48.1487 50.2164 47.6777 49.3048 47.6777C48.6365 47.6777 47.994 47.931 47.559 48.6496L44.3192 54.085C44.0802 54.4592 43.8484 54.4122 43.5007 54.2486C41.1181 53.1331 39.5239 53.4333 37.7423 55.3029C36.5145 56.5906 35.6016 58.0847 34.9419 59.6598C34.1377 61.575 33.6039 62.9922 33.3878 63.7193C32.0026 64.9728 30.8163 65.2161 30.5344 65.0497C30.1452 64.8191 30.2639 64.4179 30.2911 64.0736C30.3097 63.8416 30.377 63.6083 30.4485 63.382C31.3386 60.5975 33.1073 57.6393 34.7558 55.5704C34.9762 55.2916 35.2152 55.098 34.8746 54.7694C33.9602 53.8886 32.3561 53.0164 31.2771 54.2116C30.9966 54.5204 30.8492 54.435 30.5029 54.2714C28.1303 53.1601 26.5405 53.4603 24.7675 55.3214C23.544 56.6034 22.8156 58.1814 21.9756 59.6612C21.5306 60.4495 21.044 61.6589 20.7206 62.6037C18.9977 64.4364 17.1002 65.9703 14.8735 65.9404C14.3555 65.9347 13.6014 65.559 13.3567 65.024C12.9446 64.1234 13.2451 63.244 13.5499 62.4031C13.6815 62.0417 13.9005 62.2637 14.3441 62.4856C14.8363 62.7318 15.6062 62.9779 16.8383 62.4287C18.7644 61.5693 19.8892 59.9558 20.6991 58.1658C21.718 55.9176 20.6376 54.1063 18.0647 53.6182C16.5836 53.3379 15.5175 53.9925 14.5602 54.8747C11.2474 57.9168 10.2414 62.6322 10.2357 62.6592C9.28835 66.6376 12.3292 68.7392 14.9079 68.0775C17.7284 67.3547 18.5269 66.1609 20.3972 64.4222C20.3485 65.7141 20.4401 67.3533 21.8697 67.884C23.076 68.3322 24.0892 67.7076 24.8848 66.9833C25.5259 66.3985 26.031 65.6857 26.6922 64.9614L26.7766 65.6003C27.0571 67.8485 28.3807 68.6154 30.5301 67.5838C31.5948 67.073 32.3761 66.1936 33.2404 65.4338L33.3535 65.3172C33.4307 66.3374 33.7098 67.4074 34.8331 67.867C35.9636 68.3294 36.9653 67.82 37.8597 67.211C38.5323 66.7528 39.086 66.0058 39.7629 65.3598L39.7157 66.0457C39.5583 68.1003 41.3599 68.604 43.5179 67.5696C44.2248 67.2309 45.5384 66.0058 46.5487 64.7736C46.6374 67.137 47.9411 68.53 50.5698 68.0733C54.5652 67.3803 58.1541 63.207 60.2062 60.1236C61.0047 60.2375 61.9377 59.7409 62.3498 59.721C62.3026 59.7864 60.9961 60.828 59.8699 63.2341C59.1115 64.8576 59.0385 67.1128 59.9815 67.8271C61.1292 68.6979 63.0596 68.0903 64.4133 66.8709C66.5226 64.9714 68.9367 62.0701 72.5886 59.5033C73.2941 60.5989 73.9595 61.3004 74.2743 61.8539C74.4947 62.4059 74.3902 62.9324 73.5602 63.4831C71.6069 64.7836 70.1659 65.3228 67.842 65.8749C67.1451 66.04 67.4012 66.6575 68.0666 67.3889C69.0483 68.4674 70.3205 69.1461 71.989 68.6538C75.0571 67.719 78.8836 65.7497 78.304 62.9196C77.9677 61.2719 76.634 60.5975 75.7053 59.9003C74.8968 59.1689 74.4904 58.6097 75.6681 57.8727C77.2766 56.8681 78.4085 56.3872 80.2859 55.9418C80.8483 55.8109 80.6423 55.3115 80.1042 54.721ZM51.0621 60.2076C51.9794 58.5144 53.0068 56.8937 54.6067 55.6672C54.87 55.468 55.159 55.2375 55.5282 55.4111C55.6427 55.4651 55.6813 55.6644 55.6985 55.6928C55.7715 57.1128 53.1098 60.5007 51.7876 60.8152C51.6688 60.8436 51.5529 60.865 51.4399 60.865C51.3025 60.865 51.1723 60.8337 51.0492 60.7426C50.8159 60.569 50.9734 60.3712 51.0621 60.2076ZM14.3713 60.3812C15.2714 58.6495 16.2602 56.9748 17.8829 55.7198C18.1434 55.5178 18.4611 55.2574 18.8102 55.5093C19.0964 55.7156 18.9519 56.0542 18.8632 56.3132C18.2736 58.0178 17.3062 59.4962 15.7751 60.6088C15.5075 60.8038 15.1869 60.9916 14.9007 61.0272C14.8549 61.0329 14.8106 61.0357 14.7691 61.0357C14.3899 61.0371 14.1452 60.8152 14.3713 60.3812ZM30.0965 56.0556C28.5668 58.853 27.462 61.8724 25.191 64.2884C25.0794 64.4051 24.9578 64.5161 24.8347 64.6228C24.673 64.7594 24.4999 64.9002 24.2995 64.9002C24.2223 64.9002 24.1407 64.8789 24.0534 64.8291C23.8159 64.6911 23.823 64.4293 23.8244 64.3667C23.8659 63.5129 24.0777 62.8741 24.3196 62.2409C25.1038 60.1919 26.1112 58.2455 27.4678 56.4711C27.9686 55.8138 28.5682 55.2403 29.5542 55.3784C29.942 55.4324 30.3713 55.5562 30.0965 56.0556ZM43.0928 56.0386C42.7208 56.7173 42.3745 57.4102 42.0296 58.1032C41.3384 59.3638 40.8591 60.2987 40.5199 61.0186C39.8617 62.1783 39.1161 63.2938 38.1673 64.3026C38.0557 64.4207 37.9341 64.5317 37.8096 64.6384C37.6479 64.7765 37.4747 64.9173 37.273 64.9173C37.1957 64.9173 37.1127 64.896 37.0268 64.8462C36.7893 64.7082 36.795 64.4435 36.7979 64.3809C36.8394 63.5258 37.0526 62.8826 37.293 62.248C38.0801 60.1905 39.0918 58.2355 40.4541 56.4526C40.9564 55.7938 41.5588 55.2176 42.5491 55.3556C42.9369 55.4125 43.3676 55.5377 43.0928 56.0386Z" fill="url(#paint1_linear_8865_65137)"/>
<path d="M27.0537 72.7844L25.2178 77.2992H26.0993L26.4556 76.4085H28.4375L28.7996 77.2992H29.6825L27.8522 72.7844H27.0537ZM26.7103 75.7184L27.4487 73.8672L28.1871 75.7184H26.7103Z" fill="url(#paint2_linear_8865_65137)"/>
<path d="M35.3504 74.435L34.8552 75.9845L34.2929 74.435L33.6833 72.7844H32.9048L32.2952 74.435L31.7357 75.9645L31.2434 74.435L30.7182 72.7844H29.8496L31.3092 77.2992H32.1063L32.6329 75.8607L33.294 74.0522L33.9551 75.8607L34.4818 77.2992H35.2788L36.7456 72.7844H35.8827L35.3504 74.435Z" fill="url(#paint3_linear_8865_65137)"/>
<path d="M38.751 72.7844L36.915 77.2992H37.7965L38.1529 76.4085H40.1348L40.4968 77.2992H41.3798L39.5495 72.7844H38.751ZM38.4061 75.7184L39.1445 73.8672L39.8829 75.7184H38.4061Z" fill="url(#paint4_linear_8865_65137)"/>
<path d="M45.1396 75.616C45.3858 75.495 45.5775 75.3215 45.7134 75.0938C45.8494 74.8661 45.9181 74.5986 45.9181 74.2941C45.9181 73.984 45.8494 73.7164 45.7134 73.4916C45.5775 73.2654 45.3858 73.0918 45.1396 72.9694C44.8935 72.8471 44.603 72.7859 44.2696 72.7859H42.4336V77.3007H43.2636V75.7967H44.0735L45.0151 77.2993H45.9882L44.9665 75.6871C45.0266 75.6672 45.0838 75.643 45.1396 75.616ZM44.8377 74.8676C44.6803 75.0013 44.4585 75.0682 44.1723 75.0682H43.2578V73.5201H44.1723C44.457 73.5201 44.6788 73.587 44.8377 73.7207C44.9951 73.8545 45.0752 74.0451 45.0752 74.2941C45.0738 74.5431 44.9951 74.7338 44.8377 74.8676Z" fill="url(#paint5_linear_8865_65137)"/>
<path d="M50.2416 73.0676C49.8853 72.8783 49.4746 72.7844 49.0124 72.7844H47.3066V77.2992H49.0124C49.4746 77.2992 49.8853 77.2053 50.2416 77.0161C50.5979 76.8268 50.8756 76.5607 51.0716 76.2192C51.2691 75.8777 51.3664 75.485 51.3664 75.0425C51.3664 74.6 51.2676 74.2073 51.0716 73.8658C50.8756 73.5229 50.5979 73.2568 50.2416 73.0676ZM50.326 75.8194C50.1987 76.0456 50.0198 76.2207 49.7909 76.3445C49.5619 76.4697 49.2972 76.5308 48.9995 76.5308H48.1366V73.5514H48.9809C49.2829 73.5514 49.5519 73.614 49.7851 73.7377C50.0184 73.863 50.1987 74.038 50.326 74.2628C50.4534 74.489 50.5178 74.748 50.5178 75.0397C50.5178 75.3342 50.4534 75.5932 50.326 75.8194Z" fill="url(#paint6_linear_8865_65137)"/>
<path d="M55.5352 75.2133C55.2862 74.9956 54.8741 74.8206 54.2988 74.6868C53.9182 74.5929 53.6506 74.4919 53.4974 74.3837C53.3443 74.277 53.2671 74.1433 53.2671 73.9839C53.2671 73.8672 53.3 73.7662 53.3672 73.6808C53.4345 73.5955 53.5318 73.5286 53.6591 73.4845C53.7865 73.4389 53.9396 73.4162 54.1171 73.4162C54.3932 73.4162 54.6136 73.4831 54.7753 73.6154C54.937 73.7491 55.0186 73.9298 55.0186 74.1575H55.8228C55.8228 73.8644 55.7527 73.6083 55.6153 73.3863C55.4765 73.1643 55.2776 72.9936 55.0186 72.8741C54.7596 72.7531 54.4548 72.6934 54.1042 72.6934C53.7665 72.6934 53.4731 72.7474 53.2213 72.8541C52.9708 72.9623 52.7777 73.1117 52.6446 73.3052C52.5101 73.4987 52.4428 73.7292 52.4428 73.9953C52.4428 74.2315 52.4986 74.4378 52.6117 74.6142C52.7233 74.7907 52.8979 74.9401 53.134 75.0624C53.3701 75.1848 53.672 75.2873 54.0398 75.3684C54.399 75.4537 54.6594 75.5533 54.8211 75.6657C54.9828 75.7782 55.0644 75.919 55.0644 76.0912C55.0644 76.2719 54.9871 76.4128 54.834 76.5138C54.6809 76.6148 54.4734 76.666 54.2144 76.666C53.9153 76.666 53.6763 76.5949 53.4946 76.454C53.3128 76.3117 53.2198 76.1182 53.2155 75.8735H52.3984C52.3984 76.1794 52.4714 76.4455 52.6188 76.6731C52.7662 76.9008 52.978 77.0772 53.2542 77.2025C53.5304 77.3277 53.8523 77.3903 54.2201 77.3903C54.7395 77.3903 55.1502 77.2722 55.4522 77.036C55.7556 76.7998 55.9058 76.4768 55.9058 76.0684C55.9087 75.7141 55.7842 75.4295 55.5352 75.2133Z" fill="url(#paint7_linear_8865_65137)"/>
<path d="M34.1344 98.3762L35.252 97.3774C35.5368 97.1255 35.7486 96.8694 35.8859 96.6104C36.0233 96.3515 36.0934 96.0911 36.0934 95.8293C36.0934 95.5546 36.0262 95.3099 35.8902 95.0951C35.7543 94.8788 35.5654 94.7123 35.325 94.5956C35.0846 94.4775 34.8127 94.4192 34.5108 94.4192C34.2002 94.4192 33.9255 94.4818 33.6894 94.6056C33.4533 94.7294 33.2687 94.9087 33.137 95.1449C33.0054 95.3796 32.9352 95.6585 32.9267 95.9815H33.6421C33.6464 95.7937 33.6865 95.6329 33.7609 95.4977C33.8353 95.3626 33.9355 95.2601 34.0629 95.1904C34.1902 95.1207 34.339 95.0865 34.5093 95.0865C34.671 95.0865 34.8156 95.1178 34.9429 95.1819C35.0703 95.2445 35.169 95.3341 35.2391 95.4494C35.3093 95.5646 35.3436 95.6969 35.3436 95.8449C35.3436 96.01 35.2978 96.1722 35.2062 96.3315C35.1146 96.4909 34.9701 96.6574 34.7726 96.831L32.8809 98.5157V99.0777H36.1779V98.3791H34.6739H34.1344V98.3762Z" fill="white"/>
<path d="M40.2607 94.7023C39.9745 94.5131 39.6339 94.4177 39.239 94.4177C38.8497 94.4177 38.5106 94.5131 38.2244 94.7023C37.9382 94.8915 37.7164 95.1647 37.5604 95.5219C37.4044 95.879 37.3271 96.3016 37.3271 96.7897C37.3271 97.2777 37.4044 97.7003 37.5604 98.0574C37.7164 98.4146 37.9368 98.6878 38.2244 98.877C38.5106 99.0663 38.8497 99.1616 39.239 99.1616C39.6325 99.1616 39.9731 99.0663 40.2607 98.877C40.5469 98.6878 40.7673 98.4146 40.9204 98.0574C41.0735 97.7003 41.1508 97.2777 41.1508 96.7897C41.1508 96.3016 41.0735 95.879 40.9204 95.5219C40.7673 95.1647 40.5483 94.8915 40.2607 94.7023ZM40.2507 97.6718C40.1591 97.9194 40.026 98.1101 39.8529 98.2438C39.6797 98.3762 39.4751 98.443 39.239 98.443C39.0028 98.443 38.7982 98.3762 38.6279 98.2438C38.4576 98.1115 38.326 97.9208 38.2344 97.6718C38.1428 97.4243 38.097 97.1297 38.097 96.7897C38.097 96.4496 38.1428 96.1565 38.2344 95.9075C38.326 95.6599 38.4576 95.4692 38.6279 95.3355C38.7982 95.2032 39.0028 95.1363 39.239 95.1363C39.4794 95.1363 39.6854 95.2032 39.8572 95.3355C40.0274 95.4678 40.1591 95.6585 40.2507 95.9075C40.3423 96.1551 40.3881 96.4496 40.3881 96.7897C40.3895 97.1297 40.3437 97.4228 40.2507 97.6718Z" fill="white"/>
<path d="M43.4616 98.3762L44.5792 97.3773C44.864 97.1255 45.0757 96.8694 45.2131 96.6104C45.3505 96.3514 45.4206 96.0911 45.4206 95.8293C45.4206 95.5546 45.3534 95.3099 45.2174 95.0951C45.0815 94.8788 44.8926 94.7123 44.6522 94.5956C44.4118 94.4775 44.1399 94.4192 43.8379 94.4192C43.5274 94.4192 43.2526 94.4818 43.0165 94.6056C42.7804 94.7294 42.5958 94.9087 42.4642 95.1449C42.3325 95.3796 42.2624 95.6585 42.2538 95.9815H42.9693C42.9736 95.7937 43.0137 95.6329 43.0881 95.4977C43.1625 95.3625 43.2627 95.2601 43.39 95.1904C43.5174 95.1207 43.6662 95.0865 43.8365 95.0865C43.9982 95.0865 44.1427 95.1178 44.2701 95.1818C44.3974 95.2445 44.4962 95.3341 44.5663 95.4493C44.6364 95.5646 44.6708 95.6969 44.6708 95.8449C44.6708 96.01 44.625 96.1722 44.5334 96.3315C44.4418 96.4909 44.2973 96.6574 44.0998 96.831L42.208 98.5156V99.0777H45.505V98.379H44.0025H43.4616V98.3762Z" fill="white"/>
<path d="M47.6467 94.5032L47.568 94.7906C47.5194 94.9599 47.4478 95.0752 47.352 95.1364C47.2561 95.1975 47.1001 95.2274 46.8854 95.2274H46.4189V95.9332H47.4764V99.0749H48.2449V94.5032H47.6467Z" fill="white"/>
<path d="M19.0479 25.8933H19.7891V23.17H21.5235V25.8933H22.259V22.4841H19.0479V25.8933Z" fill="white"/>
<path d="M26.1947 22.628C25.9142 22.4758 25.5966 22.3989 25.2417 22.3989C24.8825 22.3989 24.5634 22.4758 24.2829 22.628C24.0024 22.7803 23.7821 22.9923 23.6232 23.2612C23.4629 23.5315 23.3828 23.8403 23.3828 24.1889C23.3828 24.5375 23.4629 24.8463 23.6232 25.1166C23.7835 25.387 24.0039 25.5976 24.2829 25.7498C24.5634 25.902 24.8825 25.9789 25.2417 25.9789C25.5966 25.9789 25.9142 25.902 26.1947 25.7498C26.4752 25.5976 26.6941 25.387 26.8516 25.1166C27.009 24.8463 27.0877 24.5375 27.0877 24.1889C27.0877 23.8403 27.009 23.5315 26.8516 23.2612C26.6941 22.9923 26.4752 22.7803 26.1947 22.628ZM26.2105 24.7709C26.116 24.9402 25.9844 25.0725 25.8169 25.1664C25.6481 25.2603 25.4549 25.3073 25.236 25.3073C25.0213 25.3073 24.8281 25.2603 24.6578 25.1664C24.4875 25.0725 24.3545 24.9416 24.26 24.7709C24.1656 24.6015 24.1183 24.4066 24.1183 24.1889C24.1183 23.9755 24.1656 23.7834 24.26 23.6112C24.3545 23.439 24.4861 23.3067 24.6578 23.2128C24.8281 23.1189 25.0213 23.0719 25.236 23.0719C25.4549 23.0719 25.6481 23.1189 25.8169 23.2128C25.9858 23.3067 26.1175 23.439 26.2105 23.6112C26.3049 23.7834 26.3521 23.9755 26.3521 24.1889C26.3521 24.4066 26.3049 24.6015 26.2105 24.7709Z" fill="white"/>
<path d="M30.9821 22.6962C30.7188 22.5454 30.4254 22.4714 30.102 22.4714C29.7915 22.4714 29.5053 22.5383 29.2449 22.6735C29.0989 22.7489 28.9715 22.8442 28.8599 22.9524C28.8785 22.8101 28.91 22.6792 28.9587 22.5653C29.0374 22.3804 29.159 22.2281 29.3236 22.1086C29.4881 21.9891 29.6928 21.9023 29.9375 21.8511L31.5473 21.4854V20.7412L29.7801 21.1467C29.3808 21.2378 29.0588 21.3858 28.8113 21.5878C28.5637 21.7899 28.3834 22.0574 28.2689 22.3917C28.1544 22.7247 28.0986 23.1444 28.0986 23.6496V24.159C28.0986 24.5118 28.1759 24.8263 28.3319 25.1023C28.4879 25.3784 28.7068 25.5946 28.9887 25.7497C29.2706 25.9048 29.5926 25.9817 29.9518 25.9817C30.311 25.9817 30.6344 25.9063 30.9206 25.7568C31.2068 25.606 31.43 25.3983 31.5903 25.1336C31.7505 24.8676 31.8307 24.5631 31.8307 24.2187C31.8307 23.8872 31.7548 23.5898 31.6046 23.3237C31.4529 23.0548 31.2454 22.8471 30.9821 22.6962ZM30.9535 24.7836C30.859 24.9487 30.726 25.0781 30.5528 25.1692C30.3796 25.2603 30.1836 25.3058 29.9647 25.3058C29.7457 25.3058 29.5511 25.2603 29.3794 25.1692C29.2091 25.0781 29.0746 24.9501 28.9787 24.7836C28.8828 24.6185 28.8342 24.4293 28.8342 24.2159C28.8342 24.0024 28.8828 23.8132 28.9787 23.6481C29.0746 23.4831 29.2091 23.3536 29.3794 23.2625C29.5497 23.1715 29.7443 23.126 29.9647 23.126C30.1836 23.126 30.3796 23.1715 30.5528 23.2625C30.726 23.3536 30.859 23.4831 30.9535 23.6481C31.0479 23.8132 31.0952 24.0039 31.0952 24.2159C31.0937 24.4293 31.0465 24.6185 30.9535 24.7836Z" fill="white"/>
<path d="M36.0997 23.3765C35.9551 23.0649 35.7448 22.8244 35.4686 22.6551C35.1924 22.4858 34.869 22.4004 34.4969 22.4004C34.1506 22.4004 33.8415 22.4772 33.5668 22.6295C33.2935 22.7817 33.0803 22.9937 32.9257 23.2669C32.7726 23.5387 32.6953 23.8475 32.6953 24.1918C32.6953 24.5404 32.7712 24.8506 32.9214 25.1224C33.0731 25.3941 33.2835 25.6061 33.5553 25.7555C33.8272 25.9064 34.1378 25.9803 34.4884 25.9803C34.8819 25.9803 35.2339 25.8836 35.543 25.6901C35.8521 25.4966 36.0782 25.2248 36.2227 24.8762H35.4214C35.3212 25.0242 35.191 25.138 35.0307 25.2163C34.8704 25.2945 34.693 25.3344 34.4955 25.3344C34.2894 25.3344 34.1048 25.2888 33.9403 25.1978C33.7757 25.1067 33.6484 24.9744 33.5596 24.8022C33.5038 24.6955 33.4681 24.576 33.4466 24.4465H36.2886C36.3086 24.0438 36.2442 23.6881 36.0997 23.3765ZM33.4552 23.883C33.4766 23.7749 33.5124 23.6724 33.5625 23.58C33.6527 23.4121 33.7786 23.2812 33.9431 23.1887C34.1077 23.0948 34.2952 23.0478 34.5041 23.0478C34.6973 23.0478 34.8704 23.0862 35.0264 23.1616C35.1824 23.2385 35.3083 23.3494 35.4042 23.4946C35.4786 23.607 35.5316 23.7379 35.5645 23.883H33.4552Z" fill="white"/>
<path d="M40.3959 22.4841H37.7157L37.5382 24.6142C37.5254 24.7451 37.5053 24.8518 37.4796 24.9343C37.4538 25.0168 37.4166 25.0837 37.368 25.1335C37.3408 25.162 37.3078 25.1862 37.2721 25.2089H36.8428V26.7769H37.5654V25.8948H40.2528V26.7769H40.9755V25.2089H40.3974V22.4841H40.3959ZM39.6604 25.2274H38.1078C38.1221 25.2047 38.135 25.1819 38.145 25.1591C38.1994 25.0439 38.2351 24.8931 38.2537 24.7052L38.3868 23.1643H39.659V25.2274H39.6604Z" fill="white"/>
<path d="M42.6877 24.7821V24.0578V22.4841H41.9521V25.8933H42.6362L44.5008 23.6054V24.3324V25.8933H45.2377V22.4841H44.5609L42.6877 24.7821Z" fill="white"/>
<path d="M46.248 23.17H47.483V25.8933H48.2257V23.17H49.4606V22.4841H46.248V23.17Z" fill="white"/>
<path d="M53.4346 23.3765C53.2901 23.0649 53.0797 22.8244 52.8036 22.6551C52.5274 22.4858 52.204 22.4004 51.8319 22.4004C51.4856 22.4004 51.1765 22.4772 50.9018 22.6295C50.627 22.7817 50.4152 22.9937 50.2607 23.2669C50.1075 23.5387 50.0303 23.8475 50.0303 24.1918C50.0303 24.5404 50.1061 24.8506 50.2564 25.1224C50.4081 25.3941 50.6184 25.6061 50.8903 25.7555C51.1622 25.9049 51.4727 25.9803 51.8233 25.9803C52.2168 25.9803 52.5689 25.8836 52.878 25.6901C53.1871 25.4966 53.4132 25.2248 53.5577 24.8762H52.7563C52.6562 25.0242 52.5259 25.138 52.3657 25.2163C52.2054 25.2945 52.028 25.3344 51.8305 25.3344C51.6244 25.3344 51.4398 25.2888 51.2752 25.1978C51.1107 25.1067 50.9833 24.9744 50.8946 24.8022C50.8388 24.6955 50.803 24.576 50.7816 24.4465H53.6235C53.6436 24.0438 53.5806 23.6881 53.4346 23.3765ZM50.7901 23.883C50.8116 23.7749 50.8474 23.6724 50.8975 23.58C50.9876 23.4121 51.1135 23.2812 51.2781 23.1887C51.4427 23.0948 51.6301 23.0478 51.8405 23.0478C52.0337 23.0478 52.2068 23.0862 52.3628 23.1616C52.5188 23.2385 52.6447 23.3494 52.7406 23.4946C52.815 23.607 52.868 23.7379 52.9009 23.883H50.7901Z" fill="white"/>
<path d="M54.8421 24.7707C54.8292 24.9273 54.7862 25.0411 54.7147 25.1136C54.6417 25.1862 54.5344 25.2218 54.3899 25.2218H54.1924V25.8948H54.4743C54.7018 25.8948 54.8936 25.8578 55.0496 25.7838C55.2055 25.7098 55.3257 25.596 55.4102 25.4438C55.496 25.2915 55.549 25.1023 55.5704 24.876L55.7107 23.1714H57.0229V25.8948H57.7656V22.4856H55.0324L54.8421 24.7707Z" fill="white"/>
<path d="M61.9167 24.0621C61.8065 23.8814 61.6534 23.742 61.4531 23.6438C61.2541 23.5456 61.018 23.4972 60.7476 23.4972H59.8804V22.4841H59.1377V25.8933H60.7476C61.1554 25.8933 61.4788 25.7852 61.7192 25.5703C61.9596 25.3541 62.0798 25.0638 62.0798 24.6981C62.0798 24.4548 62.0255 24.2428 61.9167 24.0621ZM61.174 25.1008C61.0595 25.199 60.9007 25.2474 60.6946 25.2474H59.8732V24.1432H60.6946C60.9007 24.1432 61.0595 24.1916 61.174 24.2898C61.2871 24.3879 61.3443 24.5245 61.3443 24.6981C61.3443 24.8689 61.2871 25.0026 61.174 25.1008Z" fill="white"/>
<path d="M27.0117 33.0877H27.7544V30.3643H29.4888V33.0877H30.2243V29.6785H27.0117V33.0877Z" fill="white"/>
<path d="M34.4412 29.8249C34.1736 29.6699 33.8759 29.593 33.5482 29.593C33.2148 29.593 32.9172 29.6699 32.651 29.8249C32.5093 29.9075 32.3848 30.0085 32.2761 30.1252L32.1816 29.6784H31.6035V34.3938H32.3462V32.7134C32.4378 32.8002 32.538 32.8784 32.651 32.9439C32.9157 33.0961 33.2148 33.173 33.5482 33.173C33.8759 33.173 34.175 33.0961 34.4412 32.941C34.7073 32.786 34.9163 32.5739 35.0651 32.3036C35.2139 32.0333 35.2883 31.7273 35.2883 31.383C35.2883 31.0387 35.2139 30.7327 35.0651 30.4624C34.9163 30.192 34.7088 29.98 34.4412 29.8249ZM34.4126 31.9607C34.3181 32.1286 34.1865 32.2609 34.0147 32.3562C33.8445 32.4516 33.6513 32.5 33.4366 32.5C33.2177 32.5 33.0245 32.4516 32.8556 32.3562C32.6868 32.2609 32.5551 32.1286 32.4621 31.9607C32.3677 31.7928 32.3204 31.6007 32.3204 31.383C32.3204 31.1696 32.3677 30.9775 32.4621 30.8082C32.5566 30.6388 32.6882 30.5051 32.8556 30.4097C33.0245 30.3144 33.2177 30.266 33.4366 30.266C33.6513 30.266 33.8445 30.3144 34.0147 30.4097C34.185 30.5051 34.3181 30.6388 34.4126 30.8082C34.507 30.9775 34.5542 31.1696 34.5542 31.383C34.5528 31.6007 34.5056 31.7928 34.4126 31.9607Z" fill="white"/>
<path d="M39.5586 30.5691C39.4141 30.2575 39.2038 30.017 38.9276 29.8477C38.6514 29.6784 38.328 29.593 37.9559 29.593C37.6096 29.593 37.3005 29.6699 37.0258 29.8221C36.7525 29.9743 36.5378 30.1864 36.3847 30.4596C36.2316 30.7313 36.1543 31.0401 36.1543 31.3844C36.1543 31.733 36.2301 32.0432 36.3804 32.315C36.5321 32.5867 36.7424 32.7988 37.0143 32.9482C37.2862 33.099 37.5967 33.173 37.9473 33.173C38.3409 33.173 38.6929 33.0762 39.002 32.8827C39.3111 32.6892 39.5372 32.4174 39.6817 32.0688H38.8804C38.7802 32.2168 38.65 32.3306 38.4897 32.4089C38.3294 32.4871 38.152 32.527 37.9545 32.527C37.7484 32.527 37.5638 32.4815 37.3993 32.3904C37.2347 32.2993 37.1073 32.167 37.0186 31.9948C36.9628 31.8881 36.927 31.7686 36.9056 31.6391H39.749C39.7661 31.2364 39.7032 30.8807 39.5586 30.5691ZM36.9127 31.0757C36.9342 30.9675 36.97 30.8651 37.0201 30.7726C37.1102 30.6047 37.2361 30.4738 37.4007 30.3813C37.5653 30.2874 37.7527 30.2404 37.9616 30.2404C38.1548 30.2404 38.328 30.2788 38.484 30.3543C38.6399 30.4311 38.7659 30.5421 38.8617 30.6872C38.9362 30.7996 38.9891 30.9305 39.022 31.0757H36.9127Z" fill="white"/>
<path d="M42.8267 31.4713L41.523 29.6785H40.8662V33.0877H41.6017V31.4357V30.8879L42.5934 32.2653H43.0657L44.0516 30.8893V31.4485V33.0877H44.7872V29.6785H44.1303L42.8267 31.4713Z" fill="white"/>
<path d="M46.9025 31.975V31.2522V29.6785H46.167V33.0877H46.8496L48.7156 30.7983V31.5268V33.0877H49.4511V29.6785H48.7743L46.9025 31.975Z" fill="white"/>
<path d="M53.4398 29.6785L51.5666 31.975V31.2522V29.6785H50.8311V33.0877H51.5151L53.3797 30.7983V31.5268V33.0877H54.1152V29.6785H53.4398Z" fill="white"/>
</g>
<defs>
<linearGradient id="paint0_linear_8865_65137" x1="-19.5965" y1="46.7096" x2="88.0113" y2="103.634" gradientUnits="userSpaceOnUse">
<stop stop-color="#6F5138"/>
<stop offset="0.1324" stop-color="#72533A"/>
<stop offset="0.212" stop-color="#7A5C42"/>
<stop offset="0.2777" stop-color="#886A4F"/>
<stop offset="0.3358" stop-color="#9C7E61"/>
<stop offset="0.3888" stop-color="#B79779"/>
<stop offset="0.4375" stop-color="#D7B796"/>
<stop offset="0.45" stop-color="#E0C09F"/>
<stop offset="0.4991" stop-color="#AC9575"/>
<stop offset="0.5434" stop-color="#847454"/>
<stop offset="0.5785" stop-color="#6C6040"/>
<stop offset="0.6" stop-color="#635939"/>
<stop offset="0.7" stop-color="#FCC89B"/>
<stop offset="0.7345" stop-color="#D4A481"/>
<stop offset="0.7795" stop-color="#A77C64"/>
<stop offset="0.8248" stop-color="#815B4C"/>
<stop offset="0.8697" stop-color="#644139"/>
<stop offset="0.9141" stop-color="#502F2C"/>
<stop offset="0.9578" stop-color="#432424"/>
<stop offset="1" stop-color="#3F2021"/>
</linearGradient>
<linearGradient id="paint1_linear_8865_65137" x1="-11.3146" y1="31.0542" x2="96.2932" y2="87.9787" gradientUnits="userSpaceOnUse">
<stop stop-color="#6F5138"/>
<stop offset="0.1324" stop-color="#72533A"/>
<stop offset="0.212" stop-color="#7A5C42"/>
<stop offset="0.2777" stop-color="#886A4F"/>
<stop offset="0.3358" stop-color="#9C7E61"/>
<stop offset="0.3888" stop-color="#B79779"/>
<stop offset="0.4375" stop-color="#D7B796"/>
<stop offset="0.45" stop-color="#E0C09F"/>
<stop offset="0.4991" stop-color="#AC9575"/>
<stop offset="0.5434" stop-color="#847454"/>
<stop offset="0.5785" stop-color="#6C6040"/>
<stop offset="0.6" stop-color="#635939"/>
<stop offset="0.7" stop-color="#FCC89B"/>
<stop offset="0.7345" stop-color="#D4A481"/>
<stop offset="0.7795" stop-color="#A77C64"/>
<stop offset="0.8248" stop-color="#815B4C"/>
<stop offset="0.8697" stop-color="#644139"/>
<stop offset="0.9141" stop-color="#502F2C"/>
<stop offset="0.9578" stop-color="#432424"/>
<stop offset="1" stop-color="#3F2021"/>
</linearGradient>
<linearGradient id="paint2_linear_8865_65137" x1="-21.339" y1="50.0032" x2="86.2686" y2="106.928" gradientUnits="userSpaceOnUse">
<stop stop-color="#6F5138"/>
<stop offset="0.1324" stop-color="#72533A"/>
<stop offset="0.212" stop-color="#7A5C42"/>
<stop offset="0.2777" stop-color="#886A4F"/>
<stop offset="0.3358" stop-color="#9C7E61"/>
<stop offset="0.3888" stop-color="#B79779"/>
<stop offset="0.4375" stop-color="#D7B796"/>
<stop offset="0.45" stop-color="#E0C09F"/>
<stop offset="0.4991" stop-color="#AC9575"/>
<stop offset="0.5434" stop-color="#847454"/>
<stop offset="0.5785" stop-color="#6C6040"/>
<stop offset="0.6" stop-color="#635939"/>
<stop offset="0.7" stop-color="#FCC89B"/>
<stop offset="0.7345" stop-color="#D4A481"/>
<stop offset="0.7795" stop-color="#A77C64"/>
<stop offset="0.8248" stop-color="#815B4C"/>
<stop offset="0.8697" stop-color="#644139"/>
<stop offset="0.9141" stop-color="#502F2C"/>
<stop offset="0.9578" stop-color="#432424"/>
<stop offset="1" stop-color="#3F2021"/>
</linearGradient>
<linearGradient id="paint3_linear_8865_65137" x1="-19.7156" y1="46.9337" x2="87.8921" y2="103.858" gradientUnits="userSpaceOnUse">
<stop stop-color="#6F5138"/>
<stop offset="0.1324" stop-color="#72533A"/>
<stop offset="0.212" stop-color="#7A5C42"/>
<stop offset="0.2777" stop-color="#886A4F"/>
<stop offset="0.3358" stop-color="#9C7E61"/>
<stop offset="0.3888" stop-color="#B79779"/>
<stop offset="0.4375" stop-color="#D7B796"/>
<stop offset="0.45" stop-color="#E0C09F"/>
<stop offset="0.4991" stop-color="#AC9575"/>
<stop offset="0.5434" stop-color="#847454"/>
<stop offset="0.5785" stop-color="#6C6040"/>
<stop offset="0.6" stop-color="#635939"/>
<stop offset="0.7" stop-color="#FCC89B"/>
<stop offset="0.7345" stop-color="#D4A481"/>
<stop offset="0.7795" stop-color="#A77C64"/>
<stop offset="0.8248" stop-color="#815B4C"/>
<stop offset="0.8697" stop-color="#644139"/>
<stop offset="0.9141" stop-color="#502F2C"/>
<stop offset="0.9578" stop-color="#432424"/>
<stop offset="1" stop-color="#3F2021"/>
</linearGradient>
<linearGradient id="paint4_linear_8865_65137" x1="-18.804" y1="45.2116" x2="88.8037" y2="102.136" gradientUnits="userSpaceOnUse">
<stop stop-color="#6F5138"/>
<stop offset="0.1324" stop-color="#72533A"/>
<stop offset="0.212" stop-color="#7A5C42"/>
<stop offset="0.2777" stop-color="#886A4F"/>
<stop offset="0.3358" stop-color="#9C7E61"/>
<stop offset="0.3888" stop-color="#B79779"/>
<stop offset="0.4375" stop-color="#D7B796"/>
<stop offset="0.45" stop-color="#E0C09F"/>
<stop offset="0.4991" stop-color="#AC9575"/>
<stop offset="0.5434" stop-color="#847454"/>
<stop offset="0.5785" stop-color="#6C6040"/>
<stop offset="0.6" stop-color="#635939"/>
<stop offset="0.7" stop-color="#FCC89B"/>
<stop offset="0.7345" stop-color="#D4A481"/>
<stop offset="0.7795" stop-color="#A77C64"/>
<stop offset="0.8248" stop-color="#815B4C"/>
<stop offset="0.8697" stop-color="#644139"/>
<stop offset="0.9141" stop-color="#502F2C"/>
<stop offset="0.9578" stop-color="#432424"/>
<stop offset="1" stop-color="#3F2021"/>
</linearGradient>
<linearGradient id="paint5_linear_8865_65137" x1="-17.6387" y1="43.0072" x2="89.9691" y2="99.9319" gradientUnits="userSpaceOnUse">
<stop stop-color="#6F5138"/>
<stop offset="0.1324" stop-color="#72533A"/>
<stop offset="0.212" stop-color="#7A5C42"/>
<stop offset="0.2777" stop-color="#886A4F"/>
<stop offset="0.3358" stop-color="#9C7E61"/>
<stop offset="0.3888" stop-color="#B79779"/>
<stop offset="0.4375" stop-color="#D7B796"/>
<stop offset="0.45" stop-color="#E0C09F"/>
<stop offset="0.4991" stop-color="#AC9575"/>
<stop offset="0.5434" stop-color="#847454"/>
<stop offset="0.5785" stop-color="#6C6040"/>
<stop offset="0.6" stop-color="#635939"/>
<stop offset="0.7" stop-color="#FCC89B"/>
<stop offset="0.7345" stop-color="#D4A481"/>
<stop offset="0.7795" stop-color="#A77C64"/>
<stop offset="0.8248" stop-color="#815B4C"/>
<stop offset="0.8697" stop-color="#644139"/>
<stop offset="0.9141" stop-color="#502F2C"/>
<stop offset="0.9578" stop-color="#432424"/>
<stop offset="1" stop-color="#3F2021"/>
</linearGradient>
<linearGradient id="paint6_linear_8865_65137" x1="-16.5782" y1="41.0035" x2="91.0294" y2="97.9281" gradientUnits="userSpaceOnUse">
<stop stop-color="#6F5138"/>
<stop offset="0.1324" stop-color="#72533A"/>
<stop offset="0.212" stop-color="#7A5C42"/>
<stop offset="0.2777" stop-color="#886A4F"/>
<stop offset="0.3358" stop-color="#9C7E61"/>
<stop offset="0.3888" stop-color="#B79779"/>
<stop offset="0.4375" stop-color="#D7B796"/>
<stop offset="0.45" stop-color="#E0C09F"/>
<stop offset="0.4991" stop-color="#AC9575"/>
<stop offset="0.5434" stop-color="#847454"/>
<stop offset="0.5785" stop-color="#6C6040"/>
<stop offset="0.6" stop-color="#635939"/>
<stop offset="0.7" stop-color="#FCC89B"/>
<stop offset="0.7345" stop-color="#D4A481"/>
<stop offset="0.7795" stop-color="#A77C64"/>
<stop offset="0.8248" stop-color="#815B4C"/>
<stop offset="0.8697" stop-color="#644139"/>
<stop offset="0.9141" stop-color="#502F2C"/>
<stop offset="0.9578" stop-color="#432424"/>
<stop offset="1" stop-color="#3F2021"/>
</linearGradient>
<linearGradient id="paint7_linear_8865_65137" x1="-15.3557" y1="38.6933" x2="92.2519" y2="95.6177" gradientUnits="userSpaceOnUse">
<stop stop-color="#6F5138"/>
<stop offset="0.1324" stop-color="#72533A"/>
<stop offset="0.212" stop-color="#7A5C42"/>
<stop offset="0.2777" stop-color="#886A4F"/>
<stop offset="0.3358" stop-color="#9C7E61"/>
<stop offset="0.3888" stop-color="#B79779"/>
<stop offset="0.4375" stop-color="#D7B796"/>
<stop offset="0.45" stop-color="#E0C09F"/>
<stop offset="0.4991" stop-color="#AC9575"/>
<stop offset="0.5434" stop-color="#847454"/>
<stop offset="0.5785" stop-color="#6C6040"/>
<stop offset="0.6" stop-color="#635939"/>
<stop offset="0.7" stop-color="#FCC89B"/>
<stop offset="0.7345" stop-color="#D4A481"/>
<stop offset="0.7795" stop-color="#A77C64"/>
<stop offset="0.8248" stop-color="#815B4C"/>
<stop offset="0.8697" stop-color="#644139"/>
<stop offset="0.9141" stop-color="#502F2C"/>
<stop offset="0.9578" stop-color="#432424"/>
<stop offset="1" stop-color="#3F2021"/>
</linearGradient>
<clipPath id="clip0_8865_65137">
<rect width="93" height="121" fill="white"/>
</clipPath>
</defs>
</svg>
