<svg width="52" height="52" viewBox="0 0 52 52" fill="none" xmlns="http://www.w3.org/2000/svg">
<circle cx="26" cy="26" r="26" fill="#3770FF"/>
<path d="M29.7559 36H21.9219C20.1125 36 18.6406 34.5281 18.6406 32.7188V21.6035C18.6406 19.7942 20.1125 18.3223 21.9219 18.3223H29.7559C31.5652 18.3223 33.0371 19.7942 33.0371 21.6035V32.7188C33.0371 34.5281 31.5652 36 29.7559 36ZM21.9219 19.9629C21.0173 19.9629 20.2812 20.6989 20.2812 21.6035V32.7188C20.2812 33.6233 21.0173 34.3594 21.9219 34.3594H29.7559C30.6604 34.3594 31.3965 33.6233 31.3965 32.7188V21.6035C31.3965 20.6989 30.6604 19.9629 29.7559 19.9629H21.9219ZM36.3184 30.668V18.2812C36.3184 16.4719 34.8464 15 33.0371 15H23.9316C23.4785 15 23.1113 15.3672 23.1113 15.8203C23.1113 16.2734 23.4785 16.6406 23.9316 16.6406H33.0371C33.9417 16.6406 34.6777 17.3767 34.6777 18.2812V30.668C34.6777 31.1211 35.045 31.4883 35.498 31.4883C35.9511 31.4883 36.3184 31.1211 36.3184 30.668Z" fill="white"/>
</svg>
