<svg width="52" height="52" viewBox="0 0 52 52" fill="none" xmlns="http://www.w3.org/2000/svg">
<circle cx="26" cy="26" r="26" fill="#4A7AFF"/>
<rect x="11" y="9" width="34" height="34" rx="2" fill="#4A7AFF"/>
<path d="M33.6654 12.1497V16.5352C33.6654 16.5352 28.2068 15.8043 28.2068 19.0526V22.3009H33.1371L32.521 27.2546H28.2068V40.1668H22.7483V27.2546L18.082 27.1734V22.3009H22.6602V18.5653C22.6602 18.5653 22.3581 13.0082 28.2949 11.9875C30.7602 11.5634 33.6654 12.1497 33.6654 12.1497Z" fill="white"/>
<path d="M33.6667 16.5352V12.1497C33.6667 12.1497 31.1135 11.5634 28.9469 11.9875C28.6085 12.0537 28.2937 12.1394 28 12.2407V40.1668H28.8695V27.2546H32.6607L33.2024 22.3009H28.8695C28.8695 22.3009 28.8695 22.3009 28.8695 19.0526C28.8695 15.8043 33.6667 16.5352 33.6667 16.5352Z" fill="#DCE1EB"/>
</svg>
