<svg width="40" height="41" viewBox="0 0 40 41" fill="none" xmlns="http://www.w3.org/2000/svg">
<circle cx="20" cy="20.6821" r="20" fill="#4E6297"/>
<path d="M29 14.5008C29 13.0034 27.6788 11.6821 26.1813 11.6821H14.8186C13.3212 11.6821 12 13.0034 12 14.5008V25.8635C12 27.3609 13.3212 28.6821 14.8186 28.6821H20.544V22.2521H18.4301V19.4334H20.544V18.2883C20.544 16.3505 21.9534 14.6769 23.715 14.6769H26.0052V17.4956H23.715C23.4508 17.4956 23.1865 17.7598 23.1865 18.2883V19.4334H26.0052V22.2521H23.1865V28.6821H26.1813C27.6788 28.6821 29 27.3609 29 25.8635V14.5008Z" fill="white"/>
</svg>
