<svg width="40" height="41" viewBox="0 0 40 41" fill="none" xmlns="http://www.w3.org/2000/svg">
<circle cx="20" cy="20.6821" r="20" fill="#C5331E"/>
<path d="M20.3417 19.1238V23.0821H25.725C24.9333 25.2196 22.875 26.6446 20.5 26.6446C17.4125 26.6446 14.9583 24.1905 14.9583 21.103C14.9583 18.0155 17.4125 15.5613 20.5 15.5613C21.6875 15.5613 22.7958 15.9571 23.7458 16.5905L24.0625 16.828L26.4375 13.7405L26.1208 13.503C24.4583 12.3155 22.5583 11.6821 20.5 11.6821C15.275 11.6821 11 15.9571 11 21.1821C11 26.4071 15.275 30.6821 20.5 30.6821C25.725 30.6821 30 26.4071 30 21.1821V19.203H20.3417V19.1238Z" fill="white"/>
</svg>
