<svg width="40" height="41" viewBox="0 0 40 41" fill="none" xmlns="http://www.w3.org/2000/svg">
<circle cx="20" cy="20.6821" r="20" fill="#55ACE3"/>
<path d="M30.6 15.5821C29.9 15.8821 29.1 16.0821 28.3 16.1821C29.1 15.6821 29.8 14.8821 30.1 13.9821C29.3 14.4821 28.5 14.7821 27.5 14.9821C26.8 14.1821 25.7 13.6821 24.6 13.6821C22.4 13.6821 20.6 15.4821 20.6 17.6821C20.6 17.9821 20.6 18.2821 20.7 18.5821C17.4 18.3821 14.4 16.7821 12.4 14.3821C12.1 14.9821 11.9 15.6821 11.9 16.3821C11.9 17.7821 12.6 18.9821 13.7 19.6821C13 19.6821 12.4 19.4821 11.9 19.1821C11.9 21.0821 13.3 22.7821 15.1 23.0821C14.8 23.1821 14.4 23.1821 14 23.1821C13.7 23.1821 13.5 23.1821 13.2 23.0821C13.7 24.6821 15.2 25.8821 17 25.8821C15.6 26.9821 13.9 27.5821 12 27.5821C11.7 27.5821 11.4 27.5821 11 27.4821C12.8 28.5821 14.9 29.2821 17.2 29.2821C24.6 29.2821 28.6 23.1821 28.6 17.8821V17.3821C29.4 17.0821 30.1 16.3821 30.6 15.5821Z" fill="white"/>
</svg>
