<svg width="52" height="52" viewBox="0 0 52 52" fill="none" xmlns="http://www.w3.org/2000/svg">
<circle cx="26" cy="26" r="26" fill="#4AA8FF"/>
<path d="M38.5227 31.1562C39.2172 31.8641 40.7242 33.052 40.4507 34.2614C40.1986 35.3716 38.5414 34.9667 36.9325 35.031C35.0957 35.1088 34.007 35.149 32.9022 34.2614C32.382 33.8404 32.0763 33.3416 31.5775 32.7839C31.1243 32.2798 30.5532 31.3761 29.7755 31.4109C28.3784 31.4807 28.8155 33.4275 28.3194 34.7548C20.5537 35.9776 17.4351 31.1803 14.6838 26.5252C13.3511 24.27 11.4258 19.4272 11.4258 19.4272L16.9176 19.4084C16.9176 19.4084 18.6793 22.6128 19.1459 23.4387C19.5428 24.1413 19.9799 24.6991 20.4304 25.3265C20.8085 25.8468 21.4064 26.8657 22.0607 26.7826C23.1253 26.6459 23.3184 22.5163 22.6587 21.1326C22.3959 20.5722 21.7658 20.3764 21.1142 20.186C21.334 18.797 27.2736 18.5074 28.2336 19.5854C29.628 21.1514 27.2683 25.5116 29.1775 26.7826C31.8591 25.3775 34.1491 19.4942 34.1491 19.4942L40.5794 19.5344C40.5794 19.5344 39.5738 22.7147 38.52 24.1252C37.9059 24.9511 35.868 26.7907 35.9484 28.1556C36.0128 29.2362 37.6699 30.2874 38.5227 31.1562Z" fill="white"/>
</svg>
