<svg width="40" height="41" viewBox="0 0 40 41" fill="none" xmlns="http://www.w3.org/2000/svg">
<circle cx="20" cy="20.6821" r="20" fill="#7294C7"/>
<path d="M29.8063 25.7974C29.8063 25.7144 29.7232 25.7144 29.7232 25.6313C29.3911 24.9672 28.6439 24.1369 27.6477 23.2237C27.1495 22.8086 26.9004 22.4765 26.7344 22.3104C26.4853 21.9783 26.4853 21.7293 26.5684 21.3972C26.6514 21.1481 26.9835 20.733 27.5646 19.9858C27.8967 19.5707 28.0628 19.3216 28.3118 19.0725C29.5572 17.4121 30.1383 16.3328 29.9723 15.8346L29.8893 15.7516C29.8063 15.6686 29.7232 15.5856 29.5572 15.5856C29.3911 15.5025 29.1421 15.5025 28.893 15.5856H25.7381C25.6551 15.5856 25.6551 15.5856 25.4891 15.5856C25.406 15.5856 25.323 15.5856 25.323 15.5856H25.24H25.157L25.0739 15.6686C24.9909 15.7516 24.9909 15.7516 24.9909 15.8346C24.6588 16.7479 24.2437 17.4951 23.8286 18.3253C23.5795 18.7404 23.3305 19.1556 23.0814 19.4876C22.8323 19.8197 22.6663 20.0688 22.5002 20.2348C22.3342 20.4009 22.1681 20.4839 22.0851 20.65C22.0021 20.733 21.8361 20.816 21.8361 20.733C21.753 20.733 21.67 20.733 21.67 20.65C21.587 20.5669 21.504 20.4839 21.4209 20.4009C21.3379 20.3179 21.3379 20.1518 21.2549 19.9858C21.2549 19.8197 21.2549 19.6537 21.2549 19.5707C21.2549 19.4876 21.2549 19.2386 21.2549 19.0725C21.2549 18.8235 21.2549 18.6574 21.2549 18.5744C21.2549 18.3253 21.2549 17.9932 21.2549 17.6611C21.2549 17.3291 21.2549 17.08 21.2549 16.9139C21.2549 16.7479 21.2549 16.4988 21.2549 16.3328C21.2549 16.0837 21.2549 15.9177 21.2549 15.8346C21.2549 15.7516 21.1719 15.5856 21.1719 15.5025C21.0889 15.4195 21.0058 15.3365 20.9228 15.2535C20.8398 15.1705 20.6737 15.1705 20.5907 15.0874C20.1756 15.0044 19.6775 14.9214 19.0963 14.9214C17.7679 14.9214 16.8547 15.0044 16.5226 15.1705C16.3565 15.2535 16.1905 15.3365 16.1075 15.5025C15.9414 15.6686 15.9414 15.7516 16.0245 15.7516C16.4396 15.8346 16.7717 16.0007 16.9377 16.2497L17.0207 16.4158C17.1038 16.4988 17.1037 16.6649 17.1868 16.9139C17.2698 17.163 17.2698 17.4121 17.2698 17.7442C17.2698 18.2423 17.2698 18.7404 17.2698 19.0725C17.2698 19.4876 17.1868 19.7367 17.1868 19.9858C17.1868 20.2348 17.1038 20.4009 17.0207 20.4839C16.9377 20.65 16.9377 20.733 16.8547 20.733C16.8547 20.733 16.8547 20.816 16.7717 20.816C16.6886 20.816 16.6056 20.899 16.4396 20.899C16.3565 20.899 16.1905 20.816 16.1075 20.733C15.9414 20.65 15.7754 20.4839 15.6924 20.3179C15.5263 20.1518 15.3603 19.9028 15.1942 19.5707C15.0282 19.2386 14.7791 18.9065 14.6131 18.4083L14.447 18.0763C14.364 17.9102 14.198 17.5781 14.0319 17.163C13.8659 16.7479 13.6998 16.4158 13.5338 16.0007C13.4507 15.8346 13.3677 15.7516 13.2847 15.6686H13.2017C13.2017 15.6686 13.1186 15.5856 13.0356 15.5856C12.9526 15.5856 12.8696 15.5025 12.7866 15.5025H9.79773C9.46564 15.5025 9.2996 15.5856 9.21657 15.6686L9.13354 15.7516C9.13354 15.7516 9.13354 15.8346 9.13354 15.9177C9.13354 16.0007 9.13355 16.0837 9.21657 16.2497C9.63169 17.246 10.1298 18.2423 10.628 19.2386C11.1261 20.1518 11.6242 20.9821 11.9563 21.5632C12.3714 22.1444 12.7035 22.7255 13.1186 23.2237C13.5338 23.7218 13.7828 24.0539 13.8658 24.22C14.0319 24.386 14.1149 24.469 14.1979 24.552L14.447 24.8011C14.6131 24.9672 14.8621 25.2162 15.1942 25.4653C15.5263 25.7144 15.9414 25.9634 16.3565 26.2125C16.7717 26.4616 17.2698 26.6276 17.7679 26.7937C18.3491 26.9597 18.8472 27.0427 19.3454 26.9597H20.5907C20.8398 26.9597 21.0058 26.8767 21.1719 26.7106L21.2549 26.6276C21.2549 26.5446 21.3379 26.5446 21.3379 26.4616C21.3379 26.3785 21.3379 26.2955 21.3379 26.1295C21.3379 25.7974 21.3379 25.5483 21.4209 25.2993C21.504 25.0502 21.504 24.8841 21.587 24.7181C21.67 24.552 21.753 24.469 21.8361 24.386C21.9191 24.303 22.0021 24.22 22.0021 24.22H22.0851C22.2512 24.1369 22.5002 24.2199 22.6663 24.386C22.9154 24.552 23.1644 24.8011 23.3305 25.0502C23.4965 25.2993 23.7456 25.5483 24.0777 25.8804C24.4098 26.2125 24.6588 26.4616 24.8249 26.5446L25.0739 26.7106C25.24 26.7937 25.406 26.8767 25.6551 26.9597C25.9042 27.0427 26.0702 27.0427 26.2363 27.0427L29.0591 26.9597C29.3081 26.9597 29.5572 26.8767 29.7232 26.7937C29.8893 26.7106 29.9723 26.6276 29.9723 26.4616C29.9723 26.3785 29.9723 26.2125 29.9723 26.1295C29.8062 25.9634 29.8063 25.8804 29.8063 25.7974Z" fill="white"/>
</svg>
